<?xml version="1.0" encoding="utf-8"?>
<!-- Generator: Adobe Illustrator 27.5.0, SVG Export Plug-In . SVG Version: 6.00 Build 0)  -->
<svg version="1.1" xmlns="http://www.w3.org/2000/svg" xmlns:xlink="http://www.w3.org/1999/xlink" x="0px" y="0px"
	 viewBox="0 0 500 500" style="enable-background:new 0 0 500 500;" xml:space="preserve">
<g id="Background_Complete">
	<g>
		<rect x="416.779" y="398.494" style="fill:#EBEBEB;" width="33.122" height="0.25"/>
		<rect x="322.527" y="401.208" style="fill:#EBEBEB;" width="8.693" height="0.25"/>
		<rect x="396.586" y="389.208" style="fill:#EBEBEB;" width="19.192" height="0.25"/>
		<rect x="52.459" y="390.888" style="fill:#EBEBEB;" width="43.193" height="0.25"/>
		<rect x="104.556" y="390.888" style="fill:#EBEBEB;" width="6.333" height="0.25"/>
		<rect x="131.471" y="395.111" style="fill:#EBEBEB;" width="93.676" height="0.25"/>
		<path style="fill:#EBEBEB;" d="M237.014,337.8H43.915c-3.147,0-5.708-2.561-5.708-5.708V60.66c0-3.147,2.561-5.708,5.708-5.708
			h193.099c3.146,0,5.707,2.561,5.707,5.708v271.432C242.721,335.239,240.16,337.8,237.014,337.8z M43.915,55.203
			c-3.01,0-5.458,2.448-5.458,5.458v271.432c0,3.01,2.448,5.458,5.458,5.458h193.099c3.009,0,5.457-2.448,5.457-5.458V60.66
			c0-3.009-2.448-5.458-5.457-5.458H43.915z"/>
		<path style="fill:#EBEBEB;" d="M453.31,337.8H260.212c-3.147,0-5.707-2.561-5.707-5.708V60.66c0-3.147,2.561-5.708,5.707-5.708
			H453.31c3.148,0,5.708,2.561,5.708,5.708v271.432C459.019,335.239,456.458,337.8,453.31,337.8z M260.212,55.203
			c-3.009,0-5.457,2.448-5.457,5.458v271.432c0,3.01,2.448,5.458,5.457,5.458H453.31c3.01,0,5.458-2.448,5.458-5.458V60.66
			c0-3.009-2.448-5.458-5.458-5.458H260.212z"/>
		<rect y="382.398" style="fill:#EBEBEB;" width="500" height="0.25"/>
	</g>
	<g>
		<g>
			<path style="fill:#E0E0E0;" d="M215.26,101.667c-2.485,0-4.5,2.015-4.5,4.5V114h9v-7.833
				C219.76,103.681,217.745,101.667,215.26,101.667z M215.26,108.25c-0.783,0-1.417-0.634-1.417-1.417
				c0-0.782,0.634-1.417,1.417-1.417s1.417,0.634,1.417,1.417C216.677,107.616,216.043,108.25,215.26,108.25z"/>
			<path style="fill:#E0E0E0;" d="M400.26,101.667c-2.485,0-4.5,2.015-4.5,4.5V114h9v-7.833
				C404.76,103.681,402.746,101.667,400.26,101.667z M400.26,108.25c-0.783,0-1.417-0.634-1.417-1.417
				c0-0.782,0.634-1.417,1.417-1.417s1.417,0.634,1.417,1.417C401.677,107.616,401.043,108.25,400.26,108.25z"/>
		</g>
		<rect x="189.794" y="111" style="fill:#EBEBEB;" width="235.932" height="135.308"/>
		<rect x="196.294" y="117.5" style="fill:#F5F5F5;" width="222.932" height="122.308"/>
		<rect x="185.427" y="241.721" style="fill:#F0F0F0;" width="244.667" height="10.279"/>
		<path style="fill:#E0E0E0;" d="M265.01,139h-1h-41v11.5v1V162v1v10.5v1V185v1v10.5v1V209h11.5h1h28.5h1h30.875h1h30.875h1h30.875
			h1h31.875v-11.5v-1V186v-1v-10.5v-1V163v-1v-10.5v-1V139H265.01z M359.635,173.5H328.76V163h30.875V173.5z M359.635,185H328.76
			v-10.5h30.875V185z M359.635,196.5H328.76V186h30.875V196.5z M235.51,186h28.5v10.5h-28.5V186z M235.51,174.5h28.5V185h-28.5
			V174.5z M235.51,163h28.5v10.5h-28.5V163z M235.51,151.5h28.5V162h-28.5V151.5z M327.76,173.5h-30.875V163h30.875V173.5z
			 M327.76,185h-30.875v-10.5h30.875V185z M265.01,174.5h30.875V185H265.01V174.5z M295.885,173.5H265.01V163h30.875V173.5z
			 M265.01,186h30.875v10.5H265.01V186z M296.885,186h30.875v10.5h-30.875V186z M327.76,162h-30.875h-1H265.01v-10.5h62.75V162z
			 M224.01,140h40v10.5h-28.5h-1h-10.5V140z M224.01,151.5h10.5V162h-10.5V151.5z M224.01,163h10.5v10.5h-10.5V163z M224.01,174.5
			h10.5V185h-10.5V174.5z M224.01,186h10.5v10.5h-10.5V186z M234.51,208h-10.5v-10.5h10.5V208z M264.01,208h-28.5v-10.5h28.5V208z
			 M295.885,208H265.01v-10.5h30.875V208z M327.76,208h-30.875v-10.5h30.875V208z M359.635,208H328.76v-10.5h30.875V208z
			 M391.51,208h-30.875v-10.5h30.875V208z M391.51,196.5h-30.875V186h30.875V196.5z M391.51,185h-30.875v-10.5h30.875V185z
			 M391.51,173.5h-30.875V163h30.875V173.5z M391.51,162h-30.875h-1H328.76v-10.5h62.75V162z M328.76,150.5h-1h-62.75V140h126.5
			v10.5H328.76z"/>
	</g>
	<g>
		<rect x="67.489" y="193.837" style="fill:#E0E0E0;" width="22.5" height="188.984"/>
		<rect x="87.533" y="193.837" style="fill:#EBEBEB;" width="63.159" height="188.984"/>
		<rect x="93.966" y="200.271" style="fill:#FAFAFA;" width="50.291" height="50.291"/>
		<path style="fill:#E0E0E0;" d="M132.717,229.859h-27.211c-0.763,0-1.382-0.619-1.382-1.382l0,0c0-0.763,0.619-1.382,1.382-1.382
			h27.211c0.763,0,1.382,0.619,1.382,1.382l0,0C134.099,229.24,133.48,229.859,132.717,229.859z"/>
		<path style="fill:#E0E0E0;" d="M132.717,235.386h-27.211c-0.763,0-1.382-0.619-1.382-1.382l0,0c0-0.763,0.619-1.382,1.382-1.382
			h27.211c0.763,0,1.382,0.619,1.382,1.382l0,0C134.099,234.768,133.48,235.386,132.717,235.386z"/>
		<path style="fill:#E0E0E0;" d="M132.717,240.914h-27.211c-0.763,0-1.382-0.619-1.382-1.382l0,0c0-0.763,0.619-1.382,1.382-1.382
			h27.211c0.763,0,1.382,0.619,1.382,1.382l0,0C134.099,240.295,133.48,240.914,132.717,240.914z"/>
		<polygon style="fill:#EBEBEB;" points="124.468,219.655 113.755,219.655 110.927,216.827 110.927,210.791 113.755,207.963 
			124.468,207.963 127.296,210.791 127.296,216.827 		"/>
		<rect x="93.966" y="255.376" style="fill:#FAFAFA;" width="50.291" height="50.291"/>
		<path style="fill:#E0E0E0;" d="M132.717,284.965h-27.211c-0.763,0-1.382-0.619-1.382-1.382l0,0c0-0.763,0.619-1.382,1.382-1.382
			h27.211c0.763,0,1.382,0.619,1.382,1.382l0,0C134.099,284.346,133.48,284.965,132.717,284.965z"/>
		<path style="fill:#E0E0E0;" d="M132.717,290.492h-27.211c-0.763,0-1.382-0.619-1.382-1.382l0,0c0-0.763,0.619-1.382,1.382-1.382
			h27.211c0.763,0,1.382,0.619,1.382,1.382l0,0C134.099,289.873,133.48,290.492,132.717,290.492z"/>
		<path style="fill:#E0E0E0;" d="M132.717,296.019h-27.211c-0.763,0-1.382-0.619-1.382-1.382l0,0c0-0.763,0.619-1.382,1.382-1.382
			h27.211c0.763,0,1.382,0.619,1.382,1.382l0,0C134.099,295.4,133.48,296.019,132.717,296.019z"/>
		<polygon style="fill:#EBEBEB;" points="124.468,274.76 113.755,274.76 110.927,271.932 110.927,265.896 113.755,263.068 
			124.468,263.068 127.296,265.896 127.296,271.932 		"/>
		<rect x="93.966" y="310.482" style="fill:#FAFAFA;" width="50.291" height="50.291"/>
		<path style="fill:#E0E0E0;" d="M132.717,340.07h-27.211c-0.763,0-1.382-0.619-1.382-1.382l0,0c0-0.763,0.619-1.382,1.382-1.382
			h27.211c0.763,0,1.382,0.619,1.382,1.382l0,0C134.099,339.451,133.48,340.07,132.717,340.07z"/>
		<path style="fill:#E0E0E0;" d="M132.717,345.597h-27.211c-0.763,0-1.382-0.619-1.382-1.382l0,0c0-0.763,0.619-1.382,1.382-1.382
			h27.211c0.763,0,1.382,0.619,1.382,1.382l0,0C134.099,344.979,133.48,345.597,132.717,345.597z"/>
		<path style="fill:#E0E0E0;" d="M132.717,351.125h-27.211c-0.763,0-1.382-0.619-1.382-1.382l0,0c0-0.763,0.619-1.382,1.382-1.382
			h27.211c0.763,0,1.382,0.619,1.382,1.382l0,0C134.099,350.506,133.48,351.125,132.717,351.125z"/>
		<polygon style="fill:#EBEBEB;" points="124.468,329.866 113.755,329.866 110.927,327.038 110.927,321.002 113.755,318.174 
			124.468,318.174 127.296,321.002 127.296,327.038 		"/>
	</g>
</g>
<g id="Background_Simple" style="display:none;">
	<g style="display:inline;">
		<path style="fill:#407BFF;" d="M154.783,325.679C128.367,303.86,49.03,242.201,76.062,174.546
			c28.171-70.505,85.284-60.565,153.135-22.889c63.363,35.184,75.187-43.416,160.893,4.175
			c72.566,40.295,79.696,178.07-44.94,217.733C269.479,397.647,184.64,350.34,154.783,325.679z"/>
		<path style="opacity:0.9;fill:#FFFFFF;" d="M154.783,325.679C128.367,303.86,49.03,242.201,76.062,174.546
			c28.171-70.505,85.284-60.565,153.135-22.889c63.363,35.184,75.187-43.416,160.893,4.175
			c72.566,40.295,79.696,178.07-44.94,217.733C269.479,397.647,184.64,350.34,154.783,325.679z"/>
	</g>
</g>
<g id="Shadow">
	<ellipse id="_x3C_Path_x3E__1_" style="fill:#F5F5F5;" cx="245.178" cy="412.391" rx="193.889" ry="11.323"/>
</g>
<g id="Character_1">
	<g>
		<g>
			<g>
				<g>
					<path style="fill:#263238;" d="M118.604,411.822l-25.206-9.282l-25.48,9.289c-0.88,0.321-1.811-0.331-1.811-1.267l0,0
						c0-0.525,0.305-1.002,0.781-1.223l26.51-12.3l26.243,12.299c0.473,0.222,0.775,0.697,0.775,1.22l0,0
						C120.416,411.495,119.483,412.146,118.604,411.822z"/>
					<path style="opacity:0.3;fill:#FFFFFF;" d="M118.604,411.822l-25.206-9.282l-25.48,9.289c-0.88,0.321-1.811-0.331-1.811-1.267
						l0,0c0-0.525,0.305-1.002,0.781-1.223l26.51-12.3l26.243,12.299c0.473,0.222,0.775,0.697,0.775,1.22l0,0
						C120.416,411.495,119.483,412.146,118.604,411.822z"/>
					<polygon style="opacity:0.2;" points="87.458,404.705 93.397,402.54 99.065,404.627 99.065,399.695 93.397,397.038 
						87.458,399.794 					"/>
					<path style="fill:#263238;" d="M93.261,412.037L93.261,412.037c-1.154,0-2.119-0.877-2.228-2.026l-0.712-7.472v-62.017h5.879
						v62.017l-0.712,7.472C95.38,411.16,94.415,412.037,93.261,412.037z"/>
					<path style="opacity:0.3;fill:#FFFFFF;" d="M93.261,412.037L93.261,412.037c-1.154,0-2.119-0.877-2.228-2.026l-0.712-7.472
						v-62.017h5.879v62.017l-0.712,7.472C95.38,411.16,94.415,412.037,93.261,412.037z"/>
					<rect x="90.322" y="340.522" style="opacity:0.2;" width="5.879" height="7.222"/>
				</g>
				<g>
					<g>
						<path style="fill:#407BFF;" d="M80.076,276.629c0.841-0.016,1.685,0.36,2.248,1.295
							c10.768,17.906,14.593,39.431,10.878,59.967c-0.233,1.287-1.114,1.887-2.092,1.953c-1.63,0.111-30.646,0.008-31.698,0.006
							c-1.583-0.003-3.321-1.348-2.949-3.402c3.452-19.084-0.349-39.186-10.331-55.786c-1.24-2.063,0.589-3.999,2.438-4.034
							C49.411,276.612,78.227,276.664,80.076,276.629z"/>
						<path style="opacity:0.2;" d="M80.076,276.629c0.841-0.016,1.685,0.36,2.248,1.295c10.768,17.906,14.593,39.431,10.878,59.967
							c-0.233,1.287-1.114,1.887-2.092,1.953c-1.63,0.111-30.646,0.008-31.698,0.006c-1.583-0.003-3.321-1.348-2.949-3.402
							c3.452-19.084-0.349-39.186-10.331-55.786c-1.24-2.063,0.589-3.999,2.438-4.034C49.411,276.612,78.227,276.664,80.076,276.629
							z"/>
					</g>
					<g>
						<g>
							<path style="fill:#407BFF;" d="M56.463,336.449c3.452-19.084-0.349-39.186-10.331-55.786
								c-1.804-3.001,2.886-5.732,4.686-2.739c10.768,17.906,14.593,39.431,10.878,59.967
								C61.075,341.323,55.844,339.869,56.463,336.449L56.463,336.449z"/>
						</g>
						<g style="opacity:0.1;">
							<path style="fill:#FFFFFF;" d="M56.463,336.449c3.452-19.084-0.349-39.186-10.331-55.786
								c-1.804-3.001,2.886-5.732,4.686-2.739c10.768,17.906,14.593,39.431,10.878,59.967
								C61.075,341.323,55.844,339.869,56.463,336.449L56.463,336.449z"/>
						</g>
					</g>
					<g>
						<g>
							<path style="fill:#407BFF;" d="M146.946,334.877c-6.651-1.696-13.486-2.629-20.34-2.801
								c-7.063-0.177-33.501-0.027-39.78-0.029c-7.642-0.003-15.285,0.939-22.7,2.83c-4.661,1.189-3.224,7.915,0.986,7.993
								c0.372,0.007,80.292-0.017,80.586-0.004C150.103,343.067,151.709,336.092,146.946,334.877z"/>
							<path style="opacity:0.3;" d="M146.946,334.877c-6.651-1.696-13.486-2.629-20.34-2.801
								c-7.063-0.177-33.501-0.027-39.78-0.029c-7.642-0.003-15.285,0.939-22.7,2.83c-4.661,1.189-3.224,7.915,0.986,7.993
								c0.372,0.007,80.292-0.017,80.586-0.004C150.103,343.067,151.709,336.092,146.946,334.877z"/>
						</g>
						<g>
							<path style="fill:#407BFF;" d="M66.291,342.727c13.425-3.424,27.646-3.424,41.071,0c5.078,1.295,7.245-6.554,2.164-7.85
								c-14.829-3.782-30.57-3.782-45.399,0C59.054,336.171,61.204,344.024,66.291,342.727L66.291,342.727z"/>
						</g>
						<g style="opacity:0.3;">
							<path style="fill:#FFFFFF;" d="M66.291,342.727c13.425-3.424,27.646-3.424,41.071,0c5.078,1.295,7.245-6.554,2.164-7.85
								c-14.829-3.782-30.57-3.782-45.399,0C59.054,336.171,61.204,344.024,66.291,342.727L66.291,342.727z"/>
						</g>
					</g>
				</g>
			</g>
			<g>
				<g>
					<path style="fill:#EBB376;" d="M139.855,292.377l9.196-0.39l2.749-1.76c0.65-0.416,1.444-0.546,2.193-0.359l1.968,0.492
						c1.031,0.258,2.119-0.089,2.811-0.896h0c1.163-1.357,0.779-3.44-0.792-4.293l-2.986-1.62c-0.958-0.52-2.132-0.438-3.008,0.211
						l-4.834,3.58l-7.297-0.515V292.377z"/>
					<path style="fill:#407BFF;" d="M129.906,256.759l-3.174,28.026l17.89,1.272l-0.79,6.43c0,0-18.09,3.166-24.722,1.357
						c-6.633-1.809,2.204-32.109,2.204-32.109L129.906,256.759z"/>
					<path style="opacity:0.2;fill:#FFFFFF;" d="M129.906,256.759l-3.174,28.026l17.89,1.272l-0.79,6.43
						c0,0-18.09,3.166-24.722,1.357c-6.633-1.809,2.204-32.109,2.204-32.109L129.906,256.759z"/>
					<path style="opacity:0.1;" d="M124.17,291.301c-4.67-2.429,1.595-25.743,3.806-33.425l-6.663,3.858
						c0,0-8.837,30.3-2.204,32.109c4.078,1.112,12.48,0.344,18.353-0.413C133.461,293.432,127.611,293.091,124.17,291.301z"/>
				</g>
				<g>
					<path style="fill:#407BFF;" d="M114.078,311.48c0,0-18.391,3.919-40.099,2.261c0,0,3.084-35.847,13.996-55.468
						c1.743-3.134,4.637-5.467,8.061-6.533c7.84-2.443,20.454-4.629,33.871,5.019C129.906,256.759,123.122,269.422,114.078,311.48z"
						/>
					<path style="opacity:0.4;fill:#FFFFFF;" d="M114.078,311.48c0,0-18.391,3.919-40.099,2.261c0,0,3.084-35.847,13.996-55.468
						c1.743-3.134,4.637-5.467,8.061-6.533c7.84-2.443,20.454-4.629,33.871,5.019C129.906,256.759,123.122,269.422,114.078,311.48z"
						/>
				</g>
				<path style="fill:#407BFF;" d="M120.598,265.691c0,0.594-0.482,1.076-1.076,1.076c-0.594,0-1.076-0.482-1.076-1.076
					c0-0.594,0.482-1.076,1.076-1.076C120.116,264.615,120.598,265.097,120.598,265.691z"/>
				<path style="fill:#407BFF;" d="M116.795,276.696c0,0.594-0.482,1.076-1.076,1.076s-1.076-0.482-1.076-1.076
					c0-0.594,0.482-1.076,1.076-1.076S116.795,276.101,116.795,276.696z"/>
				<circle style="fill:#407BFF;" cx="112.269" cy="291.301" r="1.076"/>
				<path style="fill:#407BFF;" d="M110.507,303.453c0,0.594-0.482,1.076-1.076,1.076c-0.594,0-1.076-0.482-1.076-1.076
					s0.482-1.076,1.076-1.076C110.025,302.377,110.507,302.859,110.507,303.453z"/>
				<path style="opacity:0.1;" d="M121.93,279.549l-0.001-0.001l-13.575,3.063l-10.708-2.938l-4.221-12.06l-0.905-6.784h-3.015
					c0,0-2.864,21.599,6.934,30.472c6.11,5.533,16.088,1.93,22.735-1.566C120.143,285.966,121.064,282.578,121.93,279.549z"/>
				<polygon style="fill:#EBB376;" points="130.723,376.683 126.013,397.192 131.859,399.456 140.281,378.827 				"/>
				<path style="fill:#263238;" d="M131.518,398.115l-5.312-2.841c-0.231-0.124-0.517-0.072-0.689,0.126l-3.792,4.389
					c-0.339,0.387-0.301,0.975,0.086,1.315c0.05,0.044,0.104,0.082,0.161,0.114c2.23,1.151,4.259,2.088,7.007,3.572
					c3.245,1.749,2.212,1.693,5.999,3.802c2.283,1.268,4.111-1.119,3.205-1.772c-4.159-2.964-4.713-5.019-5.574-7.543
					C132.401,398.769,132.012,398.355,131.518,398.115z"/>
				<path style="fill:#263238;" d="M83.325,313.062l28.717-1.582c0,0,47.711,7.462,47.033,20.803
					c-0.678,13.341-20.125,55.4-20.125,55.4l-11.386-3.166c0,0,8.672-42.285,14.325-49.294c0,0-35.631-4.18-44.546-6.558
					C92.438,327.357,80.612,329.568,83.325,313.062z"/>
				<path style="opacity:0.2;" d="M137.07,334.642c0.129-2.692-0.138-6.885-2.189-11.516c-2.654-5.993-24.494-9.587-34.943-10.978
					l-16.612,0.915c-2.713,16.506,9.113,14.295,14.019,15.603C104.227,330.501,127.029,333.41,137.07,334.642z"/>
				<polygon style="fill:#EBB376;" points="111.213,382.332 110.46,403.361 116.791,403.662 121.004,382.633 				"/>
				<path style="fill:#263238;" d="M116.337,401.75l-6.133,0.13c-0.267,0.005-0.495,0.194-0.549,0.456l-1.175,5.788
					c-0.108,0.513,0.22,1.016,0.733,1.124c0.066,0.014,0.133,0.021,0.2,0.02c2.553-0.091,4.822-0.272,8.003-0.326
					c3.753-0.067,2.809,0.399,7.222,0.381c2.659-0.013,3.09-3.044,1.961-3.172c-5.171-0.555-6.688-2.103-8.712-3.913
					C117.446,401.891,116.895,401.717,116.337,401.75z"/>
				<path style="fill:#263238;" d="M91.013,313.063c0,0,38.441,1.357,40.702,13.115c2.261,11.758-10.628,64.444-10.628,64.444
					h-11.532c0,0,1.357-47.259,5.201-57.209c0,0-31.657,4.975-40.023-2.21c-5.98-5.135,1.131-18.143,1.131-18.143L91.013,313.063z"
					/>
				<polygon style="fill:#263238;" points="126.661,382.03 140.986,386.025 138.367,391.532 125.308,388.286 				"/>
				<polygon style="opacity:0.3;" points="126.661,382.03 140.986,386.025 138.367,391.532 125.308,388.286 				"/>
				<path style="fill:#EBB376;" d="M125.987,275.603l11.457-3.769l7.331,3.273c0.695,0.31,1.193,0.943,1.333,1.691l0.776,4.173
					c0.265,1.424-0.828,2.739-2.277,2.739h0c-0.538,0-1.059-0.187-1.474-0.529l-6.443-5.316l-10.029,4.037L125.987,275.603z"/>
				<g>
					<polygon style="fill:#263238;" points="108.424,387.683 122.896,388.362 121.539,394.128 108.424,393.449 					"/>
					<polygon style="opacity:0.3;" points="108.424,387.683 122.896,388.362 121.539,394.128 108.424,393.449 					"/>
				</g>
				<g>
					<path style="fill:#407BFF;" d="M90.259,256.759c2.232-3.343,5.776-6.828,14.773,22.612l26.949-6.633l0.789,7.353
						c0,0-22.009,11.792-30.828,10.133C93.124,288.567,84.127,265.942,90.259,256.759z"/>
					<path style="opacity:0.2;fill:#FFFFFF;" d="M90.259,256.759c2.232-3.343,5.776-6.828,14.773,22.612l26.949-6.633l0.789,7.353
						c0,0-22.009,11.792-30.828,10.133C93.124,288.567,84.127,265.942,90.259,256.759z"/>
				</g>
				<path style="fill:#EBB376;" d="M118.445,246.508l-5.1,4.789c0,0,1.986,6.212,7.088,6.212c5.102,0,2.011-7.858,2.011-7.858
					L118.445,246.508z"/>
				<path style="fill:#EBB376;" d="M121.146,261.112l2.487-1.3l1.045-1.583l-0.438-4.895c-4.606-2.289-9.043-3.325-13.139-3.601
					l-0.188,2.276l2.77,8.029l3.222,1.074H121.146z"/>
				<path style="opacity:0.1;" d="M122.444,249.651l-3.999-3.143l-0.674,0.632c-0.393,2.335-0.842,7.197,1.75,9.11
					c1.031,0.76,2.017,0.846,2.898,0.602C124.529,254.971,122.444,249.651,122.444,249.651z"/>
				<path style="fill:#407BFF;" d="M119.731,261.734l3.844,2.035c2.698-3.212,2.026-7.708,1.406-10.062
					c-0.452-0.237-0.903-0.462-1.352-0.675c0.51,3.551,0.099,7.45-4.124,7.572c-6.638,0.192-7.627-8.288-7.775-10.822
					c-0.481-0.041-0.957-0.071-1.429-0.092c-2.105,9.386,3.777,14.08,3.777,14.08L119.731,261.734z"/>
				<path style="opacity:0.2;fill:#FFFFFF;" d="M119.731,261.734l3.844,2.035c2.698-3.212,2.026-7.708,1.406-10.062
					c-0.452-0.237-0.903-0.462-1.352-0.675c0.51,3.551,0.099,7.45-4.124,7.572c-6.638,0.192-7.627-8.288-7.775-10.822
					c-0.481-0.041-0.957-0.071-1.429-0.092c-2.105,9.386,3.777,14.08,3.777,14.08L119.731,261.734z"/>
				<path style="fill:#263238;" d="M136.133,234.631c3.656,2.367,2.573,8.309-1.239,10.752
					C133.808,238.577,136.133,234.631,136.133,234.631z"/>
				<path style="opacity:0.4;" d="M136.133,234.631c3.656,2.367,2.573,8.309-1.239,10.752
					C133.808,238.577,136.133,234.631,136.133,234.631z"/>
				<path style="fill:#EBB376;" d="M119.37,238.537c-1.372,6.263-2.498,9.846-0.327,13.986c2.088,4.099,7.104,5.729,11.203,3.64
					c1.508-0.768,2.747-1.978,3.55-3.468c2.882-5.092,4.647-14.478-0.603-18.838c-3.497-3.07-8.821-2.724-11.892,0.773
					C120.326,235.741,119.66,237.088,119.37,238.537z"/>
				<path style="fill:#263238;" d="M118.71,244.385c3.346,1.715,5.502-4.156,5.037-6.987c4.353,2.979,14.131,2.547,16.993-1.43
					c3.126-4.346-1.57-8.026-5.815-9.351c-1.178-0.368-2.295,0.453-2.589,1.652c-0.051,0.209-0.156,0.382-0.306,0.49
					c0,0-1.202-1.096-2.913-2.05c-1.465-0.817-3.19-0.351-4.429,0.78c-0.493,0.45-1.7,0.546-4.121-0.272
					c-5.02-1.696-5.865,3.766-3.428,4.823c-2.209,1.347-5.863,5.063-3.894,8.324s3.661,7.565,2.556,8.278
					C116.822,249.083,118.627,247.988,118.71,244.385z"/>
				<path style="fill:#EBB376;" d="M115.584,242.981c0.027,1.433,0.594,2.802,1.587,3.835c1.313,1.338,2.82,0.33,3.159-1.433
					c0.305-1.6-0.014-4.208-1.675-4.875C116.994,239.84,115.566,241.21,115.584,242.981z"/>
				<path style="fill:#263238;" d="M128.094,243.234c-0.147,0.497,0.007,0.984,0.339,1.061s0.697-0.216,0.844-0.712
					c0.147-0.497-0.003-0.991-0.346-1.065C128.588,242.444,128.234,242.734,128.094,243.234z"/>
				<path style="fill:#263238;" d="M133.682,245.039c-0.147,0.497,0,0.98,0.339,1.061c0.339,0.081,0.697-0.216,0.847-0.72
					c0.151-0.504-0.007-0.984-0.346-1.065C134.183,244.235,133.826,244.532,133.682,245.039z"/>
				<path style="fill:#D58745;" d="M131.832,244.713c0.156,1.723,0.538,3.418,1.137,5.041c-1.105,0.543-2.496-0.292-2.496-0.292
					L131.832,244.713z"/>
				<path style="fill:#263238;" d="M126.885,240.848c-0.048-0.01-0.094-0.031-0.132-0.063c-0.102-0.131-0.08-0.319,0.051-0.422
					c0.003-0.003,0.007-0.005,0.01-0.008c0.773-0.61,1.799-0.795,2.736-0.493c0.155,0.059,0.233,0.232,0.174,0.387
					c-0.001,0.003-0.002,0.006-0.004,0.009c-0.059,0.155-0.232,0.233-0.387,0.174c-0.003-0.001-0.006-0.002-0.009-0.004
					c-0.729-0.228-1.524-0.088-2.132,0.376C127.108,240.88,126.987,240.897,126.885,240.848z"/>
				<path style="fill:#263238;" d="M136.635,243.867c-0.092-0.041-0.157-0.126-0.171-0.226c-0.11-0.785-0.579-1.475-1.268-1.865
					c-0.14-0.097-0.174-0.29-0.077-0.429c0.076-0.109,0.212-0.157,0.339-0.12l0,0c0.866,0.475,1.458,1.331,1.596,2.31
					c0.029,0.163-0.079,0.319-0.243,0.349c-0.002,0-0.003,0.001-0.005,0.001C136.748,243.898,136.688,243.892,136.635,243.867z"/>
				<path style="fill:#263238;" d="M127.652,251.123c0.278,0.081,0.563,0.139,0.851,0.172c0.092,0.016,0.18-0.047,0.196-0.139
					c0-0.002,0.001-0.004,0.001-0.006c0.006-0.096-0.064-0.179-0.159-0.19c-1.474-0.157-2.785-1.005-3.535-2.284
					c-0.042-0.086-0.145-0.122-0.231-0.08c-0.086,0.042-0.122,0.145-0.08,0.231C125.33,249.96,126.397,250.788,127.652,251.123z"/>
			</g>
		</g>
		<path style="fill:#2E353A;" d="M117.944,232.269c0,0-2.126-0.353-2.948-2.872c-0.19-0.583-1.008-0.631-1.271-0.076
			C112.868,231.128,112.482,233.628,117.944,232.269z"/>
	</g>
	<g>
		<g>
			<g>
				<path style="fill:#407BFF;" d="M160.197,239.921h-2.868c-2.481,0-4.671,2.011-4.891,4.492l-2.489,28.014
					c-0.22,2.481,1.612,4.492,4.093,4.492h2.868L160.197,239.921z"/>
				<path style="opacity:0.3;fill:#FFFFFF;" d="M160.197,239.921h-2.868c-2.481,0-4.671,2.011-4.891,4.492l-2.489,28.014
					c-0.22,2.481,1.612,4.492,4.093,4.492h2.868L160.197,239.921z"/>
				<g>
					<path style="fill:#407BFF;" d="M202.783,276.919h-46.78c-2.481,0-4.314-2.011-4.093-4.492l2.489-28.014
						c0.22-2.481,2.41-4.492,4.891-4.492h46.78c2.481,0,4.314,2.011,4.093,4.492l-2.489,28.014
						C207.454,274.908,205.264,276.919,202.783,276.919z"/>
					<path style="opacity:0.2;" d="M202.783,276.919h-46.78c-2.481,0-4.314-2.011-4.093-4.492l2.489-28.014
						c0.22-2.481,2.41-4.492,4.891-4.492h46.78c2.481,0,4.314,2.011,4.093,4.492l-2.489,28.014
						C207.454,274.908,205.264,276.919,202.783,276.919z"/>
					<path style="opacity:0.5;fill:#FFFFFF;" d="M181.863,255.707c0-0.24,0.041-0.468,0.099-0.689
						c-0.297-0.081-0.604-0.138-0.926-0.138c-1.956,0-3.541,1.585-3.541,3.541c0,1.955,1.585,3.541,3.541,3.541
						c1.955,0,3.54-1.585,3.54-3.541C183.078,258.42,181.863,257.205,181.863,255.707z"/>
				</g>
			</g>
			<path style="fill:#263238;" d="M178.903,290.354h3.6l-1.425-16.285c-0.081-0.926-0.856-1.637-1.786-1.637l0,0
				c-1.052,0-1.878,0.901-1.786,1.949L178.903,290.354z"/>
			<path style="opacity:0.3;fill:#FFFFFF;" d="M178.903,290.354h3.6l-1.425-16.285c-0.081-0.926-0.856-1.637-1.786-1.637l0,0
				c-1.052,0-1.878,0.901-1.786,1.949L178.903,290.354z"/>
			<g>
				<path style="fill:#407BFF;" d="M190.268,295.076c0-5.216-4.228-9.444-9.444-9.444c-5.216,0-9.444,4.228-9.444,9.444H190.268z"/>
				<path style="opacity:0.5;fill:#FFFFFF;" d="M190.268,295.076c0-5.216-4.228-9.444-9.444-9.444c-5.216,0-9.444,4.228-9.444,9.444
					H190.268z"/>
			</g>
		</g>
		<g>
			<path style="fill:#407BFF;" d="M168.078,295.076h-14.915c-0.985,0-1.783-0.798-1.783-1.783l0,0c0-0.985,0.798-1.783,1.783-1.783
				h14.915c0.985,0,1.783,0.798,1.783,1.783l0,0C169.861,294.277,169.063,295.076,168.078,295.076z"/>
			<path style="opacity:0.3;fill:#FFFFFF;" d="M168.078,295.076h-14.915c-0.985,0-1.783-0.798-1.783-1.783l0,0
				c0-0.985,0.798-1.783,1.783-1.783h14.915c0.985,0,1.783,0.798,1.783,1.783l0,0C169.861,294.277,169.063,295.076,168.078,295.076z
				"/>
			<g>
				<path style="fill:#407BFF;" d="M154.084,295.076h-14.915c-0.985,0-1.783-0.798-1.783-1.783l0,0c0-0.985,0.798-1.783,1.783-1.783
					h14.915c0.985,0,1.783,0.798,1.783,1.783l0,0C155.867,294.277,155.069,295.076,154.084,295.076z"/>
				<path style="opacity:0.5;fill:#FFFFFF;" d="M154.084,295.076h-14.915c-0.985,0-1.783-0.798-1.783-1.783l0,0
					c0-0.985,0.798-1.783,1.783-1.783h14.915c0.985,0,1.783,0.798,1.783,1.783l0,0C155.867,294.277,155.069,295.076,154.084,295.076
					z"/>
			</g>
		</g>
	</g>
</g>
<g id="Character_2_1_">
	<g>
		<g>
			<g>
				<path style="fill:#407BFF;" d="M278.906,276.845c-0.841-0.016-1.685,0.36-2.248,1.295
					c-10.768,17.906-14.593,39.431-10.878,59.967c0.233,1.287,1.114,1.887,2.092,1.953c1.63,0.111,30.646,0.008,31.698,0.006
					c1.582-0.003,3.321-1.348,2.949-3.402c-3.452-19.084,0.349-39.186,10.331-55.786c1.24-2.063-0.589-3.999-2.438-4.034
					C309.572,276.829,280.755,276.881,278.906,276.845z"/>
				<path style="opacity:0.2;" d="M278.906,276.845c-0.841-0.016-1.685,0.36-2.248,1.295
					c-10.768,17.906-14.593,39.431-10.878,59.967c0.233,1.287,1.114,1.887,2.092,1.953c1.63,0.111,30.646,0.008,31.698,0.006
					c1.582-0.003,3.321-1.348,2.949-3.402c-3.452-19.084,0.349-39.186,10.331-55.786c1.24-2.063-0.589-3.999-2.438-4.034
					C309.572,276.829,280.755,276.881,278.906,276.845z"/>
			</g>
			<g>
				<g>
					<path style="fill:#407BFF;" d="M302.52,336.665c-3.452-19.084,0.349-39.186,10.331-55.786c1.804-3-2.886-5.732-4.686-2.739
						c-10.768,17.906-14.593,39.431-10.878,59.967C297.907,341.54,303.138,340.086,302.52,336.665L302.52,336.665z"/>
				</g>
				<g style="opacity:0.2;">
					<path style="fill:#FFFFFF;" d="M302.52,336.665c-3.452-19.084,0.349-39.186,10.331-55.786c1.804-3-2.886-5.732-4.686-2.739
						c-10.768,17.906-14.593,39.431-10.878,59.967C297.907,341.54,303.138,340.086,302.52,336.665L302.52,336.665z"/>
				</g>
			</g>
			<g>
				<path style="fill:#263238;" d="M284.732,412.039l-25.206-9.282l-25.48,9.289c-0.88,0.321-1.811-0.331-1.811-1.267l0,0
					c0-0.525,0.305-1.002,0.781-1.223l26.51-12.3l26.243,12.299c0.473,0.222,0.775,0.697,0.775,1.22l0,0
					C286.545,411.711,285.611,412.362,284.732,412.039z"/>
				<path style="opacity:0.3;fill:#FFFFFF;" d="M284.732,412.039l-25.206-9.282l-25.48,9.289c-0.88,0.321-1.811-0.331-1.811-1.267
					l0,0c0-0.525,0.305-1.002,0.781-1.223l26.51-12.3l26.243,12.299c0.473,0.222,0.775,0.697,0.775,1.22l0,0
					C286.545,411.711,285.611,412.362,284.732,412.039z"/>
				<polygon style="opacity:0.2;" points="253.586,404.922 259.526,402.757 265.194,404.844 265.194,399.911 259.526,397.255 
					253.586,400.011 				"/>
				<path style="fill:#263238;" d="M259.39,412.254L259.39,412.254c-1.154,0-2.119-0.877-2.228-2.026l-0.712-7.472v-62.017h5.879
					v62.017l-0.712,7.472C261.508,411.376,260.544,412.254,259.39,412.254z"/>
				<path style="opacity:0.3;fill:#FFFFFF;" d="M259.39,412.254L259.39,412.254c-1.154,0-2.119-0.877-2.228-2.026l-0.712-7.472
					v-62.017h5.879v62.017l-0.712,7.472C261.508,411.376,260.544,412.254,259.39,412.254z"/>
				<rect x="256.45" y="340.739" style="opacity:0.2;" width="5.879" height="7.222"/>
			</g>
			<g>
				<g>
					<path style="fill:#407BFF;" d="M212.941,335.094c6.652-1.696,13.486-2.629,20.34-2.801c7.063-0.177,33.501-0.027,39.779-0.029
						c7.642-0.003,15.285,0.939,22.7,2.83c4.661,1.189,3.224,7.915-0.986,7.993c-0.372,0.007-80.292-0.017-80.586-0.004
						C209.784,343.283,208.178,336.309,212.941,335.094z"/>
					<path style="opacity:0.3;" d="M212.941,335.094c6.652-1.696,13.486-2.629,20.34-2.801c7.063-0.177,33.501-0.027,39.779-0.029
						c7.642-0.003,15.285,0.939,22.7,2.83c4.661,1.189,3.224,7.915-0.986,7.993c-0.372,0.007-80.292-0.017-80.586-0.004
						C209.784,343.283,208.178,336.309,212.941,335.094z"/>
				</g>
				<g>
					<path style="fill:#407BFF;" d="M293.596,342.944c-13.425-3.424-27.646-3.424-41.071,0c-5.079,1.295-7.245-6.554-2.164-7.849
						c14.829-3.782,30.57-3.782,45.399,0C300.833,336.388,298.683,344.241,293.596,342.944L293.596,342.944z"/>
				</g>
				<g style="opacity:0.3;">
					<path style="fill:#FFFFFF;" d="M293.596,342.944c-13.425-3.424-27.646-3.424-41.071,0c-5.079,1.295-7.245-6.554-2.164-7.849
						c14.829-3.782,30.57-3.782,45.399,0C300.833,336.388,298.683,344.241,293.596,342.944L293.596,342.944z"/>
				</g>
			</g>
		</g>
		<g>
			<path style="fill:#263238;" d="M254.838,243.52c0,0-4.915-0.477-3.389-7.785c1.526-7.308,1.397-14.251,12.259-13.465
				c0,0,8.601-2.153,11.031,5.93c2.431,8.084,6.042,13.814,0.283,16.188c-7.203,2.969-9.02-3.639-9.02-3.639l-10.534,1.021
				L254.838,243.52z"/>
			<path style="fill:#B97964;" d="M253.227,254.224c-6.277-0.897-3.193,20.819-8.819,24.725c-3.087,2.143-18.63-3.611-18.63-3.611
				l-2.19-7.01c-0.114-0.364-0.382-0.657-0.731-0.795l-3.236-1.287c-0.927-0.369-1.88,0.474-1.656,1.465l1.166,5.172
				c0.05,0.224,0.159,0.429,0.315,0.594l4.51,4.789c0,0,18.534,8.989,23.054,7.497c5.238-1.729,7.181-11.27,8.479-16.955
				C256.456,264.572,257.976,254.902,253.227,254.224z"/>
			<polygon style="fill:#B97964;" points="245.994,384.068 247.876,398.678 242.563,398.817 238.726,384.723 			"/>
			<g>
				<path style="fill:#263238;" d="M242.495,398.006l6.066,0.018c0.263,0.001,0.49,0.183,0.547,0.44l1.245,5.674
					c0.114,0.503-0.201,1.002-0.703,1.116c-0.064,0.015-0.13,0.023-0.197,0.023c-2.512-0.05-4.746-0.194-7.875-0.198
					c-3.692-0.009-2.756,0.436-7.096,0.486c-2.615,0.028-3.086-2.946-1.977-3.089c5.076-0.625,6.512-2.156,8.474-3.967
					C241.406,398.161,241.945,397.982,242.495,398.006z"/>
			</g>
			<polygon style="opacity:0.1;" points="240.951,392.898 238.726,384.723 245.994,384.068 247.082,392.514 			"/>
			<path style="fill:#263238;" d="M264.298,296.365h-8.584c0,0-2.261,5.849-2.713,11.954c-0.452,6.105,11.297,1.583,11.297,1.583
				l1.026-8.366L264.298,296.365z"/>
			<polygon style="fill:#B97964;" points="209.586,363.832 203.933,380.339 199.184,378.982 203.029,361.57 			"/>
			<g>
				<path style="fill:#263238;" d="M199.268,377.714l5.839,1.762c0.254,0.066,0.429,0.3,0.419,0.563l-0.214,5.805
					c-0.015,0.515-0.445,0.92-0.96,0.905c-0.066-0.002-0.132-0.011-0.196-0.027c-2.42-0.677-4.547-1.375-7.575-2.162
					c-3.572-0.932-2.777-0.268-6.992-1.305c-2.539-0.628-2.251-3.624-1.141-3.486c5.071,0.665,6.873-0.685,9.226-1.947
					C198.175,377.591,198.742,377.553,199.268,377.714z"/>
			</g>
			<polygon style="opacity:0.1;" points="206.504,372.831 200.862,371.385 203.029,361.57 209.586,363.832 			"/>
			<path style="fill:#263238;" d="M281.417,295.581c0,0,8.743,14.622,7.236,26.833c-1.507,12.211-12.802,18.669-56.218-2.134
				c0,0-8.905,9.219-23.678,48.715l-7.537-2.261c0,0,8.517-45.654,16.13-58.641c7.688-13.115,41.456,2.261,44.018-0.301
				c2.281-2.281,0.301-11.306,0.301-11.306L281.417,295.581z"/>
			<polygon style="fill:#407BFF;" points="210.604,368.241 209.021,371.294 199.976,368.241 199.976,364.736 			"/>
			<path style="fill:#407BFF;" d="M284.939,256.502l-30.756-2.3c-1.861-0.139-3.402,1.426-3.234,3.285c0,0,0.631,3.869,0.523,5.161
				c-0.271,3.261-2.025,8.143-1.441,10.366c0.469,1.782,2.342,3.807,3.082,5.812c1.605,4.347,1.871,18.442,1.871,18.442
				c9.949,1.613,27.638-0.784,27.638-0.784c-3.969-14.309,1.964-31.037,3.782-37.933
				C286.667,257.561,285.962,256.579,284.939,256.502z"/>
			<path style="opacity:0.7;fill:#FFFFFF;" d="M284.939,256.502l-30.756-2.3c-1.861-0.139-3.402,1.426-3.234,3.285
				c0,0,0.631,3.869,0.523,5.161c-0.271,3.261-2.025,8.143-1.441,10.366c0.469,1.782,2.342,3.807,3.082,5.812
				c1.605,4.347,1.871,18.442,1.871,18.442c9.949,1.613,27.638-0.784,27.638-0.784c-3.969-14.309,1.964-31.037,3.782-37.933
				C286.667,257.561,285.962,256.579,284.939,256.502z"/>
			<path style="opacity:0.1;" d="M280.358,273.396l-10.628,10.883l-15.15,3.053l-0.102,0.025c0.14,1.676,0.242,3.352,0.318,4.839
				c4.197-0.007,17.887-0.299,21.831-3.733c1.959-1.705,3.584-4.261,4.813-6.658c0.186-2.499,0.523-4.948,0.945-7.287
				L280.358,273.396z"/>
			<path style="opacity:0.2;" d="M227.48,324.377l-2.374-1.836c0,0-8.369,4.53-4.203,17.428c0,0,0,0.001,0,0.001
				c3.025-6.314,5.51-10.764,7.389-13.814L227.48,324.377z"/>
			<path style="fill:#263238;" d="M263.743,332.288c-7.889-1.889-18.106-5.682-31.308-12.008c0,0-10.186,0.136-10.865,7.711
				c-0.678,7.575,17.185,59.961,17.185,59.961l8.253-0.718c0,0-4.862-52.234-5.992-54.947H263.743z"/>
			<path style="opacity:0.2;" d="M232.435,320.28c0,0-1.556,0.023-3.491,0.5c1.865,1.654,8.446,7.126,18.411,11.508h16.388
				C255.853,330.399,245.637,326.606,232.435,320.28z"/>
			<polygon style="fill:#407BFF;" points="247.999,385.881 248.221,389.271 238.614,390.025 237.247,386.798 			"/>
			<path style="fill:#B97964;" d="M270.421,242.179l-6.712,6.595c1.127,5.42-2.852,5.928-2.852,5.928s0.321,1.906,5.188,1.646
				c4.866-0.26,6.456-0.776,6.456-0.776C269.575,253.232,269.992,246.104,270.421,242.179z"/>
			<path style="opacity:0.1;" d="M263.769,251.826c0.18-0.788,0.204-1.78-0.061-3.052l5.988-5.884l0.588,0.681
				C270.285,243.571,269.08,251.067,263.769,251.826z"/>
			<path style="fill:#B97964;" d="M270.981,233.448c0.49,6.465,0.84,9.19-1.942,12.925c-4.185,5.622-12.229,4.814-14.646-1.373
				c-2.174-5.569-2.614-15.198,3.304-18.617c4.216-2.464,9.631-1.044,12.095,3.172C270.485,230.743,270.892,232.076,270.981,233.448
				z"/>
			<path style="fill:#A24E3F;" d="M257.789,239.985c-0.299,1.255-0.769,2.464-1.398,3.591c0.589,0.313,1.287,0.349,1.906,0.099
				L257.789,239.985z"/>
			<path style="fill:#2E353A;" d="M262.68,235.575c0.042-0.016,0.079-0.042,0.11-0.076c0.091-0.109,0.077-0.271-0.031-0.362
				c-0.001-0.001-0.003-0.002-0.004-0.003c-0.734-0.647-1.738-0.896-2.69-0.666c-0.133,0.045-0.207,0.187-0.168,0.322
				c0.041,0.133,0.181,0.209,0.315,0.171c0.789-0.176,1.614,0.036,2.219,0.572C262.501,235.589,262.596,235.605,262.68,235.575z"/>
			<path style="fill:#2E353A;" d="M253.127,236.465c0.042-0.017,0.08-0.042,0.11-0.076c0.519-0.614,1.302-0.942,2.104-0.883
				c0.14,0.023,0.272-0.072,0.295-0.212c0-0.001,0-0.002,0.001-0.003c0.018-0.142-0.081-0.272-0.222-0.294
				c-0.975-0.085-1.931,0.306-2.567,1.05c-0.098,0.102-0.095,0.265,0.007,0.363C252.927,236.481,253.034,236.502,253.127,236.465
				L253.127,236.465z"/>
			<g>
				<path style="fill:#2E353A;" d="M261.355,238.614c0.073,0.518-0.146,0.979-0.491,1.029c-0.345,0.051-0.673-0.334-0.742-0.862
					c-0.068-0.527,0.146-0.979,0.484-1.027C260.944,237.706,261.28,238.089,261.355,238.614z"/>
				<path style="fill:#2E353A;" d="M255.455,239.43c0.073,0.518-0.146,0.979-0.484,1.027c-0.338,0.048-0.674-0.334-0.749-0.859
					c-0.075-0.525,0.146-0.979,0.484-1.027C255.044,238.522,255.386,238.902,255.455,239.43z"/>
				<path style="fill:#2E353A;" d="M254.859,238.578l-1.302-0.186C253.558,238.392,254.338,239.278,254.859,238.578z"/>
				<path style="fill:#2E353A;" d="M260.76,237.762l-1.302-0.186C259.458,237.576,260.238,238.462,260.76,237.762z"/>
			</g>
			<path style="fill:#263238;" d="M261.765,243.905c0.105-0.184,0.194-0.376,0.267-0.575c0.027-0.063-0.003-0.136-0.066-0.163
				c-0.001-0.001-0.003-0.001-0.004-0.002c-0.067-0.02-0.138,0.015-0.162,0.08c-0.362,1.02-1.188,1.808-2.223,2.123
				c-0.068,0.015-0.111,0.082-0.096,0.15c0.015,0.068,0.082,0.111,0.15,0.096C260.544,245.356,261.314,244.74,261.765,243.905z"/>
			<path style="fill:#263238;" d="M266.003,224.033c-4.152-1.033-8.448,1.142-8.448,1.142s-4.807,4.269-3.704,8.396
				c0,0,0.546-0.466,1.694-0.813c-0.064-1.121,0.026-3.08,1.218-4.388c0,0-0.464,2.249,0.152,4.105
				c1.436-0.185,3.392-0.106,5.935,0.701c0,0,0.83-1.711,0-5.427c0,0,1.6,2.487,1.657,6.331c0.057,3.844,4.975,4.768,4.975,4.768
				s3.088-0.331,3.053-4.464C272.501,230.251,270.154,225.066,266.003,224.033z"/>
			<path style="fill:#263238;" d="M264.169,223.791c0,0-1.964-4.862-5.872-3.674C254.389,221.304,261.229,221.304,264.169,223.791z"
				/>
			<path style="fill:#B97964;" d="M273.197,238.308c-0.191,1.239-0.867,2.352-1.879,3.092c-1.349,0.97-2.592-0.096-2.695-1.668
				c-0.093-1.41,0.497-3.62,2.082-3.97c1.162-0.219,2.281,0.545,2.501,1.707C273.259,237.746,273.256,238.031,273.197,238.308z"/>
			<path style="fill:#B97964;" d="M285.327,256.362c-3.056-1.044-7.246,10.667-9.004,14.311c-0.725,1.504-1.886,4.887-2.763,7.56
				c-0.768,2.341-2.614,4.134-4.928,4.79l-16.392,4.646l-6.661-2.002c-0.499-0.15-1.036-0.066-1.469,0.229l-3.347,2.282
				c-0.493,0.337-0.79,0.905-0.79,1.514l0,0c0,1.058,0.875,1.892,1.899,1.811l9.899-0.781c0,0,15.96,0.931,22.969-2.982
				C281.749,283.828,290.643,258.178,285.327,256.362z"/>
		</g>
	</g>
	<g>
		<path style="fill:#263238;" d="M272.569,291.54h-56.803c-0.857,0-1.551,0.695-1.551,1.552s0.695,1.552,1.551,1.552h56.803
			c0.857,0,1.552-0.695,1.552-1.552S273.426,291.54,272.569,291.54z"/>
		<path style="opacity:0.3;fill:#FFFFFF;" d="M272.569,291.54h-56.803c-0.857,0-1.551,0.695-1.551,1.552s0.695,1.552,1.551,1.552
			h56.803c0.857,0,1.552-0.695,1.552-1.552S273.426,291.54,272.569,291.54z"/>
		<g>
			<path style="fill:#263238;" d="M216.61,293.694h19.416c0.506,0,0.861-0.5,0.693-0.977l-10.648-30.418
				c-0.293-0.838-1.084-1.399-1.972-1.399h-19.416c-0.506,0-0.861,0.5-0.693,0.977l10.647,30.418
				C214.931,293.133,215.722,293.694,216.61,293.694z"/>
			<path style="opacity:0.5;fill:#FFFFFF;" d="M216.61,293.694h19.416c0.506,0,0.861-0.5,0.693-0.977l-10.648-30.418
				c-0.293-0.838-1.084-1.399-1.972-1.399h-19.416c-0.506,0-0.861,0.5-0.693,0.977l10.647,30.418
				C214.931,293.133,215.722,293.694,216.61,293.694z"/>
		</g>
		<g>
			<path style="fill:#263238;" d="M215.673,293.694h19.416c0.506,0,0.861-0.5,0.694-0.977l-10.648-30.418
				c-0.293-0.838-1.084-1.399-1.972-1.399h-19.416c-0.506,0-0.861,0.5-0.693,0.977l10.648,30.418
				C213.994,293.133,214.785,293.694,215.673,293.694z"/>
		</g>
		<path style="fill:#FFFFFF;" d="M217.843,277.297c0.248,1.166,1.054,2.11,1.801,2.11c0.747,0,1.151-0.945,0.903-2.11
			c-0.248-1.165-1.054-2.11-1.801-2.11C218,275.187,217.596,276.132,217.843,277.297z"/>
		<path style="opacity:0.2;fill:#FFFFFF;" d="M238.521,294.643c-0.857,0-1.552-0.695-1.552-1.552s0.695-1.552,1.552-1.552h34.048
			c0.857,0,1.552,0.695,1.552,1.552s-0.695,1.552-1.552,1.552H238.521z"/>
	</g>
</g>
<g id="Table">
	<g>
		<g>
			<path style="fill:#263238;" d="M407.659,412.037L407.659,412.037c1.172,0,2.105-0.982,2.046-2.153l-5.563-108.516h-5.879
				l7.354,108.759C405.688,411.202,406.582,412.037,407.659,412.037z"/>
			<path style="opacity:0.5;fill:#FFFFFF;" d="M407.659,412.037L407.659,412.037c1.172,0,2.105-0.982,2.046-2.153l-5.563-108.516
				h-5.879l7.354,108.759C405.688,411.202,406.582,412.037,407.659,412.037z"/>
			<polygon style="opacity:0.2;" points="404.141,301.368 398.262,301.368 398.751,308.604 404.512,308.604 			"/>
		</g>
		<g>
			<path style="fill:#263238;" d="M325.474,412.037L325.474,412.037c-1.172,0-2.105-0.982-2.046-2.153l5.563-108.516h5.879
				l-7.353,108.759C327.445,411.202,326.552,412.037,325.474,412.037z"/>
			<path style="opacity:0.5;fill:#FFFFFF;" d="M325.474,412.037L325.474,412.037c-1.172,0-2.105-0.982-2.046-2.153l5.563-108.516
				h5.879l-7.353,108.759C327.445,411.202,326.552,412.037,325.474,412.037z"/>
			<polygon style="opacity:0.2;" points="328.621,308.604 334.382,308.604 334.871,301.368 328.992,301.368 			"/>
		</g>
		<g>
			<path style="fill:#263238;" d="M194.616,412.037L194.616,412.037c1.172,0,2.105-0.982,2.045-2.153l-5.563-108.516h-5.879
				l7.353,108.759C192.645,411.202,193.538,412.037,194.616,412.037z"/>
			<path style="opacity:0.5;fill:#FFFFFF;" d="M194.616,412.037L194.616,412.037c1.172,0,2.105-0.982,2.045-2.153l-5.563-108.516
				h-5.879l7.353,108.759C192.645,411.202,193.538,412.037,194.616,412.037z"/>
			<polygon style="opacity:0.2;" points="191.098,301.368 185.219,301.368 185.708,308.604 191.469,308.604 			"/>
		</g>
		<g>
			<path style="fill:#263238;" d="M112.431,412.037L112.431,412.037c-1.172,0-2.105-0.982-2.045-2.153l5.563-108.516h5.879
				l-7.353,108.759C114.402,411.202,113.509,412.037,112.431,412.037z"/>
			<path style="opacity:0.5;fill:#FFFFFF;" d="M112.431,412.037L112.431,412.037c-1.172,0-2.105-0.982-2.045-2.153l5.563-108.516
				h5.879l-7.353,108.759C114.402,411.202,113.509,412.037,112.431,412.037z"/>
			<polygon style="opacity:0.2;" points="115.578,308.604 121.339,308.604 121.828,301.368 115.949,301.368 			"/>
		</g>
		<rect x="110.275" y="297.93" style="fill:#263238;" width="298.592" height="3.438"/>
		<rect x="110.275" y="297.93" style="opacity:0.3;fill:#FFFFFF;" width="298.592" height="3.438"/>
		<rect x="323.319" y="297.93" style="opacity:0.2;" width="85.549" height="3.438"/>
		<rect x="102.587" y="294.491" style="fill:#407BFF;" width="313.969" height="3.438"/>
		<rect x="315.63" y="294.491" style="opacity:0.3;" width="100.925" height="3.438"/>
	</g>
</g>
<g id="Character_3">
	<g>
		<g>
			<path style="fill:#407BFF;" d="M347.126,294.643h-14.915c-0.985,0-1.783-0.798-1.783-1.783l0,0c0-0.985,0.798-1.783,1.783-1.783
				h14.915c0.985,0,1.783,0.798,1.783,1.783l0,0C348.909,293.845,348.111,294.643,347.126,294.643z"/>
			<path style="opacity:0.3;fill:#FFFFFF;" d="M347.126,294.643h-14.915c-0.985,0-1.783-0.798-1.783-1.783l0,0
				c0-0.985,0.798-1.783,1.783-1.783h14.915c0.985,0,1.783,0.798,1.783,1.783l0,0C348.909,293.845,348.111,294.643,347.126,294.643z
				"/>
			<g>
				<path style="fill:#407BFF;" d="M333.133,294.643h-14.915c-0.985,0-1.783-0.798-1.783-1.783l0,0c0-0.985,0.798-1.783,1.783-1.783
					h14.915c0.985,0,1.783,0.798,1.783,1.783l0,0C334.916,293.845,334.118,294.643,333.133,294.643z"/>
				<path style="opacity:0.5;fill:#FFFFFF;" d="M333.133,294.643h-14.915c-0.985,0-1.783-0.798-1.783-1.783l0,0
					c0-0.985,0.798-1.783,1.783-1.783h14.915c0.985,0,1.783,0.798,1.783,1.783l0,0C334.916,293.845,334.118,294.643,333.133,294.643
					z"/>
			</g>
		</g>
		<g>
			<path style="fill:#407BFF;" d="M283.119,240.488h-2.868c-2.481,0-4.316,2.011-4.099,4.492l2.451,28.014
				c0.217,2.481,2.404,4.492,4.885,4.492h2.868L283.119,240.488z"/>
			<path style="fill:#407BFF;" d="M283.119,240.488h-2.868c-2.481,0-4.316,2.011-4.099,4.492l2.451,28.014
				c0.217,2.481,2.404,4.492,4.885,4.492h2.868L283.119,240.488z"/>
			<polygon style="fill:#263238;" points="307.392,289.921 303.792,289.921 305.36,271.999 308.96,271.999 			"/>
			<polygon style="opacity:0.3;fill:#FFFFFF;" points="307.392,289.921 303.792,289.921 305.36,271.999 308.96,271.999 			"/>
			<g>
				<path style="fill:#407BFF;" d="M332.228,277.487h-46.78c-2.481,0-4.668-2.011-4.885-4.492l-2.451-28.014
					c-0.217-2.481,1.618-4.492,4.099-4.492h46.78c2.481,0,4.668,2.011,4.885,4.492l2.451,28.014
					C336.544,275.475,334.709,277.487,332.228,277.487z"/>
				<path style="opacity:0.5;fill:#FFFFFF;" d="M332.228,277.487h-46.78c-2.481,0-4.668-2.011-4.885-4.492l-2.451-28.014
					c-0.217-2.481,1.618-4.492,4.099-4.492h46.78c2.481,0,4.668,2.011,4.885,4.492l2.451,28.014
					C336.544,275.475,334.709,277.487,332.228,277.487z"/>
			</g>
			<path style="opacity:0.5;fill:#FFFFFF;" d="M329.149,242.297h-46.78c-1.48,0-2.578,1.204-2.449,2.683l2.451,28.014
				c0.129,1.479,1.439,2.683,2.918,2.683h46.78c1.48,0,2.578-1.203,2.449-2.683l-2.451-28.014
				C331.938,243.501,330.629,242.297,329.149,242.297z"/>
			<path style="fill:#407BFF;" d="M296.932,294.643c0-5.216,4.228-9.444,9.444-9.444c5.216,0,9.444,4.228,9.444,9.444H296.932z"/>
			<path style="opacity:0.5;fill:#FFFFFF;" d="M296.932,294.643c0-5.216,4.228-9.444,9.444-9.444c5.216,0,9.444,4.228,9.444,9.444
				H296.932z"/>
		</g>
		<g>
			<g>
				<path style="fill:#FFFFFF;" d="M318.604,249.182c-0.394,0-25.336,0-25.73,0c-0.552,0-0.96,0.447-0.911,0.999
					c0.048,0.552,0.535,0.999,1.086,0.999c0.394,0,25.336,0,25.73,0c0.552,0,0.96-0.447,0.912-0.999
					C319.642,249.629,319.156,249.182,318.604,249.182z"/>
				<path style="fill:#FFFFFF;" d="M315.411,253.37c-0.395,0-21.776,0-22.171,0c-0.552,0-0.96,0.447-0.911,0.999
					c0.048,0.552,0.535,0.999,1.086,0.999c0.395,0,21.776,0,22.171,0c0.552,0,0.96-0.447,0.911-0.999
					C316.449,253.817,315.963,253.37,315.411,253.37z"/>
				<path style="fill:#FFFFFF;" d="M317.976,257.557c-0.394,0-23.975,0-24.369,0c-0.552,0-0.96,0.447-0.911,0.999
					s0.535,0.999,1.086,0.999c0.394,0,23.975,0,24.369,0c0.552,0,0.96-0.447,0.912-0.999
					C319.014,258.004,318.528,257.557,317.976,257.557z"/>
				<path style="fill:#FFFFFF;" d="M314.783,261.744c-0.395,0-20.415,0-20.81,0c-0.552,0-0.96,0.447-0.911,0.999
					c0.048,0.552,0.535,0.999,1.086,0.999c0.394,0,20.415,0,20.81,0c0.552,0,0.96-0.447,0.911-0.999
					S315.335,261.744,314.783,261.744z"/>
			</g>
			<g style="opacity:0.6;">
				<path style="fill:#FFFFFF;" d="M318.604,249.182c-0.394,0-25.336,0-25.73,0c-0.552,0-0.96,0.447-0.911,0.999
					c0.048,0.552,0.535,0.999,1.086,0.999c0.394,0,25.336,0,25.73,0c0.552,0,0.96-0.447,0.912-0.999
					C319.642,249.629,319.156,249.182,318.604,249.182z"/>
				<path style="fill:#FFFFFF;" d="M315.411,253.37c-0.395,0-21.776,0-22.171,0c-0.552,0-0.96,0.447-0.911,0.999
					c0.048,0.552,0.535,0.999,1.086,0.999c0.395,0,21.776,0,22.171,0c0.552,0,0.96-0.447,0.911-0.999
					C316.449,253.817,315.963,253.37,315.411,253.37z"/>
				<path style="fill:#FFFFFF;" d="M317.976,257.557c-0.394,0-23.975,0-24.369,0c-0.552,0-0.96,0.447-0.911,0.999
					s0.535,0.999,1.086,0.999c0.394,0,23.975,0,24.369,0c0.552,0,0.96-0.447,0.912-0.999
					C319.014,258.004,318.528,257.557,317.976,257.557z"/>
				<path style="fill:#FFFFFF;" d="M314.783,261.744c-0.395,0-20.415,0-20.81,0c-0.552,0-0.96,0.447-0.911,0.999
					c0.048,0.552,0.535,0.999,1.086,0.999c0.394,0,20.415,0,20.81,0c0.552,0,0.96-0.447,0.911-0.999
					S315.335,261.744,314.783,261.744z"/>
			</g>
		</g>
	</g>
	<g>
		<g>
			<g>
				<g>
					<path style="fill:#1A2E35;" d="M370.837,225.712c0,0-5.916,1.131-5.813-2.487c0.103-3.618,6.208-1.922,6.208-1.922
						L370.837,225.712z"/>
					<path style="opacity:0.4;" d="M370.837,225.712c0,0-5.916,1.131-5.813-2.487c0.103-3.618,6.208-1.922,6.208-1.922
						L370.837,225.712z"/>
				</g>
				<path style="fill:#A24E3F;" d="M367.136,234.354l-2.708,4.255c0,0,1.411,1.041,3.386,0.333L367.136,234.354z"/>
				<path style="fill:#1A2E35;" d="M365.504,233.762c-0.006,0.549,0.274,0.999,0.633,1.004c0.36,0.005,0.68-0.46,0.671-0.993
					c-0.009-0.534-0.273-0.999-0.634-0.998C365.814,232.775,365.516,233.214,365.504,233.762z"/>
				<path style="fill:#B97964;" d="M386.692,230.332c0.242,7.298,0.502,10.388-2.81,14.459c-5.241,4.322-14.012,4.831-16.428-2.255
					c-2.178-6.374-2.207-17.212,4.626-20.814c4.871-2.566,10.9-0.696,13.466,4.175C386.267,227.267,386.659,228.785,386.692,230.332
					z"/>
				<path style="opacity:0.2;" d="M376.441,247.899l-0.053-0.358c-0.117-0.79-0.898-1.3-1.669-1.089l-2.967,0.813
					C373.178,247.864,374.791,248.056,376.441,247.899z"/>
				<path style="fill:#1A2E35;" d="M367.48,231.274c-0.096,0.01-0.191-0.027-0.255-0.099c-0.453-0.569-1.151-0.885-1.878-0.85
					c-0.156,0.019-0.299-0.09-0.32-0.246c-0.017-0.157,0.094-0.3,0.251-0.322c0.919-0.065,1.811,0.325,2.387,1.044
					c0.103,0.121,0.089,0.303-0.032,0.406l-0.001,0.001C367.587,231.243,367.535,231.266,367.48,231.274z"/>
				<polygon style="fill:#B97964;" points="376.169,246.055 377.769,256.895 386.821,255.021 383.922,243.926 				"/>
				<path style="fill:#1A2E35;" d="M372.533,235.549l-1.583,1.223c0,0-1.156-4.332,0.581-8.346l-1.825-2.77l0.283-1.865
					c0,0-2.826-4.579-0.622-5.936c2.205-1.357,3.618,1.47,3.618,1.47s1.526-4.522,4.183-3.9c2.657,0.622,1.3,3.448,1.3,3.448
					s4.296-3.109,6.331-1.583c2.035,1.526-0.509,3.674-0.509,3.674s5.144,0.113,5.314,2.148c0.17,2.035-2.092,2.205-2.092,2.205
					s3.392,1.187,3.335,2.996c-0.057,1.809-2.714,1.922-2.714,1.922s3.45,2.19,2.714,4.12c-0.736,1.929-2.658,1.307-2.658,1.307
					s1.79,2.287,1.187,3.527c-0.603,1.24-2.111,1.089-2.111,1.089l-2.936,5.22c0,0-2.475-0.958-4.593,0.906l-5.284-8.689
					L372.533,235.549z"/>
				<path style="fill:#B97964;" d="M371.619,233.583c-0.262,1.469,0.072,2.981,0.928,4.203c1.148,1.612,2.976,0.893,3.706-0.828
					c0.662-1.56,0.849-4.264-0.812-5.273C373.779,230.678,371.959,231.791,371.619,233.583z"/>
			</g>
			<path style="fill:#263238;" d="M388.648,253.844l-1.788-5.065c0,0-6.937-3.061-13.84,2.023l5.076,3.043H388.648z"/>
			<path style="opacity:0.2;" d="M387.823,251.507c-5.208-1.268-9.732-0.16-12.302,0.794l2.575,1.544h10.552L387.823,251.507z"/>
			<path style="fill:#B97964;" d="M356.999,287.193l-6.675-3.349c-0.384-0.193-0.833-0.212-1.232-0.052l-5.467,2.183
				c-0.542,0.217-0.91,0.727-0.943,1.31l-0.102,1.774c-0.061,1.066,0.978,1.854,1.988,1.508l2.029-0.695c0,0,4.296,2.111,10.1,0.302
				L356.999,287.193z"/>
			<path style="fill:#B97964;" d="M331.627,287.579l-6.675-3.387c-0.384-0.195-0.833-0.214-1.232-0.053l-5.467,2.208
				c-0.542,0.219-0.91,0.735-0.943,1.325l-0.102,1.795c-0.061,1.078,0.978,1.875,1.988,1.526l2.029-0.703
				c0,0,4.296,2.134,10.1,0.305L331.627,287.579z"/>
			<path style="fill:#263238;" d="M392.309,255.747c-3.273,2.788-11.447,10.939-22.067,30.048H356.67c0,0-1.922,1.566-1.131,5.497
				c0,0,13.925,4.95,17.703,3.254c3.778-1.696,15.987-20.413,21.478-27.086c1.904-2.314,5.169-5.402,0.45-11.413
				C394.471,255.156,393.172,255.012,392.309,255.747z"/>
			<path style="opacity:0.2;" d="M377.153,282.561l-3.261-3.074c-1.18,1.958-2.397,4.054-3.65,6.308h-3.294l2.061,8.972
				c1.782,0.209,3.311,0.193,4.234-0.221c0.992-0.445,2.568-2.07,4.448-4.336L377.153,282.561z"/>
			<g>
				<polygon style="fill:#B97964;" points="374.687,386.322 377.787,401.339 383.902,400.435 382.432,385.813 				"/>
				<polygon style="opacity:0.2;" points="383.4,395.446 382.432,385.813 374.687,386.322 376.625,395.709 				"/>
			</g>
			<g>
				<path style="fill:#407BFF;" d="M410.968,317.072c0,0,3.105,16.281-7.523,16.281c-10.628,0-24.763,3.475-24.763,3.475
					s4.07,3.865,4.975,53.133l-8.819,0.375c0,0-14.648-55.607-11.758-61.717c4.07-8.606,25.145-11.546,25.145-11.546H410.968z"/>
			</g>
			<g>
				<polygon style="fill:#407BFF;" points="373.874,388.602 384.055,388.3 384.577,393.275 374.517,393.706 				"/>
				<polygon style="opacity:0.5;fill:#FFFFFF;" points="373.874,388.602 384.055,388.3 384.577,393.275 374.517,393.706 				"/>
			</g>
			<g>
				<path style="fill:#407BFF;" d="M375.035,402.284c-0.792,0.095-1.628,0.048-1.931-0.26c-0.16-0.183-0.187-0.446-0.067-0.658
					c0.085-0.188,0.241-0.335,0.433-0.41c1.028-0.42,3.402,0.582,3.507,0.627c0.059,0.025,0.096,0.084,0.092,0.148
					c-0.005,0.063-0.047,0.118-0.107,0.138C376.333,402.064,375.688,402.203,375.035,402.284z M373.874,401.167
					c-0.098,0.01-0.193,0.034-0.284,0.072c-0.123,0.036-0.223,0.127-0.271,0.246c-0.089,0.201-0.039,0.287,0.01,0.333
					c0.345,0.379,1.953,0.196,3.12-0.092C375.633,401.379,374.759,401.189,373.874,401.167z"/>
				<path style="fill:#407BFF;" d="M376.938,401.87c-0.02,0.009-0.043,0.009-0.064,0.002c-0.802-0.246-2.498-1.443-2.448-2.176
					c-0.005-0.175,0.099-0.4,0.51-0.492c0.299-0.069,0.614-0.012,0.871,0.157c0.891,0.569,1.267,2.267,1.285,2.345
					c0.01,0.054-0.009,0.11-0.051,0.145C377.01,401.87,376.973,401.877,376.938,401.87z M375.071,399.478l-0.087,0.003
					c-0.268,0.056-0.273,0.167-0.28,0.207c0.013,0.436,1.146,1.396,1.991,1.768c-0.162-0.713-0.539-1.359-1.08-1.851
					C375.455,399.499,375.262,399.453,375.071,399.478L375.071,399.478z"/>
				<path style="fill:#263238;" d="M377.505,400.9l6.951-0.834c0.262-0.032,0.511,0.123,0.599,0.371l1.936,5.505
					c0.175,0.487-0.078,1.024-0.565,1.199c-0.063,0.023-0.127,0.038-0.193,0.047c-2.511,0.257-4.756,0.387-7.875,0.766
					c-3.682,0.443-2.695,0.771-7.016,1.353c-2.604,0.348-3.437-2.56-2.349-2.838c4.985-1.245,5.327-2.836,7.062-4.882
					C376.438,401.188,376.954,400.944,377.505,400.9z"/>
			</g>
			<path style="opacity:0.1;" d="M381.525,330.612h-15.489l-3.322,1.376c0.083,3.252,0.815,8.264,1.882,14.02l15.613-4.499
				c-0.857-4.045-1.526-4.682-1.526-4.682s1.418-0.349,3.69-0.824L381.525,330.612z"/>
			<path style="opacity:0.1;" d="M392.039,331.742c0,0-0.292,1.213-0.326,2.596c3.516-0.51,7.308-0.913,10.793-0.976
				c4.034-4.847,0.501-9.082,0.501-9.082l-6.218,2.826L392.039,331.742z"/>
			<g>
				<g>
					<polygon style="fill:#B97964;" points="356.797,390.345 362.563,404.345 368.178,403.224 364.316,388.244 					"/>
					<polygon style="opacity:0.2;" points="366.893,398.237 364.316,388.244 356.797,390.345 360.546,399.447 					"/>
				</g>
				<path style="fill:#407BFF;" d="M403.353,317.977c0,0,3.105,16.281-7.523,16.281c-10.628,0-42.511,9.806-42.511,9.806
					s4.692,1.726,12.832,47.177l-9.214,2.092c0,0-23.014-49.558-20.125-55.668c4.07-8.606,43.797-19.686,43.797-19.686H403.353z"/>
				<g>
					<polygon style="fill:#407BFF;" points="355.806,392.747 366.735,390.411 367.866,394.933 357.389,397.345 					"/>
					<polygon style="opacity:0.5;fill:#FFFFFF;" points="355.806,392.747 366.735,390.411 367.866,394.933 357.389,397.345 					"/>
				</g>
				<g>
					<path style="fill:#407BFF;" d="M359.093,404.986c-0.792,0.095-1.627,0.048-1.931-0.26c-0.16-0.183-0.187-0.446-0.067-0.658
						c0.086-0.188,0.241-0.335,0.433-0.41c1.028-0.42,3.402,0.582,3.507,0.627c0.059,0.025,0.096,0.084,0.092,0.148
						c-0.005,0.063-0.047,0.118-0.107,0.138C360.391,404.765,359.746,404.904,359.093,404.986z M357.931,403.868
						c-0.098,0.01-0.193,0.034-0.284,0.072c-0.123,0.037-0.223,0.127-0.271,0.246c-0.09,0.201-0.039,0.287,0.01,0.333
						c0.345,0.379,1.953,0.196,3.12-0.093C359.691,404.08,358.817,403.89,357.931,403.868z"/>
					<path style="fill:#407BFF;" d="M360.996,404.572c-0.02,0.008-0.043,0.009-0.064,0.002c-0.802-0.246-2.498-1.443-2.448-2.176
						c-0.005-0.174,0.099-0.4,0.51-0.492c0.299-0.068,0.614-0.012,0.871,0.157c0.891,0.569,1.267,2.267,1.285,2.345
						c0.01,0.054-0.009,0.109-0.051,0.145C361.068,404.572,361.031,404.578,360.996,404.572z M359.129,402.18l-0.087,0.003
						c-0.269,0.056-0.273,0.167-0.28,0.207c0.013,0.437,1.146,1.396,1.991,1.768c-0.162-0.713-0.539-1.359-1.08-1.851
						C359.513,402.2,359.319,402.155,359.129,402.18L359.129,402.18z"/>
					<path style="fill:#263238;" d="M361.563,403.601l6.952-0.834c0.262-0.032,0.511,0.123,0.599,0.372l1.936,5.505
						c0.175,0.487-0.078,1.024-0.564,1.199c-0.063,0.022-0.127,0.038-0.193,0.047c-2.511,0.257-4.756,0.387-7.875,0.766
						c-3.682,0.443-2.695,0.771-7.016,1.353c-2.604,0.348-3.437-2.56-2.349-2.838c4.985-1.245,5.327-2.836,7.062-4.882
						C360.496,403.889,361.012,403.645,361.563,403.601z"/>
				</g>
			</g>
			<path style="fill:#263238;" d="M365.667,255.158c-0.013-1.332,1.067-2.413,2.398-2.387l20.49,0.399
				c4.995,0.101,9.538,2.859,11.977,7.219c4.745,8.482,10.95,25.833,10.85,58.492h-34.03
				C377.353,318.881,365.872,276.488,365.667,255.158z"/>
			<path style="opacity:0.4;" d="M366.166,263.402c0.489,4.906,1.298,10.319,2.267,15.786c5.145-10.785,2.385-19.615,2.385-19.615
				L366.166,263.402z"/>
			<path style="fill:#263238;" d="M365.741,253.681c-2.396,2.792-6.097,8.368-17.338,28.824l-17.19,3.659
				c0,0-1.922,1.584-1.131,5.56c0,0,18.447,3.177,22.226,1.461c3.778-1.716,13.43-16.231,17.86-23.735
				c1.829-3.098,2.806-9.206-2.698-15.748C367.019,253.166,366.197,253.15,365.741,253.681z"/>
		</g>
		<g>
			<g>
				<path style="fill:#263238;" d="M425.588,411.803l-25.206-9.282l-25.48,9.289c-0.88,0.321-1.811-0.331-1.811-1.267l0,0
					c0-0.525,0.305-1.002,0.781-1.223l26.51-12.3l26.243,12.299c0.473,0.222,0.776,0.697,0.776,1.22l0,0
					C427.401,411.476,426.468,412.127,425.588,411.803z"/>
				<path style="opacity:0.3;fill:#FFFFFF;" d="M425.588,411.803l-25.206-9.282l-25.48,9.289c-0.88,0.321-1.811-0.331-1.811-1.267
					l0,0c0-0.525,0.305-1.002,0.781-1.223l26.51-12.3l26.243,12.299c0.473,0.222,0.776,0.697,0.776,1.22l0,0
					C427.401,411.476,426.468,412.127,425.588,411.803z"/>
				<polygon style="opacity:0.2;" points="394.442,404.687 400.382,402.521 406.05,404.608 406.05,399.676 400.382,397.02 
					394.442,399.776 				"/>
				<path style="fill:#263238;" d="M400.246,412.018L400.246,412.018c-1.154,0-2.119-0.877-2.228-2.026l-0.712-7.472v-62.017h5.879
					v62.017l-0.712,7.472C402.365,411.141,401.4,412.018,400.246,412.018z"/>
				<path style="opacity:0.3;fill:#FFFFFF;" d="M400.246,412.018L400.246,412.018c-1.154,0-2.119-0.877-2.228-2.026l-0.712-7.472
					v-62.017h5.879v62.017l-0.712,7.472C402.365,411.141,401.4,412.018,400.246,412.018z"/>
				<rect x="397.306" y="340.504" style="opacity:0.2;" width="5.879" height="7.222"/>
			</g>
			<g>
				<g>
					<g>
						<path style="fill:#407BFF;" d="M441.137,334.859c-6.651-1.696-13.486-2.629-20.34-2.801
							c-7.063-0.177-33.501-0.027-39.779-0.029c-7.642-0.003-15.285,0.939-22.7,2.83c-4.661,1.189-3.224,7.915,0.986,7.993
							c0.372,0.007,80.292-0.017,80.586-0.004C444.294,343.048,445.901,336.074,441.137,334.859z"/>
						<path style="opacity:0.3;" d="M441.137,334.859c-6.651-1.696-13.486-2.629-20.34-2.801
							c-7.063-0.177-33.501-0.027-39.779-0.029c-7.642-0.003-15.285,0.939-22.7,2.83c-4.661,1.189-3.224,7.915,0.986,7.993
							c0.372,0.007,80.292-0.017,80.586-0.004C444.294,343.048,445.901,336.074,441.137,334.859z"/>
					</g>
					<g>
						<path style="fill:#407BFF;" d="M360.483,342.708c13.425-3.424,27.646-3.424,41.071,0c5.078,1.295,7.245-6.554,2.164-7.85
							c-14.829-3.782-30.57-3.782-45.399,0C353.246,336.152,355.396,344.006,360.483,342.708L360.483,342.708z"/>
					</g>
					<g style="opacity:0.3;">
						<path style="fill:#FFFFFF;" d="M360.483,342.708c13.425-3.424,27.646-3.424,41.071,0c5.078,1.295,7.245-6.554,2.164-7.85
							c-14.829-3.782-30.57-3.782-45.399,0C353.246,336.152,355.396,344.006,360.483,342.708L360.483,342.708z"/>
					</g>
				</g>
				<path style="fill:#407BFF;" d="M419.763,276.61c-0.841-0.016-1.685,0.36-2.248,1.295
					c-10.768,17.906-14.593,39.431-10.878,59.967c0.233,1.287,1.114,1.887,2.092,1.953c1.63,0.111,30.646,0.008,31.698,0.006
					c1.582-0.003,3.321-1.348,2.949-3.402c-3.452-19.084,0.349-39.186,10.331-55.786c1.24-2.063-0.589-3.999-2.438-4.034
					C450.428,276.594,421.612,276.646,419.763,276.61z"/>
				<path style="opacity:0.2;" d="M419.763,276.61c-0.841-0.016-1.685,0.36-2.248,1.295c-10.768,17.906-14.593,39.431-10.878,59.967
					c0.233,1.287,1.114,1.887,2.092,1.953c1.63,0.111,30.646,0.008,31.698,0.006c1.582-0.003,3.321-1.348,2.949-3.402
					c-3.452-19.084,0.349-39.186,10.331-55.786c1.24-2.063-0.589-3.999-2.438-4.034C450.428,276.594,421.612,276.646,419.763,276.61
					z"/>
				<g>
					<path style="fill:#407BFF;" d="M411.87,336.43c-3.452-19.084,0.349-39.186,10.331-55.786c1.804-3.001-2.886-5.732-4.686-2.739
						c-10.768,17.906-14.593,39.431-10.878,59.967C407.258,341.304,412.489,339.85,411.87,336.43L411.87,336.43z"/>
				</g>
				<g style="opacity:0.2;">
					<path style="fill:#FFFFFF;" d="M411.87,336.43c-3.452-19.084,0.349-39.186,10.331-55.786c1.804-3.001-2.886-5.732-4.686-2.739
						c-10.768,17.906-14.593,39.431-10.878,59.967C407.258,341.304,412.489,339.85,411.87,336.43L411.87,336.43z"/>
				</g>
			</g>
		</g>
	</g>
</g>
</svg>
