<svg width="500" height="500" viewBox="0 0 500 500" fill="none" xmlns="http://www.w3.org/2000/svg">
<path d="M449.901 398.494H416.779V398.744H449.901V398.494Z" fill="#EBEBEB"/>
<path d="M331.22 401.208H322.527V401.458H331.22V401.208Z" fill="#EBEBEB"/>
<path d="M415.778 389.208H396.586V389.458H415.778V389.208Z" fill="#EBEBEB"/>
<path d="M95.652 390.888H52.459V391.138H95.652V390.888Z" fill="#EBEBEB"/>
<path d="M110.89 390.888H104.557V391.138H110.89V390.888Z" fill="#EBEBEB"/>
<path d="M225.147 395.111H131.471V395.361H225.147V395.111Z" fill="#EBEBEB"/>
<path d="M237.014 337.8H43.915C40.768 337.8 38.207 335.239 38.207 332.092V60.66C38.207 57.513 40.768 54.952 43.915 54.952H237.014C240.16 54.952 242.721 57.513 242.721 60.66V332.092C242.721 335.239 240.16 337.8 237.014 337.8ZM43.915 55.203C40.905 55.203 38.457 57.651 38.457 60.661V332.093C38.457 335.103 40.905 337.551 43.915 337.551H237.014C240.023 337.551 242.471 335.103 242.471 332.093V60.66C242.471 57.651 240.023 55.202 237.014 55.202L43.915 55.203Z" fill="#EBEBEB"/>
<path d="M453.311 337.8H260.213C257.066 337.8 254.506 335.239 254.506 332.092V60.66C254.506 57.513 257.067 54.952 260.213 54.952H453.311C456.459 54.952 459.019 57.513 459.019 60.66V332.092C459.02 335.239 456.459 337.8 453.311 337.8ZM260.213 55.203C257.204 55.203 254.756 57.651 254.756 60.661V332.093C254.756 335.103 257.204 337.551 260.213 337.551H453.311C456.321 337.551 458.769 335.103 458.769 332.093V60.66C458.769 57.651 456.321 55.202 453.311 55.202L260.213 55.203Z" fill="#EBEBEB"/>
<path d="M500 382.398H0V382.648H500V382.398Z" fill="#EBEBEB"/>
<path d="M215.26 101.667C212.775 101.667 210.76 103.682 210.76 106.167V114H219.76V106.167C219.76 103.681 217.745 101.667 215.26 101.667ZM215.26 108.25C214.477 108.25 213.843 107.616 213.843 106.833C213.843 106.051 214.477 105.416 215.26 105.416C216.043 105.416 216.677 106.05 216.677 106.833C216.677 107.616 216.043 108.25 215.26 108.25Z" fill="#E0E0E0"/>
<path d="M400.26 101.667C397.775 101.667 395.76 103.682 395.76 106.167V114H404.76V106.167C404.76 103.681 402.746 101.667 400.26 101.667ZM400.26 108.25C399.477 108.25 398.843 107.616 398.843 106.833C398.843 106.051 399.477 105.416 400.26 105.416C401.043 105.416 401.677 106.05 401.677 106.833C401.677 107.616 401.043 108.25 400.26 108.25Z" fill="#E0E0E0"/>
<path d="M425.727 111H189.795V246.308H425.727V111Z" fill="#EBEBEB"/>
<path d="M419.227 117.5H196.295V239.808H419.227V117.5Z" fill="#F5F5F5"/>
<path d="M430.095 241.721H185.428V252H430.095V241.721Z" fill="#F0F0F0"/>
<path d="M265.01 139H264.01H223.01V150.5V151.5V162V163V173.5V174.5V185V186V196.5V197.5V209H234.51H235.51H264.01H265.01H295.885H296.885H327.76H328.76H359.635H360.635H392.51V197.5V196.5V186V185V174.5V173.5V163V162V151.5V150.5V139H265.01ZM359.635 173.5H328.76V163H359.635V173.5ZM359.635 185H328.76V174.5H359.635V185ZM359.635 196.5H328.76V186H359.635V196.5ZM235.51 186H264.01V196.5H235.51V186ZM235.51 174.5H264.01V185H235.51V174.5ZM235.51 163H264.01V173.5H235.51V163ZM235.51 151.5H264.01V162H235.51V151.5ZM327.76 173.5H296.885V163H327.76V173.5ZM327.76 185H296.885V174.5H327.76V185ZM265.01 174.5H295.885V185H265.01V174.5ZM295.885 173.5H265.01V163H295.885V173.5ZM265.01 186H295.885V196.5H265.01V186ZM296.885 186H327.76V196.5H296.885V186ZM327.76 162H296.885H295.885H265.01V151.5H327.76V162ZM224.01 140H264.01V150.5H235.51H234.51H224.01V140ZM224.01 151.5H234.51V162H224.01V151.5ZM224.01 163H234.51V173.5H224.01V163ZM224.01 174.5H234.51V185H224.01V174.5ZM224.01 186H234.51V196.5H224.01V186ZM234.51 208H224.01V197.5H234.51V208ZM264.01 208H235.51V197.5H264.01V208ZM295.885 208H265.01V197.5H295.885V208ZM327.76 208H296.885V197.5H327.76V208ZM359.635 208H328.76V197.5H359.635V208ZM391.51 208H360.635V197.5H391.51V208ZM391.51 196.5H360.635V186H391.51V196.5ZM391.51 185H360.635V174.5H391.51V185ZM391.51 173.5H360.635V163H391.51V173.5ZM391.51 162H360.635H359.635H328.76V151.5H391.51V162ZM328.76 150.5H327.76H265.01V140H391.51V150.5H328.76Z" fill="#E0E0E0"/>
<path d="M89.9883 193.837H67.4883V382.821H89.9883V193.837Z" fill="#E0E0E0"/>
<path d="M150.692 193.837H87.5332V382.821H150.692V193.837Z" fill="#EBEBEB"/>
<path d="M144.256 200.271H93.9648V250.562H144.256V200.271Z" fill="#FAFAFA"/>
<path d="M132.716 229.859H105.505C104.742 229.859 104.123 229.24 104.123 228.477C104.123 227.714 104.742 227.095 105.505 227.095H132.716C133.479 227.095 134.098 227.714 134.098 228.477C134.098 229.24 133.479 229.859 132.716 229.859Z" fill="#E0E0E0"/>
<path d="M132.716 235.386H105.505C104.742 235.386 104.123 234.767 104.123 234.004C104.123 233.241 104.742 232.622 105.505 232.622H132.716C133.479 232.622 134.098 233.241 134.098 234.004C134.098 234.768 133.479 235.386 132.716 235.386Z" fill="#E0E0E0"/>
<path d="M132.716 240.914H105.505C104.742 240.914 104.123 240.295 104.123 239.532C104.123 238.769 104.742 238.15 105.505 238.15H132.716C133.479 238.15 134.098 238.769 134.098 239.532C134.098 240.295 133.479 240.914 132.716 240.914Z" fill="#E0E0E0"/>
<path d="M124.467 219.655H113.754L110.926 216.827V210.791L113.754 207.963H124.467L127.295 210.791V216.827L124.467 219.655Z" fill="#EBEBEB"/>
<path d="M144.256 255.376H93.9648V305.667H144.256V255.376Z" fill="#FAFAFA"/>
<path d="M132.716 284.965H105.505C104.742 284.965 104.123 284.346 104.123 283.583C104.123 282.82 104.742 282.201 105.505 282.201H132.716C133.479 282.201 134.098 282.82 134.098 283.583C134.098 284.346 133.479 284.965 132.716 284.965Z" fill="#E0E0E0"/>
<path d="M132.716 290.492H105.505C104.742 290.492 104.123 289.873 104.123 289.11C104.123 288.347 104.742 287.728 105.505 287.728H132.716C133.479 287.728 134.098 288.347 134.098 289.11C134.098 289.873 133.479 290.492 132.716 290.492Z" fill="#E0E0E0"/>
<path d="M132.716 296.019H105.505C104.742 296.019 104.123 295.4 104.123 294.637C104.123 293.874 104.742 293.255 105.505 293.255H132.716C133.479 293.255 134.098 293.874 134.098 294.637C134.098 295.4 133.479 296.019 132.716 296.019Z" fill="#E0E0E0"/>
<path d="M124.467 274.76H113.754L110.926 271.932V265.896L113.754 263.068H124.467L127.295 265.896V271.932L124.467 274.76Z" fill="#EBEBEB"/>
<path d="M144.256 310.482H93.9648V360.773H144.256V310.482Z" fill="#FAFAFA"/>
<path d="M132.716 340.07H105.505C104.742 340.07 104.123 339.451 104.123 338.688C104.123 337.925 104.742 337.306 105.505 337.306H132.716C133.479 337.306 134.098 337.925 134.098 338.688C134.098 339.451 133.479 340.07 132.716 340.07Z" fill="#E0E0E0"/>
<path d="M132.716 345.597H105.505C104.742 345.597 104.123 344.978 104.123 344.215C104.123 343.452 104.742 342.833 105.505 342.833H132.716C133.479 342.833 134.098 343.452 134.098 344.215C134.098 344.979 133.479 345.597 132.716 345.597Z" fill="#E0E0E0"/>
<path d="M132.716 351.125H105.505C104.742 351.125 104.123 350.506 104.123 349.743C104.123 348.98 104.742 348.361 105.505 348.361H132.716C133.479 348.361 134.098 348.98 134.098 349.743C134.098 350.506 133.479 351.125 132.716 351.125Z" fill="#E0E0E0"/>
<path d="M124.467 329.866H113.754L110.926 327.038V321.002L113.754 318.174H124.467L127.295 321.002V327.038L124.467 329.866Z" fill="#EBEBEB"/>
<path d="M245.178 423.714C352.26 423.714 439.067 418.645 439.067 412.391C439.067 406.137 352.26 401.068 245.178 401.068C138.096 401.068 51.2891 406.137 51.2891 412.391C51.2891 418.645 138.096 423.714 245.178 423.714Z" fill="#F5F5F5"/>
<path d="M118.604 411.822L93.3984 402.54L67.9184 411.829C67.0384 412.15 66.1074 411.498 66.1074 410.562C66.1074 410.037 66.4124 409.56 66.8884 409.339L93.3984 397.039L119.641 409.338C120.114 409.56 120.416 410.035 120.416 410.558C120.416 411.495 119.483 412.146 118.604 411.822Z" fill="#102130"/>
<path opacity="0.3" d="M118.604 411.822L93.3984 402.54L67.9184 411.829C67.0384 412.15 66.1074 411.498 66.1074 410.562C66.1074 410.037 66.4124 409.56 66.8884 409.339L93.3984 397.039L119.641 409.338C120.114 409.56 120.416 410.035 120.416 410.558C120.416 411.495 119.483 412.146 118.604 411.822Z" fill="white"/>
<path opacity="0.2" d="M87.459 404.705L93.398 402.54L99.066 404.627V399.695L93.398 397.038L87.459 399.794V404.705Z" fill="black"/>
<path d="M93.2623 412.037C92.1083 412.037 91.1433 411.16 91.0343 410.011L90.3223 402.539V340.522H96.2013V402.539L95.4893 410.011C95.3813 411.16 94.4163 412.037 93.2623 412.037Z" fill="#102130"/>
<path opacity="0.3" d="M93.2623 412.037C92.1083 412.037 91.1433 411.16 91.0343 410.011L90.3223 402.539V340.522H96.2013V402.539L95.4893 410.011C95.3813 411.16 94.4163 412.037 93.2623 412.037Z" fill="white"/>
<path opacity="0.2" d="M96.2013 340.522H90.3223V347.744H96.2013V340.522Z" fill="black"/>
<path d="M80.0762 276.629C80.9172 276.613 81.7612 276.989 82.3242 277.924C93.0922 295.83 96.9172 317.355 93.2022 337.891C92.9692 339.178 92.0882 339.778 91.1102 339.844C89.4802 339.955 60.4642 339.852 59.4122 339.85C57.8292 339.847 56.0912 338.502 56.4632 336.448C59.9152 317.364 56.1142 297.262 46.1322 280.662C44.8922 278.599 46.7212 276.663 48.5702 276.628C49.4112 276.612 78.2272 276.664 80.0762 276.629Z" fill="#148577"/>
<path opacity="0.2" d="M80.0762 276.629C80.9172 276.613 81.7612 276.989 82.3242 277.924C93.0922 295.83 96.9172 317.355 93.2022 337.891C92.9692 339.178 92.0882 339.778 91.1102 339.844C89.4802 339.955 60.4642 339.852 59.4122 339.85C57.8292 339.847 56.0912 338.502 56.4632 336.448C59.9152 317.364 56.1142 297.262 46.1322 280.662C44.8922 278.599 46.7212 276.663 48.5702 276.628C49.4112 276.612 78.2272 276.664 80.0762 276.629Z" fill="black"/>
<path d="M56.4634 336.449C59.9154 317.365 56.1144 297.263 46.1324 280.663C44.3284 277.662 49.0184 274.931 50.8184 277.924C61.5864 295.83 65.4114 317.355 61.6964 337.891C61.0754 341.323 55.8444 339.869 56.4634 336.449Z" fill="#148577"/>
<g opacity="0.1">
<path d="M56.4634 336.449C59.9154 317.365 56.1144 297.263 46.1324 280.663C44.3284 277.662 49.0184 274.931 50.8184 277.924C61.5864 295.83 65.4114 317.355 61.6964 337.891C61.0754 341.323 55.8444 339.869 56.4634 336.449Z" fill="white"/>
</g>
<path d="M146.947 334.877C140.296 333.181 133.461 332.248 126.607 332.076C119.544 331.899 93.1061 332.049 86.8271 332.047C79.1851 332.044 71.5421 332.986 64.1271 334.877C59.4661 336.066 60.9031 342.792 65.1131 342.87C65.4851 342.877 145.405 342.853 145.699 342.866C150.104 343.067 151.71 336.092 146.947 334.877Z" fill="#148577"/>
<path opacity="0.3" d="M146.947 334.877C140.296 333.181 133.461 332.248 126.607 332.076C119.544 331.899 93.1061 332.049 86.8271 332.047C79.1851 332.044 71.5421 332.986 64.1271 334.877C59.4661 336.066 60.9031 342.792 65.1131 342.87C65.4851 342.877 145.405 342.853 145.699 342.866C150.104 343.067 151.71 336.092 146.947 334.877Z" fill="black"/>
<path d="M66.2913 342.727C79.7163 339.303 93.9373 339.303 107.362 342.727C112.44 344.022 114.607 336.173 109.526 334.877C94.6973 331.095 78.9563 331.095 64.1273 334.877C59.0543 336.171 61.2043 344.024 66.2913 342.727Z" fill="#148577"/>
<g opacity="0.3">
<path d="M66.2913 342.727C79.7163 339.303 93.9373 339.303 107.362 342.727C112.44 344.022 114.607 336.173 109.526 334.877C94.6973 331.095 78.9563 331.095 64.1273 334.877C59.0543 336.171 61.2043 344.024 66.2913 342.727Z" fill="white"/>
</g>
<path d="M139.855 292.377L149.051 291.987L151.8 290.227C152.45 289.811 153.244 289.681 153.993 289.868L155.961 290.36C156.992 290.618 158.08 290.271 158.772 289.464C159.935 288.107 159.551 286.024 157.98 285.171L154.994 283.551C154.036 283.031 152.862 283.113 151.986 283.762L147.152 287.342L139.855 286.827V292.377Z" fill="#EBB376"/>
<path d="M129.907 256.759L126.733 284.785L144.623 286.057L143.833 292.487C143.833 292.487 125.743 295.653 119.111 293.844C112.478 292.035 121.315 261.735 121.315 261.735L129.907 256.759Z" fill="#148577"/>
<path opacity="0.2" d="M129.907 256.759L126.733 284.785L144.623 286.057L143.833 292.487C143.833 292.487 125.743 295.653 119.111 293.844C112.478 292.035 121.315 261.735 121.315 261.735L129.907 256.759Z" fill="white"/>
<path opacity="0.1" d="M124.17 291.301C119.5 288.872 125.765 265.558 127.976 257.876L121.313 261.734C121.313 261.734 112.476 292.034 119.109 293.843C123.187 294.955 131.589 294.187 137.462 293.43C133.461 293.432 127.611 293.091 124.17 291.301Z" fill="black"/>
<path d="M114.078 311.48C114.078 311.48 95.6865 315.399 73.9785 313.741C73.9785 313.741 77.0625 277.894 87.9745 258.273C89.7175 255.139 92.6115 252.806 96.0355 251.74C103.876 249.297 116.49 247.111 129.907 256.759C129.907 256.759 123.122 269.422 114.078 311.48Z" fill="#148577"/>
<path opacity="0.4" d="M114.078 311.48C114.078 311.48 95.6865 315.399 73.9785 313.741C73.9785 313.741 77.0625 277.894 87.9745 258.273C89.7175 255.139 92.6115 252.806 96.0355 251.74C103.876 249.297 116.49 247.111 129.907 256.759C129.907 256.759 123.122 269.422 114.078 311.48Z" fill="white"/>
<path d="M120.597 265.691C120.597 266.285 120.115 266.767 119.521 266.767C118.927 266.767 118.445 266.285 118.445 265.691C118.445 265.097 118.927 264.615 119.521 264.615C120.115 264.615 120.597 265.097 120.597 265.691Z" fill="#148577"/>
<path d="M116.795 276.696C116.795 277.29 116.313 277.772 115.719 277.772C115.125 277.772 114.643 277.29 114.643 276.696C114.643 276.102 115.125 275.62 115.719 275.62C116.313 275.62 116.795 276.101 116.795 276.696Z" fill="#148577"/>
<path d="M112.269 292.377C112.864 292.377 113.345 291.895 113.345 291.301C113.345 290.707 112.864 290.225 112.269 290.225C111.675 290.225 111.193 290.707 111.193 291.301C111.193 291.895 111.675 292.377 112.269 292.377Z" fill="#148577"/>
<path d="M110.507 303.453C110.507 304.047 110.025 304.529 109.431 304.529C108.837 304.529 108.355 304.047 108.355 303.453C108.355 302.859 108.837 302.377 109.431 302.377C110.025 302.377 110.507 302.859 110.507 303.453Z" fill="#148577"/>
<path opacity="0.1" d="M121.93 279.549L121.929 279.548L108.354 282.611L97.6461 279.673L93.4251 267.613L92.52 260.829H89.505C89.505 260.829 86.6411 282.428 96.4391 291.301C102.549 296.834 112.527 293.231 119.174 289.735C120.143 285.966 121.064 282.578 121.93 279.549Z" fill="black"/>
<path d="M130.724 376.683L126.014 397.192L131.86 399.456L140.282 378.827L130.724 376.683Z" fill="#EBB376"/>
<path d="M131.518 398.115L126.206 395.274C125.975 395.15 125.689 395.202 125.517 395.4L121.725 399.789C121.386 400.176 121.424 400.764 121.811 401.104C121.861 401.148 121.915 401.186 121.972 401.218C124.202 402.369 126.231 403.306 128.979 404.79C132.224 406.539 131.191 406.483 134.978 408.592C137.261 409.86 139.089 407.473 138.183 406.82C134.024 403.856 133.47 401.801 132.609 399.277C132.401 398.769 132.012 398.355 131.518 398.115Z" fill="#102130"/>
<path d="M83.325 313.062L112.042 311.48C112.042 311.48 159.753 318.942 159.075 332.283C158.397 345.624 138.95 387.683 138.95 387.683L127.564 384.517C127.564 384.517 136.236 342.232 141.889 335.223C141.889 335.223 106.258 331.043 97.343 328.665C92.438 327.357 80.612 329.568 83.325 313.062Z" fill="#102130"/>
<path opacity="0.2" d="M137.071 334.642C137.2 331.95 136.933 327.757 134.882 323.126C132.228 317.133 110.388 313.539 99.939 312.148L83.3269 313.063C80.6139 329.569 92.44 327.358 97.346 328.666C104.228 330.501 127.03 333.41 137.071 334.642Z" fill="black"/>
<path d="M111.214 382.332L110.461 403.361L116.792 403.662L121.005 382.633L111.214 382.332Z" fill="#EBB376"/>
<path d="M116.337 401.75L110.204 401.88C109.937 401.885 109.709 402.074 109.655 402.336L108.48 408.124C108.372 408.637 108.7 409.14 109.213 409.248C109.279 409.262 109.346 409.269 109.413 409.268C111.966 409.177 114.235 408.996 117.416 408.942C121.169 408.875 120.225 409.341 124.638 409.323C127.297 409.31 127.728 406.279 126.599 406.151C121.428 405.596 119.911 404.048 117.887 402.238C117.446 401.891 116.895 401.717 116.337 401.75Z" fill="#102130"/>
<path d="M91.0131 313.063C91.0131 313.063 129.454 314.42 131.715 326.178C133.976 337.936 121.087 390.622 121.087 390.622H109.555C109.555 390.622 110.912 343.363 114.756 333.413C114.756 333.413 83.0991 338.388 74.7331 331.203C68.7531 326.068 75.8641 313.06 75.8641 313.06L91.0131 313.063Z" fill="#102130"/>
<path d="M126.662 382.03L140.987 386.025L138.368 391.532L125.309 388.286L126.662 382.03Z" fill="#102130"/>
<path opacity="0.3" d="M126.662 382.03L140.987 386.025L138.368 391.532L125.309 388.286L126.662 382.03Z" fill="black"/>
<path d="M125.986 275.603L137.443 271.834L144.774 275.107C145.469 275.417 145.967 276.05 146.107 276.798L146.883 280.971C147.148 282.395 146.055 283.71 144.606 283.71C144.068 283.71 143.547 283.523 143.132 283.181L136.689 277.865L126.66 281.902L125.986 275.603Z" fill="#EBB376"/>
<path d="M108.424 387.683L122.896 388.362L121.539 394.128L108.424 393.449V387.683Z" fill="#102130"/>
<path opacity="0.3" d="M108.424 387.683L122.896 388.362L121.539 394.128L108.424 393.449V387.683Z" fill="black"/>
<path d="M90.2586 256.759C92.4906 253.416 96.0346 249.931 105.032 279.371L131.981 272.738L132.77 280.091C132.77 280.091 110.761 291.883 101.942 290.224C93.1236 288.567 84.1266 265.942 90.2586 256.759Z" fill="#148577"/>
<path opacity="0.2" d="M90.2586 256.759C92.4906 253.416 96.0346 249.931 105.032 279.371L131.981 272.738L132.77 280.091C132.77 280.091 110.761 291.883 101.942 290.224C93.1236 288.567 84.1266 265.942 90.2586 256.759Z" fill="white"/>
<path d="M118.446 246.508L113.346 251.297C113.346 251.297 115.332 257.509 120.434 257.509C125.536 257.509 122.445 249.651 122.445 249.651L118.446 246.508Z" fill="#EBB376"/>
<path d="M121.145 261.112L123.632 259.812L124.677 258.229L124.239 253.334C119.633 251.045 115.196 250.009 111.1 249.733L110.912 252.009L113.682 260.038L116.904 261.112H121.145Z" fill="#EBB376"/>
<path opacity="0.1" d="M122.444 249.651L118.445 246.508L117.771 247.14C117.378 249.475 116.929 254.337 119.521 256.25C120.552 257.01 121.538 257.096 122.419 256.852C124.529 254.971 122.444 249.651 122.444 249.651Z" fill="black"/>
<path d="M119.731 261.734L123.575 263.769C126.273 260.557 125.601 256.061 124.981 253.707C124.529 253.47 124.078 253.245 123.629 253.032C124.139 256.583 123.728 260.482 119.505 260.604C112.867 260.796 111.878 252.316 111.73 249.782C111.249 249.741 110.773 249.711 110.301 249.69C108.196 259.076 114.078 263.77 114.078 263.77L119.731 261.734Z" fill="#148577"/>
<path opacity="0.2" d="M119.731 261.734L123.575 263.769C126.273 260.557 125.601 256.061 124.981 253.707C124.529 253.47 124.078 253.245 123.629 253.032C124.139 256.583 123.728 260.482 119.505 260.604C112.867 260.796 111.878 252.316 111.73 249.782C111.249 249.741 110.773 249.711 110.301 249.69C108.196 259.076 114.078 263.77 114.078 263.77L119.731 261.734Z" fill="white"/>
<path d="M136.133 234.631C139.789 236.998 138.706 242.94 134.894 245.383C133.808 238.577 136.133 234.631 136.133 234.631Z" fill="#102130"/>
<path opacity="0.4" d="M136.133 234.631C139.789 236.998 138.706 242.94 134.894 245.383C133.808 238.577 136.133 234.631 136.133 234.631Z" fill="black"/>
<path d="M119.369 238.537C117.997 244.8 116.871 248.383 119.042 252.523C121.13 256.622 126.146 258.252 130.245 256.163C131.753 255.395 132.992 254.185 133.795 252.695C136.677 247.603 138.442 238.217 133.192 233.857C129.695 230.787 124.371 231.133 121.3 234.63C120.325 235.741 119.659 237.088 119.369 238.537Z" fill="#EBB376"/>
<path d="M118.71 244.385C122.056 246.1 124.212 240.229 123.747 237.398C128.1 240.377 137.878 239.945 140.74 235.968C143.866 231.622 139.17 227.942 134.925 226.617C133.747 226.249 132.63 227.07 132.336 228.269C132.285 228.478 132.18 228.651 132.03 228.759C132.03 228.759 130.828 227.663 129.117 226.709C127.652 225.892 125.927 226.358 124.688 227.489C124.195 227.939 122.988 228.035 120.567 227.217C115.547 225.521 114.702 230.983 117.139 232.04C114.93 233.387 111.276 237.103 113.245 240.364C115.214 243.625 116.906 247.929 115.801 248.642C116.822 249.083 118.627 247.988 118.71 244.385Z" fill="#102130"/>
<path d="M115.584 242.981C115.611 244.414 116.178 245.783 117.171 246.816C118.484 248.154 119.991 247.146 120.33 245.383C120.635 243.783 120.316 241.175 118.655 240.508C116.994 239.84 115.566 241.21 115.584 242.981Z" fill="#EBB376"/>
<path d="M128.095 243.234C127.948 243.731 128.102 244.218 128.434 244.295C128.766 244.372 129.131 244.079 129.278 243.583C129.425 243.086 129.275 242.592 128.932 242.518C128.589 242.444 128.235 242.734 128.095 243.234Z" fill="#102130"/>
<path d="M133.682 245.039C133.535 245.536 133.682 246.019 134.021 246.1C134.36 246.181 134.718 245.884 134.868 245.38C135.019 244.876 134.861 244.396 134.522 244.315C134.183 244.235 133.826 244.532 133.682 245.039Z" fill="#102130"/>
<path d="M131.832 244.713C131.988 246.436 132.37 248.131 132.969 249.754C131.864 250.297 130.473 249.462 130.473 249.462L131.832 244.713Z" fill="#D58745"/>
<path d="M126.885 240.848C126.837 240.838 126.791 240.817 126.753 240.785C126.651 240.654 126.673 240.466 126.804 240.363C126.807 240.36 126.811 240.358 126.814 240.355C127.587 239.745 128.613 239.56 129.55 239.862C129.705 239.921 129.783 240.094 129.724 240.249C129.723 240.252 129.722 240.255 129.72 240.258C129.661 240.413 129.488 240.491 129.333 240.432C129.33 240.431 129.327 240.43 129.324 240.428C128.595 240.2 127.8 240.34 127.192 240.804C127.108 240.88 126.987 240.897 126.885 240.848Z" fill="#102130"/>
<path d="M136.636 243.867C136.544 243.826 136.479 243.741 136.465 243.641C136.355 242.856 135.886 242.166 135.197 241.776C135.057 241.679 135.023 241.486 135.12 241.347C135.196 241.238 135.332 241.19 135.459 241.227C136.325 241.702 136.917 242.558 137.055 243.537C137.084 243.7 136.976 243.856 136.812 243.886C136.81 243.886 136.809 243.887 136.807 243.887C136.749 243.898 136.689 243.892 136.636 243.867Z" fill="#102130"/>
<path d="M127.652 251.123C127.93 251.204 128.215 251.262 128.503 251.295C128.595 251.311 128.683 251.248 128.699 251.156C128.699 251.154 128.7 251.152 128.7 251.15C128.706 251.054 128.636 250.971 128.541 250.96C127.067 250.803 125.756 249.955 125.006 248.676C124.964 248.59 124.861 248.554 124.775 248.596C124.689 248.638 124.653 248.741 124.695 248.827C125.33 249.96 126.397 250.788 127.652 251.123Z" fill="#102130"/>
<path d="M117.944 232.269C117.944 232.269 115.818 231.916 114.996 229.397C114.806 228.814 113.987 228.766 113.724 229.321C112.867 231.128 112.482 233.628 117.944 232.269Z" fill="#2E353A"/>
<path d="M160.198 239.921H157.33C154.849 239.921 152.659 241.932 152.439 244.413L149.95 272.427C149.73 274.908 151.562 276.919 154.043 276.919H156.911L160.198 239.921Z" fill="#148577"/>
<path opacity="0.3" d="M160.198 239.921H157.33C154.849 239.921 152.659 241.932 152.439 244.413L149.95 272.427C149.73 274.908 151.562 276.919 154.043 276.919H156.911L160.198 239.921Z" fill="white"/>
<path d="M202.784 276.919H156.004C153.523 276.919 151.69 274.908 151.911 272.427L154.4 244.413C154.62 241.932 156.81 239.921 159.291 239.921H206.071C208.552 239.921 210.385 241.932 210.164 244.413L207.675 272.427C207.455 274.908 205.265 276.919 202.784 276.919Z" fill="#148577"/>
<path opacity="0.2" d="M202.784 276.919H156.004C153.523 276.919 151.69 274.908 151.911 272.427L154.4 244.413C154.62 241.932 156.81 239.921 159.291 239.921H206.071C208.552 239.921 210.385 241.932 210.164 244.413L207.675 272.427C207.455 274.908 205.265 276.919 202.784 276.919Z" fill="black"/>
<path opacity="0.5" d="M181.864 255.707C181.864 255.467 181.905 255.239 181.963 255.018C181.666 254.937 181.359 254.88 181.037 254.88C179.081 254.88 177.496 256.465 177.496 258.421C177.496 260.376 179.081 261.962 181.037 261.962C182.992 261.962 184.577 260.377 184.577 258.421C183.079 258.42 181.864 257.205 181.864 255.707Z" fill="white"/>
<path d="M178.904 290.354H182.504L181.079 274.069C180.998 273.143 180.223 272.432 179.293 272.432C178.241 272.432 177.415 273.333 177.507 274.381L178.904 290.354Z" fill="#102130"/>
<path opacity="0.3" d="M178.904 290.354H182.504L181.079 274.069C180.998 273.143 180.223 272.432 179.293 272.432C178.241 272.432 177.415 273.333 177.507 274.381L178.904 290.354Z" fill="white"/>
<path d="M190.269 295.076C190.269 289.86 186.041 285.632 180.825 285.632C175.609 285.632 171.381 289.86 171.381 295.076H190.269Z" fill="#148577"/>
<path opacity="0.5" d="M190.269 295.076C190.269 289.86 186.041 285.632 180.825 285.632C175.609 285.632 171.381 289.86 171.381 295.076H190.269Z" fill="white"/>
<path d="M168.079 295.076H153.164C152.179 295.076 151.381 294.278 151.381 293.293C151.381 292.308 152.179 291.51 153.164 291.51H168.079C169.064 291.51 169.862 292.308 169.862 293.293C169.862 294.277 169.064 295.076 168.079 295.076Z" fill="#148577"/>
<path opacity="0.3" d="M168.079 295.076H153.164C152.179 295.076 151.381 294.278 151.381 293.293C151.381 292.308 152.179 291.51 153.164 291.51H168.079C169.064 291.51 169.862 292.308 169.862 293.293C169.862 294.277 169.064 295.076 168.079 295.076Z" fill="white"/>
<path d="M154.085 295.076H139.17C138.185 295.076 137.387 294.278 137.387 293.293C137.387 292.308 138.185 291.51 139.17 291.51H154.085C155.07 291.51 155.868 292.308 155.868 293.293C155.868 294.277 155.07 295.076 154.085 295.076Z" fill="#148577"/>
<path opacity="0.5" d="M154.085 295.076H139.17C138.185 295.076 137.387 294.278 137.387 293.293C137.387 292.308 138.185 291.51 139.17 291.51H154.085C155.07 291.51 155.868 292.308 155.868 293.293C155.868 294.277 155.07 295.076 154.085 295.076Z" fill="white"/>
<path d="M278.906 276.845C278.065 276.829 277.221 277.205 276.658 278.14C265.89 296.046 262.065 317.571 265.78 338.107C266.013 339.394 266.894 339.994 267.872 340.06C269.502 340.171 298.518 340.068 299.57 340.066C301.152 340.063 302.891 338.718 302.519 336.664C299.067 317.58 302.868 297.478 312.85 280.878C314.09 278.815 312.261 276.879 310.412 276.844C309.572 276.829 280.755 276.881 278.906 276.845Z" fill="#148577"/>
<path opacity="0.2" d="M278.906 276.845C278.065 276.829 277.221 277.205 276.658 278.14C265.89 296.046 262.065 317.571 265.78 338.107C266.013 339.394 266.894 339.994 267.872 340.06C269.502 340.171 298.518 340.068 299.57 340.066C301.152 340.063 302.891 338.718 302.519 336.664C299.067 317.58 302.868 297.478 312.85 280.878C314.09 278.815 312.261 276.879 310.412 276.844C309.572 276.829 280.755 276.881 278.906 276.845Z" fill="black"/>
<path d="M302.519 336.665C299.067 317.581 302.868 297.479 312.85 280.879C314.654 277.879 309.964 275.147 308.164 278.14C297.396 296.046 293.571 317.571 297.286 338.107C297.906 341.54 303.137 340.086 302.519 336.665Z" fill="#148577"/>
<g opacity="0.2">
<path d="M302.519 336.665C299.067 317.581 302.868 297.479 312.85 280.879C314.654 277.879 309.964 275.147 308.164 278.14C297.396 296.046 293.571 317.571 297.286 338.107C297.906 341.54 303.137 340.086 302.519 336.665Z" fill="white"/>
</g>
<path d="M284.731 412.039L259.525 402.757L234.045 412.046C233.165 412.367 232.234 411.715 232.234 410.779C232.234 410.254 232.539 409.777 233.015 409.556L259.525 397.256L285.768 409.555C286.241 409.777 286.543 410.252 286.543 410.775C286.544 411.711 285.61 412.362 284.731 412.039Z" fill="#102130"/>
<path opacity="0.3" d="M284.731 412.039L259.525 402.757L234.045 412.046C233.165 412.367 232.234 411.715 232.234 410.779C232.234 410.254 232.539 409.777 233.015 409.556L259.525 397.256L285.768 409.555C286.241 409.777 286.543 410.252 286.543 410.775C286.544 411.711 285.61 412.362 284.731 412.039Z" fill="white"/>
<path opacity="0.2" d="M253.586 404.922L259.526 402.757L265.194 404.844V399.911L259.526 397.255L253.586 400.011V404.922Z" fill="black"/>
<path d="M259.389 412.254C258.235 412.254 257.27 411.377 257.161 410.228L256.449 402.756V340.739H262.328V402.756L261.616 410.228C261.507 411.376 260.543 412.254 259.389 412.254Z" fill="#102130"/>
<path opacity="0.3" d="M259.389 412.254C258.235 412.254 257.27 411.377 257.161 410.228L256.449 402.756V340.739H262.328V402.756L261.616 410.228C261.507 411.376 260.543 412.254 259.389 412.254Z" fill="white"/>
<path opacity="0.2" d="M262.328 340.739H256.449V347.961H262.328V340.739Z" fill="black"/>
<path d="M212.941 335.094C219.593 333.398 226.427 332.465 233.281 332.293C240.344 332.116 266.782 332.266 273.06 332.264C280.702 332.261 288.345 333.203 295.76 335.094C300.421 336.283 298.984 343.009 294.774 343.087C294.402 343.094 214.482 343.07 214.188 343.083C209.784 343.283 208.178 336.309 212.941 335.094Z" fill="#148577"/>
<path opacity="0.3" d="M212.941 335.094C219.593 333.398 226.427 332.465 233.281 332.293C240.344 332.116 266.782 332.266 273.06 332.264C280.702 332.261 288.345 333.203 295.76 335.094C300.421 336.283 298.984 343.009 294.774 343.087C294.402 343.094 214.482 343.07 214.188 343.083C209.784 343.283 208.178 336.309 212.941 335.094Z" fill="black"/>
<path d="M293.596 342.944C280.171 339.52 265.95 339.52 252.525 342.944C247.446 344.239 245.28 336.39 250.361 335.095C265.19 331.313 280.931 331.313 295.76 335.095C300.833 336.388 298.683 344.241 293.596 342.944Z" fill="#148577"/>
<g opacity="0.3">
<path d="M293.596 342.944C280.171 339.52 265.95 339.52 252.525 342.944C247.446 344.239 245.28 336.39 250.361 335.095C265.19 331.313 280.931 331.313 295.76 335.095C300.833 336.388 298.683 344.241 293.596 342.944Z" fill="white"/>
</g>
<path d="M254.837 243.52C254.837 243.52 249.922 243.043 251.448 235.735C252.974 228.427 252.845 221.484 263.707 222.27C263.707 222.27 272.308 220.117 274.738 228.2C277.169 236.284 280.78 242.014 275.021 244.388C267.818 247.357 266.001 240.749 266.001 240.749L255.467 241.77L254.837 243.52Z" fill="#102130"/>
<path d="M253.227 254.224C246.95 253.327 250.034 275.043 244.408 278.949C241.321 281.092 225.778 275.338 225.778 275.338L223.588 268.328C223.474 267.964 223.206 267.671 222.857 267.533L219.621 266.246C218.694 265.877 217.741 266.72 217.965 267.711L219.131 272.883C219.181 273.107 219.29 273.312 219.446 273.477L223.956 278.266C223.956 278.266 242.49 287.255 247.01 285.763C252.248 284.034 254.191 274.493 255.489 268.808C256.456 264.572 257.976 254.902 253.227 254.224Z" fill="#B97964"/>
<path d="M245.995 384.068L247.877 398.678L242.564 398.817L238.727 384.723L245.995 384.068Z" fill="#B97964"/>
<path d="M242.495 398.006L248.561 398.024C248.824 398.025 249.051 398.207 249.108 398.464L250.353 404.138C250.467 404.641 250.152 405.14 249.65 405.254C249.586 405.269 249.52 405.277 249.453 405.277C246.941 405.227 244.707 405.083 241.578 405.079C237.886 405.07 238.822 405.515 234.482 405.565C231.867 405.593 231.396 402.619 232.505 402.476C237.581 401.851 239.017 400.32 240.979 398.509C241.406 398.161 241.945 397.982 242.495 398.006Z" fill="#102130"/>
<path opacity="0.1" d="M240.952 392.898L238.727 384.723L245.995 384.068L247.083 392.514L240.952 392.898Z" fill="black"/>
<path d="M264.298 296.365H255.714C255.714 296.365 253.453 302.214 253.001 308.319C252.549 314.424 264.298 309.902 264.298 309.902L265.324 301.536L264.298 296.365Z" fill="#102130"/>
<path d="M209.586 363.832L203.933 380.339L199.184 378.982L203.029 361.57L209.586 363.832Z" fill="#B97964"/>
<path d="M199.268 377.714L205.107 379.476C205.361 379.542 205.536 379.776 205.526 380.039L205.312 385.844C205.297 386.359 204.867 386.764 204.352 386.749C204.286 386.747 204.22 386.738 204.156 386.722C201.736 386.045 199.609 385.347 196.581 384.56C193.009 383.628 193.804 384.292 189.589 383.255C187.05 382.627 187.338 379.631 188.448 379.769C193.519 380.434 195.321 379.084 197.674 377.822C198.175 377.591 198.742 377.553 199.268 377.714Z" fill="#102130"/>
<path opacity="0.1" d="M206.503 372.831L200.861 371.385L203.028 361.57L209.585 363.832L206.503 372.831Z" fill="black"/>
<path d="M281.418 295.581C281.418 295.581 290.161 310.203 288.654 322.414C287.147 334.625 275.852 341.083 232.436 320.28C232.436 320.28 223.531 329.499 208.758 368.995L201.221 366.734C201.221 366.734 209.738 321.08 217.351 308.093C225.039 294.978 258.807 310.354 261.369 307.792C263.65 305.511 261.67 296.486 261.67 296.486L281.418 295.581Z" fill="#102130"/>
<path d="M210.605 368.241L209.022 371.294L199.977 368.241V364.736L210.605 368.241Z" fill="#148577"/>
<path d="M284.938 256.502L254.182 254.202C252.321 254.063 250.78 255.628 250.948 257.487C250.948 257.487 251.579 261.356 251.471 262.648C251.2 265.909 249.446 270.791 250.03 273.014C250.499 274.796 252.372 276.821 253.112 278.826C254.717 283.173 254.983 297.268 254.983 297.268C264.932 298.881 282.621 296.484 282.621 296.484C278.652 282.175 284.585 265.447 286.403 258.551C286.666 257.561 285.961 256.579 284.938 256.502Z" fill="#148577"/>
<path opacity="0.7" d="M284.938 256.502L254.182 254.202C252.321 254.063 250.78 255.628 250.948 257.487C250.948 257.487 251.579 261.356 251.471 262.648C251.2 265.909 249.446 270.791 250.03 273.014C250.499 274.796 252.372 276.821 253.112 278.826C254.717 283.173 254.983 297.268 254.983 297.268C264.932 298.881 282.621 296.484 282.621 296.484C278.652 282.175 284.585 265.447 286.403 258.551C286.666 257.561 285.961 256.579 284.938 256.502Z" fill="white"/>
<path opacity="0.1" d="M280.359 273.396L269.731 284.279L254.581 287.332L254.479 287.357C254.619 289.033 254.721 290.709 254.797 292.196C258.994 292.189 272.684 291.897 276.628 288.463C278.587 286.758 280.212 284.202 281.441 281.805C281.627 279.306 281.964 276.857 282.386 274.518L280.359 273.396Z" fill="black"/>
<path opacity="0.2" d="M227.48 324.377L225.106 322.541C225.106 322.541 216.737 327.071 220.903 339.969V339.97C223.928 333.656 226.413 329.206 228.292 326.156L227.48 324.377Z" fill="black"/>
<path d="M263.743 332.288C255.854 330.399 245.637 326.606 232.435 320.28C232.435 320.28 222.249 320.416 221.57 327.991C220.892 335.566 238.755 387.952 238.755 387.952L247.008 387.234C247.008 387.234 242.146 335 241.016 332.287H263.743V332.288Z" fill="#102130"/>
<path opacity="0.2" d="M232.434 320.28C232.434 320.28 230.878 320.303 228.943 320.78C230.808 322.434 237.389 327.906 247.354 332.288H263.742C255.852 330.399 245.636 326.606 232.434 320.28Z" fill="black"/>
<path d="M247.998 385.881L248.22 389.271L238.613 390.025L237.246 386.798L247.998 385.881Z" fill="#148577"/>
<path d="M270.421 242.179L263.709 248.774C264.836 254.194 260.857 254.702 260.857 254.702C260.857 254.702 261.178 256.608 266.045 256.348C270.911 256.088 272.501 255.572 272.501 255.572C269.575 253.232 269.992 246.104 270.421 242.179Z" fill="#B97964"/>
<path opacity="0.1" d="M263.768 251.826C263.948 251.038 263.972 250.046 263.707 248.774L269.695 242.89L270.283 243.571C270.283 243.571 269.079 251.067 263.768 251.826Z" fill="black"/>
<path d="M270.981 233.448C271.471 239.913 271.821 242.638 269.039 246.373C264.854 251.995 256.81 251.187 254.393 245C252.219 239.431 251.779 229.802 257.697 226.383C261.913 223.919 267.328 225.339 269.792 229.555C270.485 230.743 270.892 232.076 270.981 233.448Z" fill="#B97964"/>
<path d="M257.789 239.985C257.49 241.24 257.02 242.449 256.391 243.576C256.98 243.889 257.678 243.925 258.297 243.675L257.789 239.985Z" fill="#A24E3F"/>
<path d="M262.68 235.575C262.722 235.559 262.759 235.533 262.79 235.499C262.881 235.39 262.867 235.228 262.759 235.137L262.755 235.134C262.021 234.487 261.017 234.238 260.065 234.468C259.932 234.513 259.858 234.655 259.897 234.79C259.938 234.923 260.078 234.999 260.212 234.961C261.001 234.785 261.826 234.997 262.431 235.533C262.501 235.589 262.596 235.605 262.68 235.575Z" fill="#2E353A"/>
<path d="M253.126 236.465C253.168 236.448 253.206 236.423 253.236 236.389C253.755 235.775 254.538 235.447 255.34 235.506C255.48 235.529 255.612 235.434 255.635 235.294L255.636 235.291C255.654 235.149 255.555 235.019 255.414 234.997C254.439 234.912 253.483 235.303 252.847 236.047C252.749 236.149 252.752 236.312 252.854 236.41C252.926 236.481 253.033 236.502 253.126 236.465Z" fill="#2E353A"/>
<path d="M261.355 238.614C261.428 239.132 261.209 239.593 260.864 239.643C260.519 239.694 260.191 239.309 260.122 238.781C260.054 238.254 260.268 237.802 260.606 237.754C260.944 237.706 261.28 238.089 261.355 238.614Z" fill="#2E353A"/>
<path d="M255.455 239.43C255.528 239.948 255.309 240.409 254.971 240.457C254.633 240.505 254.297 240.123 254.222 239.598C254.147 239.073 254.368 238.619 254.706 238.571C255.044 238.522 255.386 238.902 255.455 239.43Z" fill="#2E353A"/>
<path d="M254.859 238.578L253.557 238.392C253.557 238.392 254.338 239.278 254.859 238.578Z" fill="#2E353A"/>
<path d="M260.759 237.762L259.457 237.576C259.457 237.576 260.237 238.462 260.759 237.762Z" fill="#2E353A"/>
<path d="M261.766 243.905C261.871 243.721 261.96 243.529 262.033 243.33C262.06 243.267 262.03 243.194 261.967 243.167L261.963 243.165C261.896 243.145 261.825 243.18 261.801 243.245C261.439 244.265 260.613 245.053 259.578 245.368C259.51 245.383 259.467 245.45 259.482 245.518C259.497 245.586 259.564 245.629 259.632 245.614C260.545 245.356 261.315 244.74 261.766 243.905Z" fill="#102130"/>
<path d="M266.002 224.033C261.85 223 257.554 225.175 257.554 225.175C257.554 225.175 252.747 229.444 253.85 233.571C253.85 233.571 254.396 233.105 255.544 232.758C255.48 231.637 255.57 229.678 256.762 228.37C256.762 228.37 256.298 230.619 256.914 232.475C258.35 232.29 260.306 232.369 262.849 233.176C262.849 233.176 263.679 231.465 262.849 227.749C262.849 227.749 264.449 230.236 264.506 234.08C264.563 237.924 269.481 238.848 269.481 238.848C269.481 238.848 272.569 238.517 272.534 234.384C272.5 230.251 270.153 225.066 266.002 224.033Z" fill="#102130"/>
<path d="M264.169 223.791C264.169 223.791 262.205 218.929 258.297 220.117C254.389 221.304 261.229 221.304 264.169 223.791Z" fill="#102130"/>
<path d="M273.197 238.308C273.006 239.547 272.33 240.66 271.318 241.4C269.969 242.37 268.726 241.304 268.623 239.732C268.53 238.322 269.12 236.112 270.705 235.762C271.867 235.543 272.986 236.307 273.206 237.469C273.259 237.746 273.256 238.031 273.197 238.308Z" fill="#B97964"/>
<path d="M285.327 256.362C282.271 255.318 278.081 267.029 276.323 270.673C275.598 272.177 274.437 275.56 273.56 278.233C272.792 280.574 270.946 282.367 268.632 283.023L252.24 287.669L245.579 285.667C245.08 285.517 244.543 285.601 244.11 285.896L240.763 288.178C240.27 288.515 239.973 289.083 239.973 289.692C239.973 290.75 240.848 291.584 241.872 291.503L251.771 290.722C251.771 290.722 267.731 291.653 274.74 287.74C281.749 283.828 290.643 258.178 285.327 256.362Z" fill="#B97964"/>
<path d="M272.569 291.54H215.766C214.909 291.54 214.215 292.235 214.215 293.092C214.215 293.949 214.91 294.644 215.766 294.644H272.569C273.426 294.644 274.121 293.949 274.121 293.092C274.121 292.235 273.426 291.54 272.569 291.54Z" fill="#102130"/>
<path opacity="0.3" d="M272.569 291.54H215.766C214.909 291.54 214.215 292.235 214.215 293.092C214.215 293.949 214.91 294.644 215.766 294.644H272.569C273.426 294.644 274.121 293.949 274.121 293.092C274.121 292.235 273.426 291.54 272.569 291.54Z" fill="white"/>
<path d="M216.609 293.694H236.025C236.531 293.694 236.886 293.194 236.718 292.717L226.07 262.299C225.777 261.461 224.986 260.9 224.098 260.9H204.682C204.176 260.9 203.821 261.4 203.989 261.877L214.636 292.295C214.93 293.133 215.721 293.694 216.609 293.694Z" fill="#102130"/>
<path opacity="0.5" d="M216.609 293.694H236.025C236.531 293.694 236.886 293.194 236.718 292.717L226.07 262.299C225.777 261.461 224.986 260.9 224.098 260.9H204.682C204.176 260.9 203.821 261.4 203.989 261.877L214.636 292.295C214.93 293.133 215.721 293.694 216.609 293.694Z" fill="white"/>
<path d="M215.673 293.694H235.089C235.595 293.694 235.95 293.194 235.783 292.717L225.135 262.299C224.842 261.461 224.051 260.9 223.163 260.9H203.747C203.241 260.9 202.886 261.4 203.054 261.877L213.702 292.295C213.994 293.133 214.785 293.694 215.673 293.694Z" fill="#102130"/>
<path d="M217.842 277.297C218.09 278.463 218.896 279.407 219.643 279.407C220.39 279.407 220.794 278.462 220.546 277.297C220.298 276.132 219.492 275.187 218.745 275.187C217.999 275.187 217.595 276.132 217.842 277.297Z" fill="white"/>
<path opacity="0.2" d="M238.521 294.643C237.664 294.643 236.969 293.948 236.969 293.091C236.969 292.234 237.664 291.539 238.521 291.539H272.569C273.426 291.539 274.121 292.234 274.121 293.091C274.121 293.948 273.426 294.643 272.569 294.643H238.521Z" fill="white"/>
<path d="M407.662 412.037C408.834 412.037 409.767 411.055 409.708 409.884L404.145 301.368H398.266L405.62 410.127C405.691 411.202 406.585 412.037 407.662 412.037Z" fill="#102130"/>
<path opacity="0.5" d="M407.662 412.037C408.834 412.037 409.767 411.055 409.708 409.884L404.145 301.368H398.266L405.62 410.127C405.691 411.202 406.585 412.037 407.662 412.037Z" fill="white"/>
<path opacity="0.2" d="M404.143 301.368H398.264L398.753 308.604H404.514L404.143 301.368Z" fill="black"/>
<path d="M325.474 412.037C324.302 412.037 323.369 411.055 323.428 409.884L328.991 301.368H334.87L327.517 410.127C327.445 411.202 326.552 412.037 325.474 412.037Z" fill="#102130"/>
<path opacity="0.5" d="M325.474 412.037C324.302 412.037 323.369 411.055 323.428 409.884L328.991 301.368H334.87L327.517 410.127C327.445 411.202 326.552 412.037 325.474 412.037Z" fill="white"/>
<path opacity="0.2" d="M328.621 308.604H334.382L334.871 301.368H328.992L328.621 308.604Z" fill="black"/>
<path d="M194.618 412.037C195.79 412.037 196.723 411.055 196.663 409.884L191.1 301.368H185.221L192.574 410.127C192.647 411.202 193.54 412.037 194.618 412.037Z" fill="#102130"/>
<path opacity="0.5" d="M194.618 412.037C195.79 412.037 196.723 411.055 196.663 409.884L191.1 301.368H185.221L192.574 410.127C192.647 411.202 193.54 412.037 194.618 412.037Z" fill="white"/>
<path opacity="0.2" d="M191.1 301.368H185.221L185.71 308.604H191.471L191.1 301.368Z" fill="black"/>
<path d="M112.433 412.037C111.261 412.037 110.328 411.055 110.388 409.884L115.951 301.368H121.83L114.477 410.127C114.404 411.202 113.511 412.037 112.433 412.037Z" fill="#102130"/>
<path opacity="0.5" d="M112.433 412.037C111.261 412.037 110.328 411.055 110.388 409.884L115.951 301.368H121.83L114.477 410.127C114.404 411.202 113.511 412.037 112.433 412.037Z" fill="white"/>
<path opacity="0.2" d="M115.58 308.604H121.341L121.83 301.368H115.951L115.58 308.604Z" fill="black"/>
<path d="M408.867 297.93H110.275V301.368H408.867V297.93Z" fill="#102130"/>
<path opacity="0.3" d="M408.867 297.93H110.275V301.368H408.867V297.93Z" fill="white"/>
<path opacity="0.2" d="M408.869 297.93H323.32V301.368H408.869V297.93Z" fill="black"/>
<path d="M416.557 294.491H102.588V297.929H416.557V294.491Z" fill="#148577"/>
<path opacity="0.3" d="M416.556 294.491H315.631V297.929H416.556V294.491Z" fill="black"/>
<path d="M347.126 294.643H332.211C331.226 294.643 330.428 293.845 330.428 292.86C330.428 291.875 331.226 291.077 332.211 291.077H347.126C348.111 291.077 348.909 291.875 348.909 292.86C348.909 293.845 348.111 294.643 347.126 294.643Z" fill="#148577"/>
<path opacity="0.3" d="M347.126 294.643H332.211C331.226 294.643 330.428 293.845 330.428 292.86C330.428 291.875 331.226 291.077 332.211 291.077H347.126C348.111 291.077 348.909 291.875 348.909 292.86C348.909 293.845 348.111 294.643 347.126 294.643Z" fill="white"/>
<path d="M333.134 294.643H318.219C317.234 294.643 316.436 293.845 316.436 292.86C316.436 291.875 317.234 291.077 318.219 291.077H333.134C334.119 291.077 334.917 291.875 334.917 292.86C334.917 293.845 334.119 294.643 333.134 294.643Z" fill="#148577"/>
<path opacity="0.5" d="M333.134 294.643H318.219C317.234 294.643 316.436 293.845 316.436 292.86C316.436 291.875 317.234 291.077 318.219 291.077H333.134C334.119 291.077 334.917 291.875 334.917 292.86C334.917 293.845 334.119 294.643 333.134 294.643Z" fill="white"/>
<path d="M283.119 240.488H280.251C277.77 240.488 275.935 242.499 276.152 244.98L278.603 272.994C278.82 275.475 281.007 277.486 283.488 277.486H286.356L283.119 240.488Z" fill="#148577"/>
<path d="M283.119 240.488H280.251C277.77 240.488 275.935 242.499 276.152 244.98L278.603 272.994C278.82 275.475 281.007 277.486 283.488 277.486H286.356L283.119 240.488Z" fill="#148577"/>
<path d="M307.393 289.921H303.793L305.361 271.999H308.961L307.393 289.921Z" fill="#102130"/>
<path opacity="0.3" d="M307.393 289.921H303.793L305.361 271.999H308.961L307.393 289.921Z" fill="white"/>
<path d="M332.229 277.487H285.449C282.968 277.487 280.781 275.476 280.564 272.995L278.113 244.981C277.896 242.5 279.731 240.489 282.212 240.489H328.992C331.473 240.489 333.66 242.5 333.877 244.981L336.328 272.995C336.545 275.475 334.71 277.487 332.229 277.487Z" fill="#148577"/>
<path opacity="0.5" d="M332.229 277.487H285.449C282.968 277.487 280.781 275.476 280.564 272.995L278.113 244.981C277.896 242.5 279.731 240.489 282.212 240.489H328.992C331.473 240.489 333.66 242.5 333.877 244.981L336.328 272.995C336.545 275.475 334.71 277.487 332.229 277.487Z" fill="white"/>
<path opacity="0.5" d="M329.149 242.297H282.369C280.889 242.297 279.791 243.501 279.92 244.98L282.371 272.994C282.5 274.473 283.81 275.677 285.289 275.677H332.069C333.549 275.677 334.647 274.474 334.518 272.994L332.067 244.98C331.938 243.501 330.629 242.297 329.149 242.297Z" fill="white"/>
<path d="M296.932 294.643C296.932 289.427 301.16 285.199 306.376 285.199C311.592 285.199 315.82 289.427 315.82 294.643H296.932Z" fill="#148577"/>
<path opacity="0.5" d="M296.932 294.643C296.932 289.427 301.16 285.199 306.376 285.199C311.592 285.199 315.82 289.427 315.82 294.643H296.932Z" fill="white"/>
<path d="M318.604 249.182C318.21 249.182 293.268 249.182 292.874 249.182C292.322 249.182 291.914 249.629 291.963 250.181C292.011 250.733 292.498 251.18 293.049 251.18C293.443 251.18 318.385 251.18 318.779 251.18C319.331 251.18 319.739 250.733 319.691 250.181C319.642 249.629 319.156 249.182 318.604 249.182Z" fill="white"/>
<path d="M315.41 253.37C315.015 253.37 293.634 253.37 293.239 253.37C292.687 253.37 292.279 253.817 292.328 254.369C292.376 254.921 292.863 255.368 293.414 255.368C293.809 255.368 315.19 255.368 315.585 255.368C316.137 255.368 316.545 254.921 316.496 254.369C316.448 253.817 315.962 253.37 315.41 253.37Z" fill="white"/>
<path d="M317.975 257.557C317.581 257.557 294 257.557 293.606 257.557C293.054 257.557 292.646 258.004 292.695 258.556C292.744 259.108 293.23 259.555 293.781 259.555C294.175 259.555 317.756 259.555 318.15 259.555C318.702 259.555 319.11 259.108 319.062 258.556C319.013 258.004 318.527 257.557 317.975 257.557Z" fill="white"/>
<path d="M314.784 261.744C314.389 261.744 294.369 261.744 293.974 261.744C293.422 261.744 293.014 262.191 293.063 262.743C293.111 263.295 293.598 263.742 294.149 263.742C294.543 263.742 314.564 263.742 314.959 263.742C315.511 263.742 315.919 263.295 315.87 262.743C315.821 262.191 315.336 261.744 314.784 261.744Z" fill="white"/>
<g opacity="0.6">
<path d="M318.604 249.182C318.21 249.182 293.268 249.182 292.874 249.182C292.322 249.182 291.914 249.629 291.963 250.181C292.011 250.733 292.498 251.18 293.049 251.18C293.443 251.18 318.385 251.18 318.779 251.18C319.331 251.18 319.739 250.733 319.691 250.181C319.642 249.629 319.156 249.182 318.604 249.182Z" fill="white"/>
<path d="M315.41 253.37C315.015 253.37 293.634 253.37 293.239 253.37C292.687 253.37 292.279 253.817 292.328 254.369C292.376 254.921 292.863 255.368 293.414 255.368C293.809 255.368 315.19 255.368 315.585 255.368C316.137 255.368 316.545 254.921 316.496 254.369C316.448 253.817 315.962 253.37 315.41 253.37Z" fill="white"/>
<path d="M317.975 257.557C317.581 257.557 294 257.557 293.606 257.557C293.054 257.557 292.646 258.004 292.695 258.556C292.744 259.108 293.23 259.555 293.781 259.555C294.175 259.555 317.756 259.555 318.15 259.555C318.702 259.555 319.11 259.108 319.062 258.556C319.013 258.004 318.527 257.557 317.975 257.557Z" fill="white"/>
<path d="M314.784 261.744C314.389 261.744 294.369 261.744 293.974 261.744C293.422 261.744 293.014 262.191 293.063 262.743C293.111 263.295 293.598 263.742 294.149 263.742C294.543 263.742 314.564 263.742 314.959 263.742C315.511 263.742 315.919 263.295 315.87 262.743C315.821 262.191 315.336 261.744 314.784 261.744Z" fill="white"/>
</g>
<path d="M370.836 225.712C370.836 225.712 364.92 226.843 365.023 223.225C365.126 219.607 371.231 221.303 371.231 221.303L370.836 225.712Z" fill="#DB642C"/>
<path opacity="0.4" d="M370.836 225.712C370.836 225.712 364.92 226.843 365.023 223.225C365.126 219.607 371.231 221.303 371.231 221.303L370.836 225.712Z" fill="black"/>
<path d="M367.136 234.354L364.428 238.609C364.428 238.609 365.839 239.65 367.814 238.942L367.136 234.354Z" fill="#A24E3F"/>
<path d="M365.504 233.762C365.498 234.311 365.778 234.761 366.137 234.766C366.497 234.771 366.817 234.306 366.808 233.773C366.799 233.239 366.535 232.774 366.174 232.775C365.814 232.775 365.516 233.214 365.504 233.762Z" fill="#DB642C"/>
<path d="M386.691 230.332C386.933 237.63 387.193 240.72 383.881 244.791C378.64 249.113 369.869 249.622 367.453 242.536C365.275 236.162 365.246 225.324 372.079 221.722C376.95 219.156 382.979 221.026 385.545 225.897C386.266 227.267 386.658 228.785 386.691 230.332Z" fill="#B97964"/>
<path opacity="0.2" d="M376.441 247.899L376.388 247.541C376.271 246.751 375.49 246.241 374.719 246.452L371.752 247.265C373.178 247.864 374.791 248.056 376.441 247.899Z" fill="black"/>
<path d="M367.48 231.274C367.384 231.284 367.289 231.247 367.225 231.175C366.772 230.606 366.074 230.29 365.347 230.325C365.191 230.344 365.048 230.235 365.027 230.079C365.01 229.922 365.121 229.779 365.278 229.757C366.197 229.692 367.089 230.082 367.665 230.801C367.768 230.922 367.754 231.104 367.633 231.207L367.632 231.208C367.587 231.243 367.535 231.266 367.48 231.274Z" fill="#DB642C"/>
<path d="M376.168 246.055L377.768 256.895L386.82 255.021L383.921 243.926L376.168 246.055Z" fill="#B97964"/>
<path d="M372.532 235.549L370.949 236.772C370.949 236.772 369.793 232.44 371.53 228.426L369.705 225.656L369.988 223.791C369.988 223.791 367.162 219.212 369.366 217.855C371.571 216.498 372.984 219.325 372.984 219.325C372.984 219.325 374.51 214.803 377.167 215.425C379.824 216.047 378.467 218.873 378.467 218.873C378.467 218.873 382.763 215.764 384.798 217.29C386.833 218.816 384.289 220.964 384.289 220.964C384.289 220.964 389.433 221.077 389.603 223.112C389.773 225.147 387.511 225.317 387.511 225.317C387.511 225.317 390.903 226.504 390.846 228.313C390.789 230.122 388.132 230.235 388.132 230.235C388.132 230.235 391.582 232.425 390.846 234.355C390.11 236.284 388.188 235.662 388.188 235.662C388.188 235.662 389.978 237.949 389.375 239.189C388.772 240.429 387.264 240.278 387.264 240.278L384.328 245.498C384.328 245.498 381.853 244.54 379.735 246.404L374.451 237.715L372.532 235.549Z" fill="#DB642C"/>
<path d="M371.618 233.583C371.356 235.052 371.69 236.564 372.546 237.786C373.694 239.398 375.522 238.679 376.252 236.958C376.914 235.398 377.101 232.694 375.44 231.685C373.778 230.678 371.958 231.791 371.618 233.583Z" fill="#B97964"/>
<path d="M388.648 253.844L386.86 248.779C386.86 248.779 379.923 245.718 373.02 250.802L378.096 253.845H388.648V253.844Z" fill="#102130"/>
<path opacity="0.2" d="M387.823 251.507C382.615 250.239 378.091 251.347 375.521 252.301L378.096 253.845H388.648L387.823 251.507Z" fill="black"/>
<path d="M356.998 287.193L350.323 283.844C349.939 283.651 349.49 283.632 349.091 283.792L343.624 285.975C343.082 286.192 342.714 286.702 342.681 287.285L342.579 289.059C342.518 290.125 343.557 290.913 344.567 290.567L346.596 289.872C346.596 289.872 350.892 291.983 356.696 290.174L356.998 287.193Z" fill="#B97964"/>
<path d="M331.627 287.579L324.952 284.192C324.568 283.997 324.119 283.978 323.72 284.139L318.253 286.347C317.711 286.566 317.343 287.082 317.31 287.672L317.208 289.467C317.147 290.545 318.186 291.342 319.196 290.993L321.225 290.29C321.225 290.29 325.521 292.424 331.325 290.595L331.627 287.579Z" fill="#B97964"/>
<path d="M392.309 255.747C389.036 258.535 380.862 266.686 370.242 285.795H356.67C356.67 285.795 354.748 287.361 355.539 291.292C355.539 291.292 369.464 296.242 373.242 294.546C377.02 292.85 389.229 274.133 394.72 267.46C396.624 265.146 399.889 262.058 395.17 256.047C394.471 255.156 393.172 255.012 392.309 255.747Z" fill="#102130"/>
<path opacity="0.2" d="M377.152 282.561L373.891 279.487C372.711 281.445 371.494 283.541 370.241 285.795H366.947L369.008 294.767C370.79 294.976 372.319 294.96 373.242 294.546C374.234 294.101 375.81 292.476 377.69 290.21L377.152 282.561Z" fill="black"/>
<path d="M374.688 386.322L377.787 401.339L383.902 400.435L382.432 385.813L374.688 386.322Z" fill="#B97964"/>
<path opacity="0.2" d="M383.4 395.446L382.432 385.813L374.688 386.322L376.625 395.709L383.4 395.446Z" fill="black"/>
<path d="M410.967 317.072C410.967 317.072 414.072 333.353 403.444 333.353C392.816 333.353 378.681 336.828 378.681 336.828C378.681 336.828 382.751 340.693 383.656 389.961L374.837 390.336C374.837 390.336 360.189 334.729 363.079 328.619C367.149 320.013 388.224 317.073 388.224 317.073H410.967V317.072Z" fill="#148577"/>
<path d="M373.873 388.602L384.054 388.3L384.576 393.275L374.516 393.706L373.873 388.602Z" fill="#148577"/>
<path opacity="0.5" d="M373.873 388.602L384.054 388.3L384.576 393.275L374.516 393.706L373.873 388.602Z" fill="white"/>
<path d="M375.035 402.284C374.243 402.379 373.407 402.332 373.104 402.024C372.944 401.841 372.917 401.578 373.037 401.366C373.122 401.178 373.278 401.031 373.47 400.956C374.498 400.536 376.872 401.538 376.977 401.583C377.036 401.608 377.073 401.667 377.069 401.731C377.064 401.794 377.022 401.849 376.962 401.869C376.333 402.064 375.688 402.203 375.035 402.284ZM373.874 401.167C373.776 401.177 373.681 401.201 373.59 401.239C373.467 401.275 373.367 401.366 373.319 401.485C373.23 401.686 373.28 401.772 373.329 401.818C373.674 402.197 375.282 402.014 376.449 401.726C375.633 401.379 374.759 401.189 373.874 401.167Z" fill="#148577"/>
<path d="M376.939 401.87C376.919 401.879 376.896 401.879 376.875 401.872C376.073 401.626 374.377 400.429 374.427 399.696C374.422 399.521 374.526 399.296 374.937 399.204C375.236 399.135 375.551 399.192 375.808 399.361C376.699 399.93 377.075 401.628 377.093 401.706C377.103 401.76 377.084 401.816 377.042 401.851C377.011 401.87 376.974 401.877 376.939 401.87ZM375.072 399.478L374.985 399.481C374.717 399.537 374.712 399.648 374.705 399.688C374.718 400.124 375.851 401.084 376.696 401.456C376.534 400.743 376.157 400.097 375.616 399.605C375.456 399.499 375.263 399.453 375.072 399.478Z" fill="#148577"/>
<path d="M377.505 400.9L384.456 400.066C384.718 400.034 384.967 400.189 385.055 400.437L386.991 405.942C387.166 406.429 386.913 406.966 386.426 407.141C386.363 407.164 386.299 407.179 386.233 407.188C383.722 407.445 381.477 407.575 378.358 407.954C374.676 408.397 375.663 408.725 371.342 409.307C368.738 409.655 367.905 406.747 368.993 406.469C373.978 405.224 374.32 403.633 376.055 401.587C376.438 401.188 376.954 400.944 377.505 400.9Z" fill="#102130"/>
<path opacity="0.1" d="M381.524 330.612H366.035L362.713 331.988C362.796 335.24 363.528 340.252 364.595 346.008L380.208 341.509C379.351 337.464 378.682 336.827 378.682 336.827C378.682 336.827 380.1 336.478 382.372 336.003L381.524 330.612Z" fill="black"/>
<path opacity="0.1" d="M392.039 331.742C392.039 331.742 391.747 332.955 391.713 334.338C395.229 333.828 399.021 333.425 402.506 333.362C406.54 328.515 403.007 324.28 403.007 324.28L396.789 327.106L392.039 331.742Z" fill="black"/>
<path d="M356.797 390.345L362.563 404.345L368.178 403.224L364.316 388.244L356.797 390.345Z" fill="#B97964"/>
<path opacity="0.2" d="M366.893 398.237L364.316 388.244L356.797 390.345L360.546 399.447L366.893 398.237Z" fill="black"/>
<path d="M403.352 317.977C403.352 317.977 406.457 334.258 395.829 334.258C385.201 334.258 353.318 344.064 353.318 344.064C353.318 344.064 358.01 345.79 366.15 391.241L356.936 393.333C356.936 393.333 333.922 343.775 336.811 337.665C340.881 329.059 380.608 317.979 380.608 317.979H403.352V317.977Z" fill="#148577"/>
<path d="M355.805 392.747L366.734 390.411L367.865 394.933L357.388 397.345L355.805 392.747Z" fill="#148577"/>
<path opacity="0.5" d="M355.805 392.747L366.734 390.411L367.865 394.933L357.388 397.345L355.805 392.747Z" fill="white"/>
<path d="M359.092 404.986C358.3 405.081 357.465 405.034 357.161 404.726C357.001 404.543 356.974 404.28 357.094 404.068C357.18 403.88 357.335 403.733 357.527 403.658C358.555 403.238 360.929 404.24 361.034 404.285C361.093 404.31 361.13 404.369 361.126 404.433C361.121 404.496 361.079 404.551 361.019 404.571C360.39 404.765 359.745 404.904 359.092 404.986ZM357.93 403.868C357.832 403.878 357.737 403.902 357.646 403.94C357.523 403.977 357.423 404.067 357.375 404.186C357.285 404.387 357.336 404.473 357.385 404.519C357.73 404.898 359.338 404.715 360.505 404.426C359.69 404.08 358.816 403.89 357.93 403.868Z" fill="#148577"/>
<path d="M360.995 404.572C360.975 404.58 360.953 404.581 360.932 404.574C360.13 404.328 358.434 403.131 358.484 402.398C358.479 402.224 358.582 401.998 358.993 401.906C359.292 401.838 359.607 401.894 359.864 402.063C360.755 402.632 361.131 404.33 361.149 404.408C361.159 404.462 361.14 404.517 361.098 404.553C361.067 404.572 361.03 404.578 360.995 404.572ZM359.128 402.18L359.041 402.183C358.772 402.239 358.768 402.35 358.761 402.39C358.774 402.827 359.907 403.786 360.752 404.158C360.59 403.445 360.213 402.799 359.672 402.307C359.512 402.2 359.318 402.155 359.128 402.18Z" fill="#148577"/>
<path d="M361.562 403.601L368.514 402.767C368.776 402.735 369.025 402.89 369.113 403.139L371.049 408.644C371.224 409.131 370.971 409.668 370.485 409.843C370.422 409.865 370.358 409.881 370.292 409.89C367.781 410.147 365.536 410.277 362.417 410.656C358.735 411.099 359.722 411.427 355.401 412.009C352.797 412.357 351.964 409.449 353.052 409.171C358.037 407.926 358.379 406.335 360.114 404.289C360.495 403.889 361.011 403.645 361.562 403.601Z" fill="#102130"/>
<path d="M365.666 255.158C365.653 253.826 366.733 252.745 368.064 252.771L388.554 253.17C393.549 253.271 398.092 256.029 400.531 260.389C405.276 268.871 411.481 286.222 411.381 318.881H377.351C377.351 318.881 365.871 276.488 365.666 255.158Z" fill="#102130"/>
<path opacity="0.4" d="M366.166 263.402C366.655 268.308 367.464 273.721 368.433 279.188C373.578 268.403 370.818 259.573 370.818 259.573L366.166 263.402Z" fill="black"/>
<path d="M365.741 253.681C363.345 256.473 359.644 262.049 348.403 282.505L331.213 286.164C331.213 286.164 329.291 287.748 330.082 291.724C330.082 291.724 348.529 294.901 352.308 293.185C356.086 291.469 365.738 276.954 370.168 269.45C371.997 266.352 372.974 260.244 367.47 253.702C367.019 253.166 366.197 253.15 365.741 253.681Z" fill="#102130"/>
<path d="M425.589 411.803L400.383 402.521L374.903 411.81C374.023 412.131 373.092 411.479 373.092 410.543C373.092 410.018 373.397 409.541 373.873 409.32L400.383 397.02L426.626 409.319C427.099 409.541 427.402 410.016 427.402 410.539C427.402 411.476 426.469 412.127 425.589 411.803Z" fill="#102130"/>
<path opacity="0.3" d="M425.589 411.803L400.383 402.521L374.903 411.81C374.023 412.131 373.092 411.479 373.092 410.543C373.092 410.018 373.397 409.541 373.873 409.32L400.383 397.02L426.626 409.319C427.099 409.541 427.402 410.016 427.402 410.539C427.402 411.476 426.469 412.127 425.589 411.803Z" fill="white"/>
<path opacity="0.2" d="M394.443 404.687L400.383 402.521L406.051 404.608V399.676L400.383 397.02L394.443 399.776V404.687Z" fill="black"/>
<path d="M400.247 412.018C399.093 412.018 398.128 411.141 398.019 409.992L397.307 402.52V340.503H403.186V402.52L402.474 409.992C402.366 411.141 401.401 412.018 400.247 412.018Z" fill="#102130"/>
<path opacity="0.3" d="M400.247 412.018C399.093 412.018 398.128 411.141 398.019 409.992L397.307 402.52V340.503H403.186V402.52L402.474 409.992C402.366 411.141 401.401 412.018 400.247 412.018Z" fill="white"/>
<path opacity="0.2" d="M403.186 340.504H397.307V347.726H403.186V340.504Z" fill="black"/>
<path d="M441.137 334.859C434.486 333.163 427.651 332.23 420.797 332.058C413.734 331.881 387.296 332.031 381.018 332.029C373.376 332.026 365.733 332.968 358.318 334.859C353.657 336.048 355.094 342.774 359.304 342.852C359.676 342.859 439.597 342.835 439.891 342.848C444.295 343.048 445.901 336.074 441.137 334.859Z" fill="#148577"/>
<path opacity="0.3" d="M441.137 334.859C434.486 333.163 427.651 332.23 420.797 332.058C413.734 331.881 387.296 332.031 381.018 332.029C373.376 332.026 365.733 332.968 358.318 334.859C353.657 336.048 355.094 342.774 359.304 342.852C359.676 342.859 439.597 342.835 439.891 342.848C444.295 343.048 445.901 336.074 441.137 334.859Z" fill="black"/>
<path d="M360.483 342.708C373.908 339.284 388.129 339.284 401.554 342.708C406.632 344.003 408.799 336.154 403.718 334.858C388.889 331.076 373.148 331.076 358.319 334.858C353.246 336.152 355.396 344.006 360.483 342.708Z" fill="#148577"/>
<g opacity="0.3">
<path d="M360.483 342.708C373.908 339.284 388.129 339.284 401.554 342.708C406.632 344.003 408.799 336.154 403.718 334.858C388.889 331.076 373.148 331.076 358.319 334.858C353.246 336.152 355.396 344.006 360.483 342.708Z" fill="white"/>
</g>
<path d="M419.764 276.61C418.923 276.594 418.079 276.97 417.516 277.905C406.748 295.811 402.923 317.336 406.638 337.872C406.871 339.159 407.752 339.759 408.73 339.825C410.36 339.936 439.376 339.833 440.428 339.831C442.01 339.828 443.749 338.483 443.377 336.429C439.925 317.345 443.726 297.243 453.708 280.643C454.948 278.58 453.119 276.644 451.27 276.609C450.429 276.594 421.613 276.646 419.764 276.61Z" fill="#148577"/>
<path opacity="0.2" d="M419.764 276.61C418.923 276.594 418.079 276.97 417.516 277.905C406.748 295.811 402.923 317.336 406.638 337.872C406.871 339.159 407.752 339.759 408.73 339.825C410.36 339.936 439.376 339.833 440.428 339.831C442.01 339.828 443.749 338.483 443.377 336.429C439.925 317.345 443.726 297.243 453.708 280.643C454.948 278.58 453.119 276.644 451.27 276.609C450.429 276.594 421.613 276.646 419.764 276.61Z" fill="black"/>
<path d="M411.871 336.43C408.419 317.346 412.22 297.244 422.202 280.644C424.006 277.643 419.316 274.912 417.516 277.905C406.748 295.811 402.923 317.336 406.638 337.872C407.259 341.304 412.49 339.85 411.871 336.43Z" fill="#148577"/>
<g opacity="0.2">
<path d="M411.871 336.43C408.419 317.346 412.22 297.244 422.202 280.644C424.006 277.643 419.316 274.912 417.516 277.905C406.748 295.811 402.923 317.336 406.638 337.872C407.259 341.304 412.49 339.85 411.871 336.43Z" fill="white"/>
</g>
</svg>
