<svg width="409" height="416" viewBox="0 0 409 416" fill="none" xmlns="http://www.w3.org/2000/svg">
<path d="M136.513 136.404C134.222 132.965 130.705 130.975 125.291 130.975C112.506 130.975 110.276 142.05 109.886 157.189C117.533 148.703 126.421 141.467 136.513 136.404Z" fill="#3FDDC7"/>
<path d="M115.574 165.406C122.291 157.385 129.975 148.809 139.362 143.673C138.817 141.22 138.07 139.041 137.024 137.221C135.223 138.116 133.452 139.078 131.722 140.118C123.516 145.048 116.236 151.312 109.856 158.471C109.802 161.288 109.801 164.233 109.801 167.268C109.801 168.841 109.906 170.387 110.082 171.907C111.921 169.742 113.756 167.577 115.574 165.406Z" fill="#EBD800"/>
<path d="M128.889 152.63C123.216 157.786 118.258 163.669 113.412 169.591C112.375 170.859 111.326 172.117 110.275 173.374C112.859 190.51 125.29 203.562 125.29 203.562C125.29 203.562 140.779 187.313 140.779 167.269C140.779 158.75 140.776 150.92 139.586 144.729C135.731 146.897 132.172 149.645 128.889 152.63Z" fill="#3FDDC7"/>
<path d="M161.907 188.85C147.734 203.023 125.291 203.561 125.291 203.561C125.291 203.561 125.828 181.119 140.002 166.945C154.176 152.771 176.618 152.234 176.618 152.234C176.618 152.234 176.081 174.676 161.907 188.85Z" fill="#6276EF"/>
<path d="M110.58 166.945C124.753 181.118 125.291 203.561 125.291 203.561C125.291 203.561 102.849 203.024 88.6754 188.85C74.5014 174.676 73.9644 152.234 73.9644 152.234C73.9644 152.234 96.4074 152.771 110.58 166.945Z" fill="#6276EF"/>
<path d="M91.7431 209.697H95.5053V223.079H102.649V226.365H91.7431V209.697ZM112.644 209.436C114.31 209.436 115.826 209.809 117.191 210.555C118.557 211.301 119.628 212.333 120.406 213.65C121.2 214.952 121.596 216.404 121.596 218.008C121.596 219.611 121.2 221.071 120.406 222.389C119.628 223.706 118.557 224.746 117.191 225.508C115.826 226.254 114.31 226.627 112.644 226.627C110.977 226.627 109.461 226.254 108.096 225.508C106.73 224.746 105.651 223.714 104.857 222.413C104.079 221.095 103.691 219.627 103.691 218.008C103.691 216.404 104.079 214.952 104.857 213.65C105.651 212.333 106.722 211.301 108.072 210.555C109.437 209.809 110.961 209.436 112.644 209.436ZM112.691 212.721C111.77 212.721 110.913 212.96 110.12 213.436C109.326 213.896 108.699 214.531 108.238 215.341C107.778 216.15 107.548 217.039 107.548 218.008C107.548 218.992 107.778 219.889 108.238 220.698C108.715 221.508 109.342 222.151 110.12 222.627C110.913 223.103 111.77 223.341 112.691 223.341C113.612 223.341 114.453 223.111 115.215 222.651C115.993 222.174 116.604 221.532 117.049 220.722C117.509 219.897 117.739 218.992 117.739 218.008C117.739 217.039 117.509 216.15 117.049 215.341C116.604 214.531 115.993 213.896 115.215 213.436C114.453 212.96 113.612 212.721 112.691 212.721ZM134.837 217.96H138.1V224.437C137.211 225.087 136.147 225.619 134.909 226.032C133.671 226.429 132.48 226.627 131.337 226.627C129.67 226.627 128.162 226.254 126.813 225.508C125.464 224.746 124.4 223.714 123.622 222.413C122.845 221.095 122.456 219.627 122.456 218.008C122.456 216.404 122.853 214.952 123.646 213.65C124.44 212.333 125.527 211.301 126.908 210.555C128.305 209.809 129.853 209.436 131.552 209.436C132.79 209.436 133.996 209.658 135.171 210.102C136.361 210.547 137.385 211.15 138.242 211.912L136.123 214.603C135.504 214.015 134.79 213.555 133.98 213.222C133.171 212.888 132.361 212.721 131.552 212.721C130.583 212.721 129.694 212.96 128.885 213.436C128.091 213.896 127.464 214.531 127.004 215.341C126.543 216.134 126.313 217.023 126.313 218.008C126.313 218.992 126.543 219.897 127.004 220.722C127.48 221.532 128.115 222.174 128.909 222.651C129.718 223.111 130.607 223.341 131.575 223.341C132.067 223.341 132.599 223.262 133.171 223.103C133.742 222.928 134.298 222.698 134.837 222.413V217.96ZM149.151 209.436C150.818 209.436 152.334 209.809 153.699 210.555C155.064 211.301 156.135 212.333 156.913 213.65C157.707 214.952 158.104 216.404 158.104 218.008C158.104 219.611 157.707 221.071 156.913 222.389C156.135 223.706 155.064 224.746 153.699 225.508C152.334 226.254 150.818 226.627 149.151 226.627C147.484 226.627 145.968 226.254 144.603 225.508C143.238 224.746 142.158 223.714 141.365 222.413C140.587 221.095 140.198 219.627 140.198 218.008C140.198 216.404 140.587 214.952 141.365 213.65C142.158 212.333 143.23 211.301 144.579 210.555C145.944 209.809 147.468 209.436 149.151 209.436ZM149.198 212.721C148.278 212.721 147.42 212.96 146.627 213.436C145.833 213.896 145.206 214.531 144.746 215.341C144.285 216.15 144.055 217.039 144.055 218.008C144.055 218.992 144.285 219.889 144.746 220.698C145.222 221.508 145.849 222.151 146.627 222.627C147.42 223.103 148.278 223.341 149.198 223.341C150.119 223.341 150.96 223.111 151.722 222.651C152.5 222.174 153.111 221.532 153.556 220.722C154.016 219.897 154.246 218.992 154.246 218.008C154.246 217.039 154.016 216.15 153.556 215.341C153.111 214.531 152.5 213.896 151.722 213.436C150.96 212.96 150.119 212.721 149.198 212.721Z" fill="#6276EF"/>
<path d="M0.698242 355.682H188.652C188.652 355.682 198.971 326.799 188.652 312.382C173.386 291.053 132.387 296.346 126.163 280.987C119.939 265.628 112.778 247.986 97.2372 247.49C81.6962 246.994 68.8062 295.098 57.7812 301.544C46.7562 307.99 38.3862 293.736 17.5132 306.97C0.96524 317.46 0.698242 355.682 0.698242 355.682Z" fill="url(#paint0_linear_811_4655)"/>
<path d="M216.3 355.682H404.254C404.254 355.682 414.573 326.799 404.254 312.382C388.988 291.053 347.989 296.346 341.765 280.987C335.541 265.628 328.38 247.986 312.839 247.49C297.298 246.994 284.408 295.098 273.383 301.544C262.358 307.99 253.988 293.736 233.115 306.97C216.567 317.46 216.3 355.682 216.3 355.682Z" fill="url(#paint1_linear_811_4655)"/>
<path d="M340.709 415.265H68.5644C35.6574 415.265 8.98145 388.589 8.98145 355.682H400.293C400.292 388.589 373.616 415.265 340.709 415.265Z" fill="url(#paint2_radial_811_4655)"/>
<path d="M391.118 355.743C388.611 344.713 386.203 304.807 368.351 301.276C348.48 297.346 347.996 322.586 331.795 320.68C308.899 317.987 309.227 339.977 301.045 337.749C267.491 328.613 239.516 355.742 239.516 355.742H391.118V355.743Z" fill="#3FDDC7"/>
<path d="M346.823 355.742C346.823 355.742 343.934 334.243 328.925 331.476C313.917 328.709 322.303 295.422 299.472 297.497C276.641 299.572 268.912 345.152 223.204 355.742" stroke="#4D61BC" stroke-miterlimit="10"/>
<path d="M299.053 355.639L311.782 303.946C312.654 300.405 316.018 298.061 319.642 298.47C323.47 298.902 326.294 302.25 326.074 306.096L323.084 355.73L299.053 355.639Z" fill="#4D61BC"/>
<path d="M319.012 303.691L310.317 355.681" stroke="#3FDDC7" stroke-miterlimit="10"/>
<path d="M312.22 314.242C312.22 314.242 312.402 319.699 315.788 322.964" stroke="#3FDDC7" stroke-miterlimit="10"/>
<path d="M322.22 330.051C322.22 330.051 318.798 336.412 313.934 335.87" stroke="#3FDDC7" stroke-miterlimit="10"/>
<path d="M305.585 340.537C305.585 340.537 306.707 345.868 311.575 348.16" stroke="#3FDDC7" stroke-miterlimit="10"/>
<path d="M323.168 307.945C323.168 307.945 321.846 312.818 318.117 311.625" stroke="#3FDDC7" stroke-miterlimit="10"/>
<path d="M357.685 355.685C357.685 355.685 360.253 345.142 368.121 341.438C376.978 337.266 374.81 323.826 384.998 325.538C392.931 326.871 395.272 355.685 395.272 355.685H357.685Z" fill="#4D61BC"/>
<path d="M172.432 355.741H40.4204C40.4204 355.741 45.2954 326.948 74.4134 333.164C84.8194 335.386 81.5154 288.958 110.243 292.338C130.571 294.729 125.37 330.959 140.496 335.143C155.623 339.327 169.287 341.901 172.432 355.741Z" fill="#4D61BC"/>
<path d="M156.518 355.741C156.518 355.741 158.296 336.254 138.635 332.629C118.974 329.004 122.599 289.577 92.6894 292.296C62.7794 295.015 40.5744 347.584 4.77344 355.741" stroke="#3FDDC7" stroke-miterlimit="10"/>
<path d="M113.893 355.756L107.613 307.4C107.183 304.088 104.361 301.609 101.021 301.609C97.4922 301.609 94.5782 304.366 94.3842 307.89L91.7422 355.756H113.893Z" fill="#3FDDC7"/>
<path d="M101.059 306.428L103.696 355.757" stroke="#2D21A7" stroke-miterlimit="10"/>
<path d="M106.158 316.729C106.158 316.729 105.432 321.677 102.015 324.301" stroke="#2D21A7" stroke-miterlimit="10"/>
<path d="M95.4341 330.09C95.4341 330.09 97.8951 336.231 102.378 336.237" stroke="#2D21A7" stroke-miterlimit="10"/>
<path d="M109.498 341.34C109.498 341.34 107.93 346.077 103.264 347.664" stroke="#2D21A7" stroke-miterlimit="10"/>
<path d="M96.8403 309.871C96.8403 309.871 97.5433 314.442 101.059 313.739" stroke="#2D21A7" stroke-miterlimit="10"/>
<path d="M33.3512 355.741C33.3512 355.741 31.4712 335.98 40.7062 335.916C48.0612 335.865 51.7382 350.969 51.7382 350.969C51.7382 350.969 57.6222 346.843 63.2112 349.007C68.7462 351.15 69.3892 355.74 69.3892 355.74H33.3512V355.741Z" fill="#3FDDC7"/>
<path d="M131.128 355.741C131.128 355.741 129.05 333.9 139.257 333.83C147.386 333.774 151.45 350.468 151.45 350.468C151.45 350.468 157.953 345.908 164.131 348.3C170.249 350.668 170.959 355.742 170.959 355.742H131.128V355.741Z" fill="#3FDDC7"/>
<path d="M138.932 338.869L143.809 355.741" stroke="#4D61BC" stroke-miterlimit="10"/>
<path d="M278.09 47.5879V107.421" stroke="#2D21A7" stroke-width="3" stroke-miterlimit="10"/>
<path d="M286.843 53.0781H321.958V61.7086H297.253V71.7226H319.455V80.3531H297.253V90.5648H322.683V99.1953H286.843V53.0781Z" fill="#6276EF"/>
<path d="M370.512 158.311H300.704V228.119H370.512V158.311Z" stroke="#6276EF" stroke-miterlimit="10"/>
<path d="M362.891 165.932H308.326V220.497H362.891V165.932Z" fill="#3FDDC7"/>
<path d="M308.326 220.497H362.891V192.549L338.775 208.481L322.746 199.471L308.326 213.033V220.497Z" fill="#4D61BC"/>
<path d="M338.132 198.621C342.821 198.621 346.622 194.82 346.622 190.131C346.622 185.442 342.821 181.641 338.132 181.641C333.443 181.641 329.642 185.442 329.642 190.131C329.642 194.82 333.443 198.621 338.132 198.621Z" fill="#EBD800"/>
<path d="M144.999 51.3164H121.727V74.5884H144.999V51.3164Z" fill="#EBD800"/>
<path d="M168.271 51.3164H144.999V74.5884H168.271V51.3164Z" fill="#3FDDC7"/>
<path d="M191.543 51.3164H168.271V74.5884H191.543V51.3164Z" fill="#E75526"/>
<path d="M214.815 51.3164H191.543V74.5884H214.815V51.3164Z" fill="#ED8CB1"/>
<path d="M130.112 70.3521C130.112 77.8941 123.998 84.0081 116.456 84.0081C108.914 84.0081 102.8 77.8941 102.8 70.3521C102.8 62.8101 116.456 39.7871 116.456 39.7871C116.456 39.7871 130.112 62.8101 130.112 70.3521Z" fill="#6276EF"/>
<path d="M211.189 137.027C211.026 137.223 208.179 149.934 209.982 151.545C211.785 153.156 216.391 152.18 220.944 151.855L221.779 137.027H211.189Z" fill="#252639"/>
<path d="M210.939 208.107C210.939 208.107 219.13 209.408 225.936 209.408C232.742 209.408 243.454 207.24 243.454 207.24C243.454 207.24 257.173 228.543 266.883 265.009C276.118 299.696 284.21 350.827 280.602 357.736C277.179 364.29 218.27 364.075 231.749 364.289C233.714 364.32 183.177 362.491 184.136 355.756C184.136 355.756 189.945 288.922 195.516 262.171C200.861 236.509 210.939 208.107 210.939 208.107Z" fill="#252639"/>
<path d="M219.068 141.282C219.068 141.282 219.511 148.563 216.644 150.692C213.777 152.821 202.908 159.089 202.908 159.089C202.908 159.089 221.024 161.503 229.116 160.787C237.208 160.071 248.983 157.92 248.983 157.92C248.983 157.92 243.247 154.287 237.034 150.945C230.984 147.691 227.377 118.842 227.377 118.842L219.068 141.282Z" fill="#F09F79"/>
<path d="M272.673 242.436C272.673 242.436 273.647 245.636 274.423 247.487C275.199 249.339 278.186 250.224 280.249 249.152C282.312 248.08 282.367 245.132 280.602 243.288C278.837 241.444 275.498 239.674 275.498 239.674L272.673 242.436Z" fill="#F09F79"/>
<path d="M224.945 125.139C226.361 133.652 225.884 143.145 217.988 148.917L219.145 137.926L224.945 125.139Z" fill="#F09F79"/>
<path d="M222.519 133.432C223.441 138.976 223.13 145.158 217.988 148.917L218.742 141.759L222.519 133.432Z" fill="#EE7557"/>
<path d="M276.904 240.874C276.904 240.874 266.842 205.077 260.361 183.504C256.631 184.714 253.396 185.001 249.848 186.105C257.085 209.024 270.034 239.63 272.988 243.264C273.516 243.913 273.901 244.137 274.655 243.774L276.248 243.006C277.194 242.55 277.43 241.783 276.904 240.874Z" fill="#F09F79"/>
<path d="M148.724 149.838C148.724 149.838 147.355 146.603 146.34 144.755C145.325 142.907 142.108 142.311 140.071 143.657C138.034 145.004 138.302 148.089 140.348 149.82C142.395 151.551 146.077 153.033 146.077 153.033L148.724 149.838Z" fill="#F09F79"/>
<path d="M175.28 171.339L148.417 149.125C147.741 148.482 147.443 148.957 146.741 149.571L145.827 150.582C145.135 151.187 145.008 152.214 145.53 152.97C145.53 152.97 168.203 179.843 170.175 181.131C173.471 183.283 176.242 182.93 179.514 181.91L193.488 175.718C190.996 172.202 189.087 165.571 189.087 165.571L175.28 171.339Z" fill="#F09F79"/>
<path d="M256.08 165.917C253.402 159.852 251.284 155.918 243.968 154.455C243.373 154.336 238.606 159.233 222.254 159.441C211.615 159.576 211.574 153.892 206.738 156.081C204.457 157.113 197.61 159.492 189.607 163.068C188.927 163.372 188.531 164.105 188.68 164.835C189.587 169.277 191.312 173.284 193.653 176.854C194.074 177.495 194.905 177.73 195.612 177.433L207.253 172.555C207.253 172.555 206.745 182.714 206.711 187.681C206.658 195.518 205.519 206.028 210.867 208.101C210.867 208.101 218.788 210.218 225.946 210.218C233.104 210.218 243.454 207.237 243.454 207.237C248.984 206.045 245.505 192.061 245.64 176.79C246.51 180.225 247.413 182.422 248.503 185.698C248.772 186.507 249.624 186.978 250.446 186.751C253.646 185.87 257.376 185.141 260.697 184.194C261.566 183.946 262.066 183.036 261.803 182.171C258.469 171.211 256.967 167.925 256.08 165.917Z" fill="#E75526"/>
<path d="M244.361 206.029L244.108 206.04C244.188 206.052 244.272 206.049 244.361 206.029Z" fill="#6276EF"/>
<path d="M217.132 141.386C222.253 141.654 226.662 137.684 226.93 132.563L227.533 121.047C227.801 115.926 223.831 111.517 218.71 111.249C213.589 110.981 209.181 114.951 208.912 120.072L208.309 131.588C208.041 136.708 212.011 141.117 217.132 141.386Z" fill="#F09F79"/>
<path d="M212.688 118.842C212.688 118.842 220.564 128.173 224.954 128.01C224.954 128.01 225.864 148.815 227.982 150.933C230.099 153.05 243.086 152.18 244.235 149.687C245.385 147.194 243.495 121.606 229.073 113.161C223.242 109.747 207.775 108.121 208.772 122.754C208.772 122.754 211.062 120.946 212.688 118.842Z" fill="#252639"/>
<path d="M212.688 112.727C209.618 114.409 204.671 120.746 208.608 125.896L209.564 120.37L212.688 112.727Z" fill="#252639"/>
<path d="M208.049 192.33C208.049 192.33 220.665 194.834 244.515 191.42" stroke="white" stroke-miterlimit="10" stroke-linecap="round" stroke-linejoin="round"/>
<path d="M208.049 197.472C208.049 197.472 223.25 201.419 244.515 196.379" stroke="white" stroke-miterlimit="10" stroke-linecap="round" stroke-linejoin="round"/>
<path d="M226.62 134.52C227.222 134.52 227.709 134.032 227.709 133.431C227.709 132.829 227.222 132.342 226.62 132.342C226.019 132.342 225.531 132.829 225.531 133.431C225.531 134.032 226.019 134.52 226.62 134.52Z" fill="#EBD800"/>
<path d="M185.707 118.844H64.875V239.676H185.707V118.844Z" stroke="#2D21A7" stroke-miterlimit="10"/>
<path d="M69.3902 234.445H59.8872V243.948H69.3902V234.445Z" fill="#6276EF"/>
<path d="M190.222 234.445H180.719V243.948H190.222V234.445Z" fill="#6276EF"/>
<path d="M69.3902 114.092H59.8872V123.595H69.3902V114.092Z" fill="#6276EF"/>
<path d="M190.222 114.092H180.719V123.595H190.222V114.092Z" fill="#6276EF"/>
<path d="M20.3711 103.202H109.378C109.378 103.202 108.159 84.7519 88.7891 89.9539C88.7891 89.9539 89.1881 78.4899 78.1451 77.1889C69.7801 76.2029 66.0011 86.2939 66.0011 86.2939C66.0011 86.2939 64.8741 66.7219 46.5341 70.6239C36.7921 72.6969 36.7811 88.4179 36.7811 88.4179C36.7811 88.4179 22.2701 91.7379 20.3711 103.202Z" fill="url(#paint3_linear_811_4655)"/>
<path d="M174.247 32.9238H273.094C273.094 32.9238 270.059 19.0508 254.452 19.0508C254.452 19.0508 253.97 1.02483 231.793 0.826828C218.395 0.707828 212.893 16.8138 212.893 16.8138C212.893 16.8138 201.812 11.0938 194.197 13.4508C186.582 15.8078 187.835 25.3558 187.835 25.3558C187.835 25.3558 173.38 23.3868 174.247 32.9238Z" fill="url(#paint4_linear_811_4655)"/>
<path d="M278.693 143.241H373.482C373.482 143.241 367.04 127.136 348.864 134.268C348.864 134.268 350.244 123.225 339.661 121.384C331.192 119.911 328.388 127.366 328.388 127.366C328.388 127.366 320.534 115.236 312.058 119.689C305.614 123.074 305.575 131.672 305.575 131.672C305.575 131.672 281.684 134.038 278.693 143.241Z" fill="url(#paint5_linear_811_4655)"/>
<defs>
<linearGradient id="paint0_linear_811_4655" x1="0.698042" y1="301.584" x2="193.238" y2="301.584" gradientUnits="userSpaceOnUse">
<stop stop-color="white"/>
<stop offset="1" stop-color="#C3CAF4"/>
</linearGradient>
<linearGradient id="paint1_linear_811_4655" x1="216.3" y1="301.584" x2="408.841" y2="301.584" gradientUnits="userSpaceOnUse">
<stop stop-color="white"/>
<stop offset="1" stop-color="#C3CAF4"/>
</linearGradient>
<radialGradient id="paint2_radial_811_4655" cx="0" cy="0" r="1" gradientUnits="userSpaceOnUse" gradientTransform="translate(206.883 353.819) rotate(-1.31354) scale(175.035 40.2246)">
<stop stop-color="#ACCBFF"/>
<stop offset="0.999" stop-color="white"/>
</radialGradient>
<linearGradient id="paint3_linear_811_4655" x1="20.3712" y1="86.6556" x2="109.378" y2="86.6556" gradientUnits="userSpaceOnUse">
<stop stop-color="white"/>
<stop offset="1" stop-color="#C3CAF4"/>
</linearGradient>
<linearGradient id="paint4_linear_811_4655" x1="174.21" y1="16.8753" x2="273.095" y2="16.8753" gradientUnits="userSpaceOnUse">
<stop stop-color="white"/>
<stop offset="1" stop-color="#C3CAF4"/>
</linearGradient>
<linearGradient id="paint5_linear_811_4655" x1="278.693" y1="130.974" x2="373.482" y2="130.974" gradientUnits="userSpaceOnUse">
<stop stop-color="white"/>
<stop offset="1" stop-color="#C3CAF4"/>
</linearGradient>
</defs>
</svg>
