<svg width="500" height="500" viewBox="0 0 500 500" fill="none" xmlns="http://www.w3.org/2000/svg">
<g clip-path="url(#clip0_812_5035)">
<path d="M500 0H0V500H500V0Z" fill="white"/>
<path d="M250.706 448.75C372.902 448.75 471.961 442.482 471.961 434.751C471.961 427.02 372.902 420.752 250.706 420.752C128.51 420.752 29.4509 427.02 29.4509 434.751C29.4509 442.482 128.51 448.75 250.706 448.75Z" fill="#DBE6F7"/>
<path d="M165.174 95.2825C165.174 96.3285 164.748 97.2815 164.054 97.9715C163.368 98.6655 162.415 99.0925 161.369 99.0925H79.9249C77.8329 99.0925 76.1189 97.3785 76.1189 95.2825C76.1189 94.2365 76.5449 93.2835 77.2399 92.5935C77.9249 91.8985 78.8789 91.4725 79.9249 91.4725H83.7739C85.2939 87.9395 88.8049 85.4705 92.8919 85.4705C95.6429 85.4705 98.1299 86.5905 99.9319 88.3965C102.331 84.3275 106.756 81.5945 111.823 81.5945C113.216 81.5945 114.556 81.8055 115.822 82.1875C118.472 77.2045 123.71 73.8125 129.748 73.8125C136.999 73.8125 143.098 78.7075 144.939 85.3695C146.275 84.7015 147.782 84.3195 149.382 84.3195C153.904 84.3195 157.718 87.3385 158.918 91.4735H161.37C163.46 91.4725 165.174 93.1865 165.174 95.2825Z" fill="#DBE6F7"/>
<path d="M477.646 145.892C477.646 146.938 477.22 147.891 476.525 148.581C475.839 149.275 474.886 149.702 473.84 149.702H392.396C390.304 149.702 388.59 147.988 388.59 145.892C388.59 144.846 389.016 143.893 389.711 143.203C390.396 142.509 391.35 142.082 392.396 142.082H396.245C397.765 138.549 401.276 136.079 405.363 136.079C408.114 136.079 410.601 137.199 412.403 139.005C414.802 134.936 419.227 132.203 424.294 132.203C425.687 132.203 427.027 132.414 428.293 132.796C430.943 127.813 436.181 124.42 442.219 124.42C449.47 124.42 455.569 129.315 457.41 135.977C458.746 135.309 460.253 134.927 461.853 134.927C466.375 134.927 470.189 137.946 471.389 142.081H473.841C475.932 142.082 477.646 143.796 477.646 145.892Z" fill="#DBE6F7"/>
<path d="M328.064 104.849C328.064 105.895 327.638 106.849 326.943 107.538C326.257 108.233 325.304 108.659 324.258 108.659H242.814C240.722 108.659 239.009 106.945 239.009 104.849C239.009 103.803 239.435 102.85 240.13 102.16C240.815 101.465 241.769 101.039 242.815 101.039H246.665C248.185 97.506 251.696 95.036 255.783 95.036C258.534 95.036 261.021 96.156 262.823 97.962C265.222 93.893 269.647 91.16 274.714 91.16C276.107 91.16 277.447 91.371 278.713 91.753C281.363 86.77 286.601 83.377 292.639 83.377C299.89 83.377 305.989 88.273 307.83 94.934C309.166 94.266 310.673 93.884 312.273 93.884C316.795 93.884 320.609 96.903 321.809 101.038H324.261C326.35 101.039 328.064 102.753 328.064 104.849Z" fill="#DBE6F7"/>
<path d="M67.3369 194.586C70.6399 205.689 81.7289 205.343 81.4929 214.357C81.2569 223.369 86.9209 230.212 94.7049 228.561C102.492 226.908 108.129 225.257 111.682 234.223C115.232 243.189 126.558 247.671 131.04 240.592C132.157 238.831 133.363 236.922 134.542 235.048C134.864 234.536 135.186 234.027 135.502 233.525C135.576 233.409 135.65 233.293 135.722 233.177C140.468 225.642 138.901 215.657 131.904 210.149C129.071 207.92 125.683 206.667 121.84 207.798C109.807 211.336 114.143 199.234 106.974 194.114C98.7169 188.214 91.6339 194.892 85.9769 189.866C78.1069 182.877 64.0349 183.483 67.3369 194.586Z" fill="#BBD4F2"/>
<path d="M81.6929 199.385L134.542 235.048C134.864 234.536 135.186 234.027 135.502 233.525L82.7009 197.894C82.2889 197.616 81.7289 197.724 81.4519 198.136C81.1729 198.547 81.2809 199.107 81.6929 199.385Z" fill="#A4C8F2"/>
<path d="M328.781 141.103C341.224 135.919 352.051 128.717 346.044 124.402C340.032 120.082 321.636 132.828 313.122 147.843L309.004 152.258C315.4 141.424 317.272 125.771 311.739 122.799C306.241 119.845 305.941 130.377 307.271 140.043C308.284 147.4 307.26 152.449 306.487 154.957L287.039 175.81C297.118 158.624 300.048 133.915 291.293 129.212C282.569 124.525 282.093 141.237 284.203 156.573C285.798 168.163 284.209 176.147 282.986 180.155L279.108 184.313C279.723 185.098 280.343 185.88 280.968 186.658L304.105 161.849C306.874 161.148 310.875 160.572 316.087 160.922C325.822 161.576 336.307 160.543 332.978 155.264C330.089 150.683 318.176 152.251 308.306 157.345L316.307 148.765C319.236 146.534 323.41 143.34 328.781 141.103Z" fill="#DBE6F7"/>
<path d="M81.3169 149.768C80.0159 160.505 89.6419 164.332 86.0879 171.964C82.5349 179.594 84.8399 187.561 92.1209 189.041C99.4039 190.521 104.846 191.203 104.554 200.202C104.26 209.201 112.292 217.251 118.763 212.855C120.375 211.762 122.117 210.575 123.824 209.41C124.29 209.091 124.755 208.775 125.212 208.462C125.319 208.39 125.425 208.318 125.53 208.246C132.396 203.558 134.767 194.424 130.823 187.105C129.226 184.143 126.79 181.809 123.079 181.349C111.458 179.905 119.672 171.152 115.437 164.102C110.56 155.98 102.011 159.064 99.0349 152.656C94.8939 143.745 82.6169 139.031 81.3169 149.768Z" fill="#DBE6F7"/>
<path d="M91.8258 159.217L123.824 209.411C124.29 209.092 124.755 208.776 125.212 208.463L93.2438 158.315C92.9948 157.924 92.4748 157.808 92.0838 158.058C91.6918 158.306 91.5768 158.826 91.8258 159.217Z" fill="#BBD4F2"/>
<path d="M339.229 366.292C335.846 377.665 324.487 377.311 324.729 386.545C324.971 395.776 319.169 402.786 311.195 401.094C303.219 399.401 297.444 397.709 293.805 406.893C290.168 416.077 278.568 420.668 273.976 413.417C272.831 411.613 271.597 409.657 270.388 407.739C270.058 407.215 269.729 406.693 269.405 406.179C269.329 406.06 269.253 405.941 269.18 405.823C264.319 398.105 265.924 387.876 273.091 382.235C275.993 379.952 279.463 378.668 283.399 379.827C295.725 383.452 291.283 371.054 298.626 365.81C307.083 359.767 314.338 366.607 320.134 361.458C328.197 354.298 342.612 354.918 339.229 366.292Z" fill="#BBD4F2"/>
<path d="M324.524 371.208L270.389 407.738C270.059 407.214 269.73 406.692 269.406 406.178L323.491 369.681C323.913 369.396 324.486 369.507 324.771 369.929C325.056 370.35 324.946 370.924 324.524 371.208Z" fill="#A4C8F2"/>
<path d="M319.594 324.298C320.926 335.296 311.067 339.216 314.707 347.034C318.347 354.85 315.985 363.01 308.527 364.526C301.067 366.042 295.492 366.741 295.791 375.959C296.092 385.177 287.864 393.422 281.236 388.92C279.585 387.801 277.8 386.585 276.052 385.391C275.575 385.065 275.098 384.74 274.63 384.42C274.521 384.346 274.412 384.273 274.304 384.199C267.271 379.397 264.842 370.041 268.882 362.544C270.518 359.51 273.013 357.119 276.814 356.648C288.717 355.169 280.303 346.204 284.642 338.982C289.638 330.662 298.394 333.821 301.443 327.258C305.687 318.129 318.262 313.3 319.594 324.298Z" fill="#DBE6F7"/>
<path d="M308.829 333.977L276.053 385.392C275.576 385.066 275.099 384.741 274.631 384.421L307.377 333.053C307.632 332.652 308.165 332.534 308.565 332.789C308.966 333.044 309.085 333.576 308.829 333.977Z" fill="#BBD4F2"/>
<path d="M469.994 293.756C473.008 293.756 475.46 296.208 475.46 299.222C475.46 302.236 473.008 304.688 469.994 304.688C466.98 304.688 464.528 302.236 464.528 299.222C464.528 296.208 466.98 293.756 469.994 293.756ZM469.994 295.47C467.926 295.47 466.243 297.153 466.243 299.221C466.243 301.289 467.926 302.972 469.994 302.972C472.063 302.972 473.745 301.289 473.745 299.221C473.746 297.153 472.063 295.47 469.994 295.47Z" fill="#4F60D9"/>
<path d="M464.434 265.973C467.448 265.973 469.9 268.425 469.9 271.439C469.9 274.453 467.448 276.905 464.434 276.905C461.42 276.905 458.968 274.453 458.968 271.439C458.967 268.426 461.42 265.973 464.434 265.973ZM464.434 267.688C462.365 267.688 460.683 269.371 460.683 271.439C460.683 273.507 462.366 275.19 464.434 275.19C466.503 275.19 468.185 273.507 468.185 271.439C468.185 269.371 466.502 267.688 464.434 267.688Z" fill="#707FFF"/>
<path d="M447.807 258.277C447.807 258.75 448.191 259.134 448.664 259.134H452.445C452.919 259.134 453.302 258.75 453.302 258.277C453.302 257.804 452.918 257.42 452.445 257.42H448.664C448.19 257.419 447.807 257.803 447.807 258.277Z" fill="#1D38C8"/>
<path d="M441.19 258.277C441.19 258.75 441.574 259.134 442.047 259.134H445.828C446.302 259.134 446.685 258.75 446.685 258.277C446.685 257.804 446.301 257.42 445.828 257.42H442.047C441.574 257.419 441.19 257.803 441.19 258.277Z" fill="#1D38C8"/>
<path d="M446.389 252.968V256.365C446.389 256.839 446.773 257.223 447.247 257.223C447.721 257.223 448.104 256.839 448.104 256.365V252.968C448.104 252.495 447.72 252.111 447.247 252.111C446.773 252.111 446.389 252.495 446.389 252.968Z" fill="#1D38C8"/>
<path d="M446.389 260.187V263.584C446.389 264.057 446.773 264.441 447.247 264.441C447.721 264.441 448.104 264.057 448.104 263.584V260.187C448.104 259.713 447.72 259.33 447.247 259.33C446.773 259.329 446.389 259.713 446.389 260.187Z" fill="#1D38C8"/>
<path d="M453.973 287.471C453.973 287.944 454.357 288.328 454.83 288.328H458.611C459.085 288.328 459.468 287.944 459.468 287.471C459.468 286.997 459.084 286.613 458.611 286.613H454.83C454.357 286.613 453.973 286.997 453.973 287.471Z" fill="#707FFF"/>
<path d="M447.356 287.471C447.356 287.944 447.74 288.328 448.214 288.328H451.995C452.469 288.328 452.853 287.944 452.853 287.471C452.853 286.997 452.469 286.613 451.995 286.613H448.214C447.74 286.613 447.356 286.997 447.356 287.471Z" fill="#707FFF"/>
<path d="M452.555 282.164V285.561C452.555 286.034 452.939 286.418 453.412 286.418C453.886 286.418 454.269 286.034 454.269 285.561V282.164C454.269 281.691 453.885 281.307 453.412 281.307C452.939 281.307 452.555 281.691 452.555 282.164Z" fill="#707FFF"/>
<path d="M452.555 289.382V292.779C452.555 293.252 452.939 293.636 453.412 293.636C453.886 293.636 454.269 293.252 454.269 292.779V289.382C454.269 288.909 453.885 288.525 453.412 288.525C452.939 288.525 452.555 288.909 452.555 289.382Z" fill="#707FFF"/>
<path d="M55.618 161.493C55.618 164.507 53.166 166.959 50.152 166.959C47.138 166.959 44.686 164.507 44.686 161.493C44.686 158.479 47.138 156.027 50.152 156.027C53.166 156.027 55.618 158.479 55.618 161.493ZM46.401 161.493C46.401 163.561 48.084 165.244 50.152 165.244C52.221 165.244 53.903 163.561 53.903 161.493C53.903 159.425 52.22 157.742 50.152 157.742C48.084 157.742 46.401 159.424 46.401 161.493Z" fill="#4F60D9"/>
<path d="M61.1791 133.712C61.1791 136.726 58.7271 139.178 55.7131 139.178C52.6991 139.178 50.2471 136.726 50.2471 133.712C50.2471 130.698 52.6991 128.246 55.7131 128.246C58.7271 128.246 61.1791 130.698 61.1791 133.712ZM51.9621 133.712C51.9621 135.78 53.6451 137.463 55.7131 137.463C57.7821 137.463 59.4641 135.78 59.4641 133.712C59.4641 131.644 57.7811 129.961 55.7131 129.961C53.6451 129.96 51.9621 131.643 51.9621 133.712Z" fill="#1D38C8"/>
<path d="M72.34 120.548C72.34 121.021 71.956 121.405 71.483 121.405H67.702C67.229 121.405 66.845 121.021 66.845 120.548C66.845 120.074 67.229 119.691 67.702 119.691H71.483C71.956 119.691 72.34 120.075 72.34 120.548Z" fill="#4F60D9"/>
<path d="M78.9569 120.548C78.9569 121.021 78.5729 121.405 78.0999 121.405H74.3189C73.8449 121.405 73.4619 121.021 73.4619 120.548C73.4619 120.074 73.8459 119.691 74.3189 119.691H78.0999C78.5729 119.691 78.9569 120.075 78.9569 120.548Z" fill="#4F60D9"/>
<path d="M73.7579 115.242V118.639C73.7579 119.113 73.3739 119.497 72.9009 119.497C72.4269 119.497 72.0439 119.113 72.0439 118.639V115.242C72.0439 114.769 72.4279 114.385 72.9009 114.385C73.3739 114.384 73.7579 114.768 73.7579 115.242Z" fill="#4F60D9"/>
<path d="M73.7579 122.461V125.858C73.7579 126.331 73.3739 126.715 72.9009 126.715C72.4269 126.715 72.0439 126.331 72.0439 125.858V122.461C72.0439 121.987 72.4279 121.604 72.9009 121.604C73.3739 121.604 73.7579 121.987 73.7579 122.461Z" fill="#4F60D9"/>
<path d="M66.174 149.744C66.174 150.217 65.79 150.601 65.317 150.601H61.536C61.062 150.601 60.679 150.217 60.679 149.744C60.679 149.27 61.063 148.887 61.536 148.887H65.317C65.79 148.886 66.174 149.27 66.174 149.744Z" fill="#707FFF"/>
<path d="M72.7909 149.744C72.7909 150.217 72.4069 150.601 71.9329 150.601H68.1519C67.6779 150.601 67.2939 150.217 67.2939 149.744C67.2939 149.27 67.6779 148.887 68.1519 148.887H71.9329C72.4069 148.886 72.7909 149.27 72.7909 149.744Z" fill="#707FFF"/>
<path d="M67.5919 144.435V147.832C67.5919 148.305 67.2079 148.689 66.7349 148.689C66.2609 148.689 65.8779 148.305 65.8779 147.832V144.435C65.8779 143.962 66.2619 143.578 66.7349 143.578C67.2079 143.578 67.5919 143.962 67.5919 144.435Z" fill="#707FFF"/>
<path d="M67.5919 151.654V155.051C67.5919 155.524 67.2079 155.908 66.7349 155.908C66.2609 155.908 65.8779 155.524 65.8779 155.051V151.654C65.8779 151.181 66.2619 150.797 66.7349 150.797C67.2079 150.796 67.5919 151.18 67.5919 151.654Z" fill="#707FFF"/>
<path d="M390.185 163.233V177.03C390.185 178.854 391.665 180.333 393.488 180.333H418.54L426.103 183.047C426.88 183.326 427.623 182.562 427.325 181.794L424.464 174.406V163.233C424.464 161.409 422.984 159.93 421.159 159.93H393.488C391.664 159.93 390.185 161.409 390.185 163.233Z" fill="#4F60D9"/>
<g opacity="0.5">
<path d="M411.948 170.523C411.948 171.843 413.018 172.913 414.338 172.913C415.658 172.913 416.728 171.843 416.728 170.523C416.728 169.203 415.658 168.133 414.338 168.133C413.018 168.134 411.948 169.203 411.948 170.523Z" fill="#707FFF"/>
<path d="M404.383 170.523C404.383 171.843 405.453 172.913 406.773 172.913C408.093 172.913 409.163 171.843 409.163 170.523C409.163 169.203 408.093 168.133 406.773 168.133C405.453 168.134 404.383 169.203 404.383 170.523Z" fill="#707FFF"/>
<path d="M396.819 170.523C396.819 171.843 397.889 172.913 399.209 172.913C400.529 172.913 401.599 171.843 401.599 170.523C401.599 169.203 400.529 168.133 399.209 168.133C397.889 168.133 396.819 169.203 396.819 170.523Z" fill="#707FFF"/>
</g>
<path d="M120.373 160.887V418.802C120.373 426.887 126.925 433.439 135.01 433.439H263.446C267.508 433.439 271.18 431.786 273.834 429.117C276.46 426.469 278.083 422.826 278.083 418.802V160.887C278.083 152.802 271.531 146.25 263.446 146.25H135.01C132.62 146.25 130.364 146.822 128.371 147.839C123.622 150.258 120.373 155.192 120.373 160.887Z" fill="#3B3E7D"/>
<path d="M125.826 160.887V418.802C125.826 426.887 132.378 433.439 140.463 433.439H268.899C272.961 433.439 276.633 431.786 279.286 429.117C281.912 426.469 283.536 422.826 283.536 418.802V160.887C283.536 152.802 276.984 146.25 268.899 146.25H140.463C138.073 146.25 135.817 146.822 133.824 147.839C129.075 150.258 125.826 155.192 125.826 160.887Z" fill="#18285D"/>
<path d="M123.051 209.682H121.389C119.299 209.682 117.605 207.988 117.605 205.898V190.173C117.605 188.083 119.299 186.389 121.389 186.389H123.051V209.682Z" fill="#18285D"/>
<path d="M123.051 240.145H121.389C119.299 240.145 117.605 238.451 117.605 236.361V220.636C117.605 218.546 119.299 216.852 121.389 216.852H123.051V240.145Z" fill="#18285D"/>
<path d="M283.536 209.682H284.838C286.476 209.682 287.803 208.354 287.803 206.717V189.354C287.803 187.717 286.476 186.389 284.838 186.389H283.536V209.682Z" fill="#18285D"/>
<path d="M276.232 160.001V419.686C276.232 420.581 276.05 421.433 275.72 422.208C274.735 424.521 272.45 426.133 269.785 426.133H139.577C136.02 426.133 133.13 423.253 133.13 419.685V160.001C133.13 159.641 133.157 159.286 133.217 158.941C133.58 156.748 135.057 154.926 137.044 154.066C137.459 153.891 137.891 153.756 138.342 153.671C138.74 153.591 139.155 153.551 139.577 153.551H269.785C273.345 153.551 276.232 156.441 276.232 160.001Z" fill="white"/>
<path d="M276.232 160.001V173.316H133.13V160.001C133.13 159.641 133.157 159.286 133.217 158.941C133.58 156.748 135.057 154.926 137.044 154.066C137.459 153.891 137.891 153.756 138.342 153.671C138.74 153.591 139.155 153.551 139.577 153.551H269.785C273.345 153.551 276.232 156.441 276.232 160.001Z" fill="#DBE6F7"/>
<path d="M253.639 153.544L246.999 163.647C245.147 166.465 242.001 168.163 238.628 168.163H174.457C171.084 168.163 167.938 166.466 166.086 163.647L159.446 153.544C159.446 152.497 160.302 151.639 161.352 151.639H251.734C252.781 151.639 253.639 152.498 253.639 153.544Z" fill="#18285D"/>
<path opacity="0.3" d="M229.309 160.848H173.598C172.681 160.848 171.93 160.097 171.93 159.18V158.453C171.93 157.536 172.681 156.785 173.598 156.785H229.309C230.226 156.785 230.977 157.536 230.977 158.453V159.18C230.978 160.098 230.227 160.848 229.309 160.848Z" fill="#DBE6F7"/>
<path opacity="0.3" d="M241.756 158.682C241.756 160.028 240.665 161.12 239.318 161.12C237.971 161.12 236.88 160.029 236.88 158.682C236.88 157.336 237.971 156.244 239.318 156.244C240.665 156.244 241.756 157.335 241.756 158.682Z" fill="#DBE6F7"/>
<path d="M145.362 333.261C145.362 334.451 146.326 335.415 147.516 335.415H198.997C200.186 335.415 201.151 334.451 201.151 333.261C201.151 332.072 200.187 331.107 198.997 331.107H147.516C146.326 331.108 145.362 332.072 145.362 333.261Z" fill="#DBE6F7"/>
<path d="M210.66 333.261C210.66 334.451 211.624 335.415 212.814 335.415H264.296C265.485 335.415 266.45 334.451 266.45 333.261C266.45 332.072 265.486 331.107 264.296 331.107H212.814C211.624 331.108 210.66 332.072 210.66 333.261Z" fill="#DBE6F7"/>
<path d="M145.362 345.269C145.362 346.459 146.326 347.423 147.516 347.423H198.997C200.186 347.423 201.151 346.459 201.151 345.269C201.151 344.08 200.187 343.115 198.997 343.115H147.516C146.326 343.116 145.362 344.08 145.362 345.269Z" fill="#DBE6F7"/>
<path d="M210.66 345.269C210.66 346.459 211.624 347.423 212.814 347.423H264.296C265.485 347.423 266.45 346.459 266.45 345.269C266.45 344.08 265.486 343.115 264.296 343.115H212.814C211.624 343.116 210.66 344.08 210.66 345.269Z" fill="#DBE6F7"/>
<path d="M145.362 357.277C145.362 358.466 146.326 359.431 147.516 359.431H198.997C200.186 359.431 201.151 358.467 201.151 357.277C201.151 356.088 200.187 355.123 198.997 355.123H147.516C146.326 355.124 145.362 356.088 145.362 357.277Z" fill="#DBE6F7"/>
<path d="M210.66 357.277C210.66 358.466 211.624 359.431 212.814 359.431H264.296C265.485 359.431 266.45 358.467 266.45 357.277C266.45 356.088 265.486 355.123 264.296 355.123H212.814C211.624 355.124 210.66 356.088 210.66 357.277Z" fill="#DBE6F7"/>
<path d="M145.362 369.285C145.362 370.474 146.326 371.439 147.516 371.439H198.997C200.186 371.439 201.151 370.475 201.151 369.285C201.151 368.096 200.187 367.131 198.997 367.131H147.516C146.326 367.131 145.362 368.096 145.362 369.285Z" fill="#DBE6F7"/>
<path d="M210.66 369.285C210.66 370.474 211.624 371.439 212.814 371.439H264.296C265.485 371.439 266.45 370.475 266.45 369.285C266.45 368.096 265.486 367.131 264.296 367.131H212.814C211.624 367.131 210.66 368.096 210.66 369.285Z" fill="#DBE6F7"/>
<path d="M178.299 397.285H149.04C147.019 397.285 145.382 395.647 145.382 393.627V390.05C145.382 388.029 147.02 386.391 149.04 386.391H178.298C180.319 386.391 181.957 388.029 181.957 390.05V393.627C181.957 395.647 180.319 397.285 178.299 397.285Z" fill="#DBE6F7"/>
<path d="M220.871 397.285H191.613C189.592 397.285 187.954 395.647 187.954 393.627V390.05C187.954 388.029 189.592 386.391 191.613 386.391H220.871C222.892 386.391 224.529 388.029 224.529 390.05V393.627C224.53 395.647 222.892 397.285 220.871 397.285Z" fill="#DBE6F7"/>
<path d="M262.79 397.285H233.531C231.511 397.285 229.873 395.647 229.873 393.627V390.05C229.873 388.029 231.511 386.391 233.531 386.391H262.79C264.81 386.391 266.448 388.029 266.448 390.05V393.627C266.448 395.647 264.81 397.285 262.79 397.285Z" fill="#DBE6F7"/>
<path d="M276.232 212.03V310.091H153.062V212.03H158.726L158.674 211.975L158.736 212.03H276.232Z" fill="#DBE6F7"/>
<path d="M301.89 204.453H159.929V302.515H301.89V204.453Z" fill="#1D38C8"/>
<path d="M307.574 204.453H165.613V302.515H307.574V204.453Z" fill="#4F60D9"/>
<path d="M165.541 204.396L231.274 272.819C234.157 275.82 238.958 275.82 241.841 272.819L307.574 204.396L241.429 263.267C238.652 265.738 234.464 265.738 231.687 263.267L165.541 204.396Z" fill="#1D38C8"/>
<path d="M222.917 255.202L169.725 302.515H165.613V300.015L219.859 251.766L222.917 255.202Z" fill="#1D38C8"/>
<path d="M307.574 300.347V302.515H303.09L249.897 255.202L252.955 251.766L307.574 300.347Z" fill="#1D38C8"/>
<path d="M165.609 204.451L231.911 263.418C234.579 265.791 238.601 265.791 241.269 263.418L307.571 204.451H165.609Z" fill="#707FFF"/>
<g opacity="0.5">
<path d="M234.874 213.633H185.737C184.102 213.633 182.777 212.308 182.777 210.673C182.777 209.038 184.102 207.713 185.737 207.713H234.874C236.509 207.713 237.834 209.038 237.834 210.673C237.834 212.308 236.509 213.633 234.874 213.633Z" fill="#707FFF"/>
</g>
<g opacity="0.5">
<path d="M249.911 213.633H244.938C243.303 213.633 241.978 212.308 241.978 210.673C241.978 209.038 243.303 207.713 244.938 207.713H249.911C251.546 207.713 252.871 209.038 252.871 210.673C252.871 212.308 251.546 213.633 249.911 213.633Z" fill="#707FFF"/>
</g>
<path d="M285.3 212.712H270.322C266.352 212.712 263.134 209.494 263.134 205.524V190.546C263.134 186.577 266.352 183.359 270.321 183.359H285.3C289.27 183.359 292.487 186.577 292.487 190.546V205.524C292.487 209.495 289.269 212.712 285.3 212.712Z" fill="#1D38C8"/>
<path d="M287.895 212.712H272.917C268.947 212.712 265.729 209.494 265.729 205.524V190.546C265.729 186.577 268.947 183.359 272.916 183.359H287.894C291.864 183.359 295.082 186.577 295.082 190.546V205.524C295.082 209.495 291.864 212.712 287.895 212.712Z" fill="#4F60D9"/>
<path d="M335.272 416.815L334.712 426.906L342.899 427.085L343.9 416.484L335.272 416.815Z" fill="#FDA893"/>
<path d="M337.96 425.488C337.96 425.488 342.175 424.533 343.328 424.599C344.481 424.666 351.882 433.601 354.465 434.209C359.149 435.311 358.876 442.68 355.99 442.937C347.643 443.68 333.567 439.632 333.567 439.632C333.567 439.632 332.616 430.127 333.298 427.181C333.978 424.237 335.606 426.273 337.96 425.488Z" fill="#707FFF"/>
<path d="M344.532 433.822C344.382 433.849 344.223 433.817 344.09 433.721C343.833 433.534 343.777 433.174 343.964 432.917C344.026 432.831 345.517 430.804 347.291 430.146C349.651 429.268 351.252 430.726 351.319 430.788C351.552 431.004 351.564 431.369 351.347 431.602C351.131 431.834 350.766 431.847 350.533 431.63C350.49 431.591 349.372 430.603 347.691 431.225C346.246 431.761 344.908 433.576 344.895 433.595C344.804 433.719 344.672 433.796 344.532 433.822Z" fill="#FEFDFF"/>
<path d="M343.007 432.019C342.858 432.046 342.698 432.014 342.565 431.918C342.308 431.731 342.251 431.371 342.439 431.114C342.501 431.028 343.992 429.001 345.766 428.343C348.128 427.465 349.727 428.922 349.794 428.986C350.027 429.202 350.039 429.567 349.822 429.799C349.606 430.032 349.241 430.045 349.008 429.827C348.964 429.788 347.846 428.8 346.166 429.422C344.714 429.961 343.383 431.773 343.37 431.792C343.279 431.916 343.147 431.993 343.007 432.019Z" fill="#FEFDFF"/>
<path d="M346.697 435.388C346.548 435.415 346.388 435.384 346.255 435.287C345.998 435.1 345.941 434.74 346.129 434.482C346.191 434.396 347.682 432.369 349.456 431.711C351.818 430.832 353.417 432.291 353.484 432.353C353.717 432.57 353.729 432.934 353.512 433.167C353.296 433.4 352.931 433.413 352.698 433.195C352.654 433.156 351.536 432.168 349.856 432.79C348.404 433.329 347.073 435.141 347.06 435.159C346.969 435.285 346.838 435.363 346.697 435.388Z" fill="#FEFDFF"/>
<path d="M365.379 293.848C365.379 293.848 365.209 296.218 364.899 300.148C364.819 301.188 364.729 302.338 364.629 303.588C363.569 316.778 361.519 340.628 359.279 357.548C356.139 381.268 346.249 420.248 346.249 420.248L336.039 419.898L335.029 419.858L332.609 419.778C332.609 419.778 334.309 395.118 336.479 373.708C337.909 359.588 338.759 326.178 339.169 305.078C339.379 294.198 339.479 286.588 339.479 286.588L365.379 293.848Z" fill="#3B3E7D"/>
<path d="M365.379 293.848C365.379 293.848 365.209 296.218 364.899 300.148C364.819 301.188 364.729 302.338 364.629 303.588C359.919 304.468 346.969 305.078 339.169 305.078C339.379 294.198 339.479 286.588 339.479 286.588L365.379 293.848Z" fill="#18285D"/>
<path d="M344.98 299.977C344.97 300.787 344.03 377.657 336.04 419.897L335.03 419.857C343.03 377.747 343.97 300.767 343.98 299.967L344.98 299.977Z" fill="#18285D"/>
<path d="M399.303 418.754L398.967 427.857L390.646 427.417L390.458 417.75L399.303 418.754Z" fill="#FDA893"/>
<path d="M396.846 427.439C396.846 427.439 398.659 425.077 400.07 425.2C401.48 425.323 412.246 434.145 415.967 434.915C419.689 435.685 418.923 438.423 418.218 439.817C417.513 441.211 388.455 438.848 388.455 438.848C388.455 438.848 387.784 430.178 388.774 427.544C389.764 424.909 393.918 428.023 396.846 427.439Z" fill="#707FFF"/>
<path d="M402.778 433.572C402.645 433.609 402.498 433.595 402.37 433.519C402.121 433.372 402.039 433.052 402.185 432.803C402.234 432.72 403.403 430.757 404.949 430.007C407.005 429.006 408.579 430.184 408.645 430.234C408.874 430.409 408.918 430.738 408.742 430.967C408.567 431.196 408.239 431.24 408.009 431.064C407.966 431.032 406.87 430.238 405.405 430.948C404.146 431.559 403.096 433.317 403.086 433.335C403.015 433.455 402.903 433.536 402.778 433.572Z" fill="#FEFDFF"/>
<path d="M401.241 432.077C401.109 432.114 400.961 432.1 400.833 432.025C400.584 431.878 400.501 431.558 400.648 431.309C400.697 431.226 401.866 429.263 403.411 428.513C405.469 427.512 407.042 428.689 407.108 428.74C407.337 428.915 407.381 429.244 407.205 429.473C407.03 429.702 406.701 429.746 406.472 429.57C406.429 429.538 405.332 428.743 403.868 429.454C402.603 430.068 401.559 431.823 401.549 431.841C401.478 431.96 401.366 432.041 401.241 432.077Z" fill="#FEFDFF"/>
<path d="M404.872 434.798C404.739 434.836 404.592 434.821 404.464 434.746C404.215 434.599 404.132 434.279 404.279 434.03C404.328 433.947 405.497 431.984 407.043 431.234C409.101 430.233 410.674 431.41 410.74 431.461C410.969 431.636 411.012 431.965 410.837 432.194C410.662 432.423 410.333 432.467 410.104 432.291C410.061 432.259 408.963 431.465 407.5 432.175C406.235 432.789 405.191 434.544 405.181 434.562C405.109 434.681 404.997 434.763 404.872 434.798Z" fill="#FEFDFF"/>
<path d="M400.819 421.129L392.36 420.5L391.352 420.43L389.297 420.276C389.297 420.276 384.101 370.82 382.485 357.646C381.08 346.201 374.52 320.487 370.26 304.487C369.053 299.945 368.03 296.186 367.356 293.757C366.842 291.847 366.538 290.761 366.538 290.761L394.817 288.023C394.817 288.023 394.896 288.644 395.026 289.762C395.301 292.05 395.83 296.434 396.469 301.944C398.235 316.942 400.921 340.282 401.962 352.163C404.631 382.758 400.819 421.129 400.819 421.129Z" fill="#3B3E7D"/>
<path d="M396.469 301.946L370.26 304.488C369.053 299.946 368.03 296.187 367.356 293.758L395.026 289.764C395.301 292.052 395.83 296.436 396.469 301.946Z" fill="#18285D"/>
<path d="M392.359 420.5L391.351 420.43C390.86 405.137 389.359 366.941 386.295 350.749C382.444 330.338 373.589 300.617 373.498 300.317L374.461 300.031C374.552 300.332 383.422 330.104 387.278 350.566C390.362 366.86 391.876 405.238 392.359 420.5Z" fill="#18285D"/>
<path d="M396.221 218.307C396.662 222.162 397.128 225.859 397.538 228.958C398.199 233.956 398.71 237.391 398.71 237.391L402.762 250.445C404.149 254.911 409.2 257.071 413.389 254.993C413.46 254.96 413.534 254.922 413.607 254.886C420.839 251.178 416.328 236.906 416.328 236.906L414.936 236.841C414.322 235.282 412.666 231.307 410.561 226.315C410.306 225.702 410.04 225.071 409.772 224.432C409.324 223.371 408.861 222.275 408.389 221.154C407.718 219.565 407.025 217.926 406.325 216.276C401.169 204.087 395.677 191.188 395.677 191.188C393.715 192.196 394.825 206.036 396.221 218.307Z" fill="#FDA893"/>
<path d="M396.221 218.307C396.662 222.162 397.128 225.86 397.538 228.959C402.903 227.153 406.419 223.675 408.389 221.154C407.718 219.565 407.025 217.927 406.325 216.277L396.221 218.307Z" fill="#FD857D"/>
<path d="M407.523 241.806C407.554 241.809 407.581 241.809 407.612 241.808C407.894 241.801 408.136 241.59 408.172 241.303C409.026 234.441 409.944 229.363 410.563 226.316C410.308 225.704 410.04 225.073 409.773 224.434C409.188 227.121 408.057 232.842 407.02 241.159C406.981 241.475 407.205 241.764 407.523 241.806Z" fill="#FD857D"/>
<path d="M412.196 215.746C412.196 215.746 411.032 217.201 408.975 218.817C406.487 220.784 401.879 223.241 397.269 223.398C396.295 207.019 395.353 191.337 394.057 187.301C396.248 189.87 407.355 204.127 412.196 215.746Z" fill="#707FFF"/>
<path d="M408.584 242.106C408.584 242.106 409.067 225.666 412.456 222.064C415.844 218.462 418.998 217.028 422.285 217.041C425.572 217.054 428.673 217.362 428.515 218.719C428.515 218.719 436.02 217.336 439.451 219.183C442.882 221.029 429.595 223.169 425.638 223.4C421.68 223.63 419.66 225.911 419.575 228.277C419.491 230.643 417.708 246.352 417.708 246.352L408.584 242.106Z" fill="#FDA893"/>
<path d="M400 294.064C377.9 300.264 355.65 300.814 333.22 295.764C332.99 289.404 332.54 268.034 332.43 245.984C332.43 244.824 332.42 243.654 332.42 242.484V240.804C332.41 240.224 332.41 239.634 332.41 239.054C332.41 238.464 332.41 237.884 332.4 237.304C332.41 236.724 332.4 236.144 332.41 235.554C332.4 234.994 332.41 234.434 332.4 233.874C332.4 233.294 332.4 232.704 332.41 232.134C332.41 231.554 332.42 230.964 332.42 230.384C332.42 229.794 332.42 229.214 332.43 228.634C332.43 228.074 332.43 227.514 332.44 226.954C332.44 225.844 332.45 224.724 332.46 223.634V223.464C332.47 222.714 332.47 221.964 332.49 221.224C332.68 204.024 333.27 190.204 334.59 188.284C337.78 183.654 352.72 176.534 357.28 173.164L357.29 173.894C357.29 173.894 360.29 177.654 363.55 177.284C366.51 176.964 368.7 173.464 369.06 172.834C371.41 174.404 376.8 176.894 382.04 179.564C387.27 182.234 392.34 185.064 394.06 187.304C395.52 189.224 396.73 203.854 397.67 221.804V221.854C397.69 222.194 397.7 222.524 397.72 222.864V222.914C397.73 223.164 397.75 223.424 397.76 223.694C397.79 224.224 397.82 224.754 397.84 225.294C397.87 225.844 397.9 226.404 397.92 226.964C397.95 227.544 397.97 228.124 398.01 228.714C398.03 229.294 398.05 229.874 398.09 230.464C398.11 231.034 398.14 231.614 398.16 232.204C398.19 232.754 398.21 233.314 398.23 233.874C398.26 234.464 398.28 235.044 398.31 235.634C398.33 236.204 398.36 236.784 398.38 237.374C398.4 237.954 398.43 238.544 398.45 239.124C398.48 239.674 398.5 240.234 398.52 240.794C398.56 241.964 398.61 243.124 398.65 244.294C399.47 266.264 399.92 287.644 400 294.064Z" fill="#707FFF"/>
<path d="M353.975 189.975C353.752 189.93 353.578 189.74 353.563 189.502C353.545 189.218 353.761 188.972 354.045 188.954C367.1 188.114 371.581 178.261 371.625 178.162C371.74 177.901 372.045 177.782 372.305 177.897C372.566 178.011 372.685 178.315 372.571 178.576C372.524 178.684 371.378 181.26 368.524 183.967C365.897 186.458 361.264 189.524 354.112 189.984C354.064 189.987 354.018 189.984 353.975 189.975Z" fill="#4F60D9"/>
<path d="M398.089 230.462L332.407 232.135C332.411 231.55 332.415 230.966 332.42 230.381C332.424 229.796 332.419 229.212 332.433 228.637L397.924 226.969C397.948 227.543 397.973 228.127 398.007 228.711C398.03 229.295 398.055 229.878 398.089 230.462Z" fill="#4F60D9"/>
<path d="M398.38 237.372L332.411 239.052C332.406 238.468 332.41 237.883 332.405 237.308C332.409 236.723 332.404 236.139 332.408 235.554L398.234 233.877C398.259 234.461 398.283 235.045 398.307 235.629C398.331 236.204 398.355 236.788 398.38 237.372Z" fill="#4F60D9"/>
<path d="M398.652 244.293L332.434 245.98C332.433 244.821 332.423 243.652 332.422 242.483L398.516 240.799C398.564 241.967 398.613 243.125 398.652 244.293Z" fill="#4F60D9"/>
<path d="M390.721 212.667C392.7 215.205 395.644 220.994 396.967 223.67C397.148 224.037 397.297 224.346 397.411 224.58C397.561 224.887 397.644 225.065 397.651 225.078C397.694 225.169 397.759 225.242 397.839 225.292C397.814 224.756 397.787 224.223 397.76 223.692C397.749 223.429 397.733 223.166 397.72 222.907L397.719 222.864C397.448 222.319 397.128 221.678 396.77 220.975C395.269 218.037 393.132 214.079 391.536 212.032C391.361 211.807 391.036 211.768 390.811 211.943C390.585 212.118 390.548 212.444 390.721 212.667Z" fill="#4F60D9"/>
<path d="M379.519 277.248C379.789 277.241 380.01 277.026 380.021 276.753C380.032 276.468 379.811 276.228 379.526 276.216C364.974 275.634 356.121 268.492 351.256 262.605C345.967 256.203 344.104 249.849 344.086 249.786C344.007 249.512 343.722 249.353 343.448 249.432C343.174 249.51 343.015 249.796 343.094 250.07C343.17 250.336 345.02 256.664 350.433 263.229C355.433 269.294 364.532 276.649 379.485 277.248C379.496 277.249 379.508 277.249 379.519 277.248Z" fill="#4F60D9"/>
<path d="M371.484 268.222C371.712 268.216 371.916 268.059 371.972 267.827C372.039 267.55 371.869 267.271 371.592 267.203C358.881 264.112 356.176 253.631 356.15 253.525C356.082 253.248 355.802 253.078 355.526 253.146C355.249 253.213 355.079 253.492 355.147 253.769C355.175 253.884 355.856 256.619 358.198 259.781C360.353 262.69 364.384 266.513 371.348 268.207C371.394 268.218 371.439 268.223 371.484 268.222Z" fill="#4F60D9"/>
<path d="M339.21 210.864C337.29 213.454 334.5 219.314 333.24 222.024C333.07 222.394 332.93 222.714 332.82 222.944C332.68 223.254 332.6 223.434 332.6 223.454C332.57 223.524 332.52 223.584 332.46 223.634V223.464C332.47 222.714 332.47 221.964 332.49 221.224C332.73 220.674 333.04 220.024 333.37 219.324C334.8 216.354 336.84 212.344 338.38 210.254C338.55 210.024 338.87 209.974 339.1 210.144C339.33 210.314 339.38 210.644 339.21 210.864Z" fill="#4F60D9"/>
<path d="M402.801 220.601L447.58 219.46C448.857 219.427 449.866 218.366 449.834 217.088L449.8 215.766C449.767 214.489 448.706 213.48 447.428 213.512L402.649 214.653C401.372 214.686 400.363 215.747 400.395 217.025L400.429 218.347C400.462 219.625 401.524 220.634 402.801 220.601Z" fill="#18285D"/>
<path d="M449.882 219.403L458.283 184.389C458.755 182.422 457.234 180.543 455.212 180.595L434.778 181.115C433.399 181.15 432.212 182.098 431.873 183.435L422.575 220.098L449.882 219.403Z" fill="#3B3E7D"/>
<path d="M431.872 183.434L422.651 219.795L420.316 219.854L429.537 183.493C429.879 182.156 431.063 181.207 432.443 181.171L434.778 181.111C433.399 181.148 432.214 182.097 431.872 183.434Z" fill="#18285D"/>
<g opacity="0.5">
<path d="M437.6 201.938C437.128 204.246 438.604 206.069 440.898 206.01C443.192 205.952 445.434 204.034 445.907 201.726C446.379 199.419 444.903 197.596 442.609 197.654C440.315 197.713 438.073 199.631 437.6 201.938Z" fill="#3B3E7D"/>
</g>
<path d="M348.23 149.347C348.23 149.347 346.872 150.045 346.483 147.38C346.094 144.715 347.173 144.238 346.371 142.975C345.569 141.712 345.013 140.057 346.267 138.87C347.521 137.682 344.866 134.765 346.316 133.252C347.767 131.739 350.166 131.365 351.085 129.672C352.005 127.98 353.445 124.749 357.997 124.698C362.548 124.646 364.099 128.274 366.48 127.25C368.861 126.227 370.616 125.668 373.457 127.586C376.298 129.504 373.412 132.273 376.045 133.554C378.677 134.835 376.709 138.801 379.731 141.035C382.009 142.719 379.855 149.569 375.306 148.658C370.757 147.746 348.23 149.347 348.23 149.347Z" fill="#18285D"/>
<path d="M349.384 150.409C349.384 150.409 346.797 147.137 345.007 149.943C343.217 152.749 346.055 160.829 350.559 158.724L349.384 150.409Z" fill="#FD857D"/>
<path d="M349.5 156.231C349.332 156.235 349.175 156.128 349.122 155.959C348.352 153.462 345.72 152.508 345.694 152.499C345.494 152.428 345.388 152.209 345.459 152.008C345.529 151.807 345.749 151.702 345.949 151.772C346.072 151.815 348.972 152.856 349.859 155.732C349.922 155.935 349.808 156.151 349.604 156.213C349.57 156.225 349.535 156.23 349.5 156.231Z" fill="#F05B56"/>
<path d="M346.838 155.031C346.766 155.033 346.694 155.015 346.628 154.975C346.446 154.864 346.389 154.628 346.499 154.446C346.517 154.416 346.96 153.701 347.914 153.245C348.105 153.153 348.336 153.234 348.427 153.426C348.519 153.618 348.438 153.847 348.246 153.939C347.509 154.292 347.16 154.841 347.157 154.846C347.086 154.963 346.964 155.028 346.838 155.031Z" fill="#F05B56"/>
<path d="M375.168 149.752C375.168 149.752 377.585 146.352 379.516 149.063C381.447 151.774 379.024 159.988 374.419 158.116L375.168 149.752Z" fill="#FD857D"/>
<path d="M375.348 155.572C375.516 155.568 375.668 155.453 375.711 155.282C376.353 152.749 378.933 151.663 378.959 151.652C379.156 151.571 379.25 151.346 379.169 151.15C379.089 150.953 378.864 150.859 378.668 150.939C378.547 150.988 375.704 152.176 374.965 155.093C374.913 155.299 375.038 155.508 375.244 155.561C375.279 155.569 375.314 155.573 375.348 155.572Z" fill="#F05B56"/>
<path d="M377.946 154.238C378.018 154.236 378.089 154.215 378.152 154.171C378.328 154.051 378.373 153.812 378.254 153.636C378.234 153.607 377.755 152.915 376.78 152.508C376.585 152.426 376.358 152.519 376.277 152.715C376.195 152.911 376.288 153.137 376.484 153.218C377.238 153.533 377.615 154.063 377.618 154.068C377.694 154.182 377.82 154.241 377.946 154.238Z" fill="#F05B56"/>
<path d="M368.823 165.172L369.029 173.274C369.029 173.274 366.718 177.462 363.457 177.826C360.2 178.194 357.201 174.43 357.201 174.43L356.987 166.043L368.823 165.172Z" fill="#FDA893"/>
<path d="M368.823 165.172L368.915 168.767C366.784 171.256 362.906 171.963 357.122 171.259L356.989 166.044L368.823 165.172Z" fill="#FD857D"/>
<path d="M376.835 144.149C376.765 147.301 376.565 151.246 376.045 154.41C375.915 155.199 375.764 155.942 375.593 156.609C374.04 162.622 370.036 172.969 357.988 169.009C352.667 167.261 350.073 161.45 348.832 155.504C347.99 151.466 347.774 147.37 347.753 144.439C347.735 141.447 349.297 138.673 351.861 137.132C358.807 132.957 366.281 134.257 371.225 136.015C374.656 137.233 376.916 140.515 376.835 144.149Z" fill="#FDA893"/>
<path d="M357.553 151.258C357.575 152.123 357.147 152.835 356.597 152.849C356.047 152.863 355.584 152.173 355.562 151.308C355.54 150.443 355.968 149.731 356.518 149.717C357.067 149.703 357.531 150.393 357.553 151.258Z" fill="#18285D"/>
<path d="M369.513 150.953C369.535 151.818 369.107 152.53 368.557 152.544C368.007 152.558 367.544 151.868 367.522 151.003C367.5 150.138 367.928 149.426 368.478 149.412C369.027 149.398 369.491 150.088 369.513 150.953Z" fill="#18285D"/>
<path d="M371.875 145.733C371.875 145.733 367.72 144.212 364.587 145.661L364.949 147.415C364.949 147.415 369.588 146.903 371.955 147.793C372.147 147.109 372.16 146.423 371.875 145.733Z" fill="#18285D"/>
<path d="M352.314 146.24C352.314 146.24 356.417 144.497 359.643 145.794L359.369 147.577C359.369 147.577 354.675 147.3 352.34 148.316C352.111 147.639 352.063 146.949 352.314 146.24Z" fill="#18285D"/>
<path d="M362.918 157.504C362.275 157.593 361.602 157.432 361.497 157.405C361.291 157.352 361.167 157.143 361.22 156.937C361.272 156.731 361.482 156.606 361.688 156.659C362.052 156.751 362.909 156.856 363.238 156.591C363.301 156.54 363.384 156.445 363.376 156.21C363.329 154.859 362.345 150.446 362.335 150.401C362.289 150.194 362.419 149.988 362.627 149.941C362.835 149.894 363.04 150.025 363.087 150.233C363.128 150.417 364.096 154.761 364.146 156.183C364.165 156.718 363.925 157.027 363.721 157.191C363.496 157.371 363.21 157.464 362.918 157.504Z" fill="#FD857D"/>
<path d="M357.4 159.785C357.755 161.36 358.875 164.245 362.397 164.155C365.928 164.065 366.85 161.379 367.144 159.537L357.4 159.785Z" fill="white"/>
<path d="M362.41 166.541C363.406 166.516 364.238 165.99 364.273 165.967C364.452 165.852 364.504 165.614 364.389 165.435C364.274 165.256 364.036 165.204 363.857 165.318C363.851 165.322 363.166 165.751 362.39 165.77C361.678 165.788 360.986 165.397 360.979 165.393C360.795 165.286 360.56 165.348 360.453 165.532C360.346 165.716 360.408 165.951 360.592 166.058C360.627 166.08 361.47 166.565 362.41 166.541Z" fill="#FD857D"/>
<path d="M376.835 144.149C376.765 147.301 376.565 151.246 376.045 154.41L374.321 154.332C374.321 154.332 374.67 151.663 374.818 149.926C374.966 148.189 375.211 144.943 373.723 144.577C372.239 144.214 373.01 140.499 370.917 138.95C368.825 137.397 364.231 136.101 361.254 138.041C358.276 139.977 354.809 139.037 353.424 139.396C352.035 139.751 350.19 141.724 350.748 143.508C351.309 145.289 349.798 146.421 349.472 148.289C349.146 150.157 350.467 155.131 350.467 155.131L348.832 155.504C347.99 151.466 347.774 147.37 347.753 144.439C347.735 141.447 349.297 138.673 351.861 137.132C358.807 132.957 366.281 134.257 371.225 136.015C374.656 137.233 376.916 140.515 376.835 144.149Z" fill="#18285D"/>
<path d="M335.536 285.447L331.426 291.057C331.426 291.057 329.046 289.567 325.816 286.977C325.806 286.967 325.806 286.967 325.796 286.957C320.876 283.027 314.902 275.729 311.166 268.222C305.333 256.5 307.976 248.091 307.976 248.091C308.556 242.451 311.716 234.637 314.726 226.127C315.826 223.037 316.826 220.347 317.526 218.457L326.716 220.567L330.646 222.987L329.136 226.977C326.536 235.59 323.596 244.06 319.661 252.113C320.551 260.003 323.886 269.527 327.736 275.367C331.716 281.427 335.536 285.447 335.536 285.447Z" fill="#FDA893"/>
<path d="M335.536 285.445L331.426 291.055C331.426 291.055 329.046 289.565 325.816 286.975C325.806 286.965 325.806 286.965 325.796 286.955C325.086 282.715 325.516 276.725 327.736 275.365C331.716 281.425 335.536 285.445 335.536 285.445Z" fill="#FD857D"/>
<path d="M333.341 278.973C334.168 279.027 338.578 279.246 338.101 277.737C337.575 276.073 333.247 274.124 333.247 274.124C333.247 274.124 333.222 274.039 333.264 273.927L333.217 273.571L333.026 269.994C332.19 270 331.422 270.163 331.006 270.292C329.109 270.879 329.369 275.218 329.369 275.218C329.369 275.218 326.977 276.073 327.064 277.824C327.152 279.576 329.079 279.839 329.079 279.839C329.079 279.839 326.447 281.153 327.062 282.642C327.677 284.131 329.672 284.569 329.672 284.569C329.672 284.569 327.414 286.058 328.203 287.109C328.991 288.16 330.831 288.686 330.831 288.686C330.831 288.686 329.256 290.818 330.857 291.98C332.457 293.142 334.811 292.89 336.325 292.364C337.839 291.838 337.576 289.911 334.598 288.51C334.598 288.51 337.226 288.773 338.539 286.583C339.635 284.757 336.84 283.968 334.456 283.654C336.329 283.78 339.561 283.727 340.116 281.94C340.843 279.598 334.354 279.045 333.341 278.973Z" fill="#FDA893"/>
<path d="M330.646 222.987L329.136 226.977C326.086 227.167 320.626 227.257 314.726 226.127C315.826 223.037 316.826 220.347 317.526 218.457L326.716 220.567L330.646 222.987Z" fill="#FD857D"/>
<path d="M334.586 188.287C334.586 188.287 320.724 201.767 312.557 221.34C318.958 223.41 325.018 224.875 330.644 225.575C331.309 223.758 334.809 216.236 337.907 210.926L334.586 188.287Z" fill="#707FFF"/>
<path d="M222.482 82.3383L222.497 82.2953C222.729 81.7823 222.941 81.2623 223.131 80.7433C225.924 73.1213 226.199 57.4763 208.83 53.7753C208.83 53.7753 194.515 50.4313 188.148 63.3133C188.148 63.3133 185.281 69.2813 183.244 73.6163C183.244 73.6163 181.535 82.7253 172.94 83.5293C164.345 84.3333 159.552 87.6333 160.378 93.9993C161.204 100.365 159.882 99.3523 153.932 104.735C147.982 110.118 143.831 120.185 148.964 126.811C154.097 133.437 173.302 117.76 185.6 124.765C197.898 131.77 218.549 129.722 220.95 119.754C223.351 109.787 213.732 103.218 214.244 98.1553C214.757 93.0933 220.923 87.1823 222.482 82.3383Z" fill="#29245D"/>
<path d="M227.152 146.24L214.882 146.25L208.952 134.72L208.282 133.4L205.752 128.49C205.752 128.49 206.26 107.59 211.62 104.74L227.152 146.24Z" fill="#707FFF"/>
<path d="M208.952 134.719L208.282 133.399C209.462 131.009 211.502 125.509 209.882 118.429C209.812 118.099 210.012 117.779 210.332 117.709C210.652 117.639 210.982 117.839 211.052 118.159C212.972 126.559 210.092 132.729 208.952 134.719Z" fill="#4F60D9"/>
<path d="M230.164 144.788C230.164 144.788 231.221 149.345 233.022 150.6C234.823 151.855 234.368 145.483 234.368 145.483C234.368 145.483 234.974 153.173 236.838 153.379C238.702 153.585 238.327 146.098 238.327 146.098C238.327 146.098 239.531 151.246 240.943 151.546C242.356 151.847 242.306 146.363 242.306 146.363C242.306 146.363 243.674 150.346 244.719 150.692C245.765 151.038 246.271 146.411 245.684 144.054C245.096 141.697 242.162 143.128 242.162 143.128C242.162 143.128 239.389 142.327 238.427 143.282C238.427 143.282 235.941 142.202 234.549 142.901C234.549 142.903 230.489 141.731 230.164 144.788Z" fill="#FDA893"/>
<path d="M209.51 114.74C209.98 118.77 211.26 122.84 209.55 129.25C209.01 131.28 208.17 132.9 206.59 135.68V135.69C206.58 135.69 206.58 135.69 206.58 135.69C206.51 135.85 206.42 136 206.32 136.16C206.29 136.45 206.25 136.73 206.22 137.01C205.19 144.15 205.46 140.36 205.58 146.25H168.62L168.89 131.62L168.95 128.5L169.48 99.7795L181.15 98.7495H181.16L183.17 98.5695L183.29 98.5496L186.43 98.2795C186.71 98.2495 186.98 98.2295 187.26 98.2095C191.49 97.9495 195.73 98.6095 199.7 100.14L199.83 100.19L201.58 100.86V100.87L201.69 100.91L203.4 101.57L211.62 104.74C211.2 106.59 209.89 112.88 209.51 114.74Z" fill="#707FFF"/>
<path d="M173.55 120.989L168.89 131.619L168.95 128.499L172.45 120.509C172.58 120.209 172.94 120.069 173.24 120.199C173.54 120.329 173.68 120.689 173.55 120.989Z" fill="#4F60D9"/>
<path d="M181.155 98.7439C184.967 106.426 194.3 115.01 199.082 112.361C202.024 110.735 203.226 105.393 203.399 101.565L201.685 100.907L201.581 100.868V100.865L199.832 100.191L199.698 100.139C195.733 98.6109 191.492 97.9529 187.26 98.2139C187.116 98.2339 186.97 98.2529 186.826 98.2729C186.693 98.2889 186.562 98.3059 186.432 98.3219L183.288 98.5569L183.167 98.5669L181.155 98.7439Z" fill="#FDA893"/>
<path d="M206.325 136.164C206.29 136.448 206.251 136.73 206.221 137.011C204.196 137.443 197.84 138.336 187.035 135.749C185.634 135.413 184.157 135.019 182.606 134.556C182.287 134.463 182.108 134.128 182.201 133.809C182.297 133.495 182.633 133.312 182.947 133.408C198.534 138.038 206.491 135.714 206.571 135.692C206.58 135.69 206.585 135.687 206.593 135.685C206.505 135.84 206.418 136 206.325 136.164Z" fill="#4F60D9"/>
<path d="M216.538 81.2091C216.538 81.2091 219.977 79.0551 220.852 82.1641C221.727 85.2741 216.62 91.7111 212.948 88.3821L216.538 81.2091Z" fill="#FD857D"/>
<path d="M215.06 88.5627C214.905 88.9977 215.131 89.4757 215.566 89.6317C216.001 89.7867 216.479 89.5607 216.635 89.1257C216.79 88.6907 216.564 88.2117 216.129 88.0567C215.694 87.9017 215.215 88.1277 215.06 88.5627Z" fill="white"/>
<path d="M214.699 86.4543C214.858 86.5113 215.04 86.4633 215.14 86.3263C216.616 84.3033 219.41 84.2673 219.438 84.2673C219.65 84.2663 219.816 84.1003 219.808 83.8963C219.801 83.6923 219.623 83.5273 219.411 83.5273C219.281 83.5273 216.205 83.5593 214.505 85.8893C214.385 86.0543 214.43 86.2853 214.605 86.4063C214.634 86.4263 214.666 86.4423 214.699 86.4543Z" fill="#F05B56"/>
<path d="M217.595 86.2059C217.663 86.2299 217.737 86.2369 217.812 86.2209C218.018 86.1779 218.143 85.9809 218.092 85.7809C218.084 85.7479 217.873 84.9589 217.099 84.2459C216.944 84.1019 216.7 84.1029 216.555 84.2489C216.41 84.3939 216.42 84.6279 216.575 84.7719C217.173 85.3239 217.343 85.9319 217.345 85.9379C217.378 86.0649 217.475 86.1629 217.595 86.2059Z" fill="#F05B56"/>
<path d="M192.812 90.0156L189.602 99.0036C189.602 99.0036 192.628 103.719 195.787 105.164C198.941 106.611 201.439 103.171 201.439 103.171L204.427 94.8056L192.812 90.0156Z" fill="#FDA893"/>
<path d="M192.497 90.8965L191.216 94.4815C192.536 97.6895 196.111 99.9355 202.161 101.14L204.111 95.6855L192.497 90.8965Z" fill="#FD857D"/>
<path d="M216.741 85.1347C216.327 85.9657 215.889 86.8047 215.419 87.6287C212.299 93.1037 206.347 98.0967 201.301 97.4887C190.404 96.1757 189.047 86.7637 189.521 80.3477C189.575 79.6347 190.174 79.0117 190.307 78.1927C190.623 76.2537 190.626 73.9227 191.188 71.8247C191.578 70.3707 191.994 68.9477 192.384 67.6667C193.489 64.0567 196.712 61.5277 200.383 61.4007C205.675 61.2127 213.232 62.2667 218.501 68.5567C220.447 70.8797 221.037 74.1047 220.047 77.0497C219.29 79.2987 218.19 82.2017 216.741 85.1347Z" fill="#FDA893"/>
<path d="M202.825 85.2633C202.637 85.1963 202.52 85.0013 202.556 84.7993C202.597 84.5733 202.812 84.4223 203.038 84.4633L204.463 84.7173L204.373 79.1223C204.369 78.8933 204.552 78.7033 204.782 78.6993C205.011 78.6963 205.201 78.8783 205.204 79.1083L205.31 85.7123L202.891 85.2803C202.869 85.2773 202.846 85.2713 202.825 85.2633Z" fill="#FD857D"/>
<path d="M216.376 73.9026C219.674 77.1076 216.751 81.3406 217.243 84.1646C217.274 84.3476 217.355 84.4076 217.477 84.3626C218.967 81.3776 220.09 78.4196 220.86 76.1266C221.867 73.1226 221.211 69.8176 219.142 67.4186C213.54 60.9246 205.591 59.7626 200.035 59.8966C196.181 59.9856 192.824 62.5376 191.703 66.2196C191.307 67.5256 190.886 68.9776 190.492 70.4606C191.007 71.0836 192.541 71.8316 192.232 72.9066C191.416 75.7496 190.872 77.7006 191.512 77.7426C192.591 77.8106 194.402 74.6606 194.06 72.0836C194.06 72.0836 195.484 70.9396 199.66 70.8356C205.017 70.7026 210.509 69.6356 210.509 69.6356C210.509 69.6356 212.681 69.1976 213.787 68.2686C213.789 68.2696 213.864 71.4616 216.376 73.9026Z" fill="#29245D"/>
<path d="M209.995 80.6645C209.687 81.5275 209.882 82.3855 210.43 82.5815C210.978 82.7775 211.673 82.2365 211.981 81.3745C212.289 80.5125 212.094 79.6545 211.546 79.4585C210.997 79.2615 210.303 79.8025 209.995 80.6645Z" fill="#29245D"/>
<path d="M198.681 76.6151C198.373 77.4781 198.568 78.3361 199.116 78.5321C199.664 78.7281 200.359 78.1871 200.667 77.3251C200.975 76.4621 200.78 75.6041 200.232 75.4091C199.684 75.2141 198.989 75.7521 198.681 76.6151Z" fill="#29245D"/>
<path d="M214.872 77.2064C214.129 76.7654 212.607 75.9324 210.866 75.3784C210.408 75.2324 209.924 75.4444 209.857 75.8264L209.855 75.8364C209.802 76.1414 210.041 76.4454 210.412 76.5474C211.616 76.8774 214.674 77.9914 215.949 78.9254C216.062 78.7334 216.003 78.4644 215.87 78.2004C215.67 77.8004 215.306 77.4634 214.872 77.2064Z" fill="#29245D"/>
<path d="M198.843 71.6924C199.699 71.8104 201.409 72.1064 203.116 72.7584C203.565 72.9294 203.812 73.3964 203.626 73.7374L203.621 73.7454C203.472 74.0174 203.096 74.1054 202.742 73.9544C201.595 73.4634 198.509 72.4294 196.929 72.3664C196.96 72.1454 197.174 71.9724 197.443 71.8484C197.849 71.6604 198.343 71.6234 198.843 71.6924Z" fill="#29245D"/>
<path d="M206.333 89.1446C205.553 90.4136 203.686 92.5946 200.437 91.4336C197.18 90.2706 197.091 87.6356 197.345 85.9336L206.333 89.1446Z" fill="white"/>
<path d="M199.64 93.8096C200.578 94.1446 201.586 93.9356 201.629 93.9266C201.849 93.8796 201.989 93.6626 201.942 93.4426C201.895 93.2226 201.679 93.0826 201.459 93.1286C201.451 93.1306 200.629 93.2976 199.914 93.0416C199.14 92.7656 198.593 92.1076 198.588 92.1006C198.445 91.9266 198.189 91.9006 198.014 92.0436C197.84 92.1856 197.814 92.4416 197.956 92.6156C197.984 92.6506 198.647 93.4546 199.64 93.8096Z" fill="#FD857D"/>
<path d="M192.268 72.513C192.268 72.513 190.708 68.189 188.223 70.017C185.738 71.845 185.494 79.78 190.091 79.465L192.268 72.513Z" fill="#FDA893"/>
<path d="M187.534 78.731C187.379 79.166 187.605 79.644 188.04 79.8C188.475 79.955 188.954 79.729 189.109 79.294C189.264 78.859 189.038 78.38 188.603 78.225C188.167 78.069 187.689 78.296 187.534 78.731Z" fill="white"/>
<path d="M190.008 76.9566C189.861 76.9046 189.761 76.7586 189.772 76.5956C189.94 74.1786 187.983 72.4756 187.963 72.4586C187.814 72.3306 187.796 72.1056 187.923 71.9556C188.051 71.8056 188.276 71.7876 188.426 71.9146C188.518 71.9926 190.678 73.8616 190.485 76.6446C190.471 76.8416 190.301 76.9896 190.104 76.9756C190.07 76.9736 190.038 76.9666 190.008 76.9566Z" fill="#FD857D"/>
<path d="M188.106 75.0299C188.044 75.0079 187.987 74.9679 187.943 74.9119C187.823 74.7559 187.852 74.5319 188.008 74.4109C188.034 74.3909 188.656 73.9209 189.633 73.8449C189.829 73.8289 190.001 73.9769 190.016 74.1729C190.031 74.3689 189.884 74.5409 189.688 74.5569C188.933 74.6159 188.448 74.9739 188.443 74.9779C188.344 75.0529 188.217 75.0689 188.106 75.0299Z" fill="#FD857D"/>
<path d="M204.372 77.2909C204.456 77.0579 204.485 76.8159 204.465 76.5819C204.415 75.9399 204.006 75.3549 203.365 75.1099L197.706 72.9459C197.261 72.7759 196.791 72.8029 196.388 72.9829C196.167 73.0819 195.969 73.2259 195.806 73.4109C195.669 73.5629 195.558 73.7399 195.481 73.9399L195.204 74.6629C194.735 75.8889 194.768 77.2429 195.294 78.3829C195.82 79.5149 196.613 80.3029 197.655 80.7269L197.804 80.7839C199.015 81.2469 200.333 81.2129 201.522 80.6859C202.729 80.1519 203.652 79.1789 204.123 77.9459L204.357 77.3339C204.363 77.3209 204.369 77.3049 204.372 77.2909ZM203.457 77.6909C203.054 78.7459 202.264 79.5759 201.235 80.0319C200.218 80.4819 199.093 80.5109 198.06 80.1159L197.924 80.0639C197.057 79.7099 196.391 79.0439 195.945 78.0829C195.498 77.1189 195.472 75.9639 195.872 74.9179L196.149 74.1949C196.348 73.6739 196.93 73.4149 197.45 73.6139L203.109 75.7779C203.627 75.9759 203.89 76.5589 203.69 77.0789L203.457 77.6909Z" fill="white"/>
<path d="M216.46 81.4677C216.486 81.2247 216.455 80.9807 216.379 80.7527C216.218 80.2857 215.86 79.8887 215.364 79.6987L209.703 77.5337C209.047 77.2827 208.331 77.4607 207.864 77.9327C207.707 78.0897 207.578 78.2797 207.493 78.4967C207.486 78.5067 207.483 78.5157 207.479 78.5267L207.202 79.2497C206.733 80.4757 206.768 81.8307 207.294 82.9707C207.818 84.1017 208.613 84.8907 209.653 85.3137L209.804 85.3717C211.015 85.8347 212.333 85.8007 213.522 85.2737C214.726 84.7397 215.652 83.7667 216.123 82.5337L216.357 81.9217C216.414 81.7747 216.449 81.6217 216.46 81.4677ZM215.455 82.2807C215.052 83.3357 214.262 84.1657 213.231 84.6207C212.217 85.0717 211.091 85.1007 210.059 84.7057L209.921 84.6527C209.054 84.2977 208.388 83.6327 207.942 82.6717C207.497 81.7077 207.469 80.5527 207.869 79.5067L208.146 78.7837C208.345 78.2627 208.929 78.0037 209.447 78.2027L215.108 80.3677C215.626 80.5657 215.888 81.1487 215.689 81.6687L215.455 82.2807Z" fill="white"/>
<path d="M196.388 72.9828C195.926 72.4798 194.667 71.3118 192.527 70.6758V71.4298C194.293 72.0058 195.375 72.9658 195.806 73.4108C195.949 73.5568 196.021 73.6488 196.025 73.6528L196.591 73.2188C196.578 73.2008 196.511 73.1138 196.388 72.9828Z" fill="white"/>
<path d="M204.124 77.2726L204.146 76.5586C204.191 76.5596 205.251 76.5956 206.28 76.9896C207.376 77.4086 207.953 78.0156 207.977 78.0406L207.456 78.5296C207.452 78.5256 206.958 78.0136 206.025 77.6566C205.112 77.3076 204.134 77.2726 204.124 77.2726Z" fill="white"/>
<path d="M218.683 80.9287C217.353 80.6607 216.148 80.7647 216.07 80.7717L216.135 81.4827C216.155 81.4817 217.392 81.3767 218.683 81.6617V80.9287Z" fill="white"/>
<path d="M198.786 146.288C198.786 146.288 199.016 150.845 197.569 152.101C196.122 153.356 194.779 146.984 194.779 146.984C194.779 146.984 196.344 154.674 194.538 154.88C192.732 155.086 190.993 147.599 190.993 147.599C190.993 147.599 191.243 152.747 189.915 153.047C188.587 153.348 187.088 147.864 187.088 147.864C187.088 147.864 186.845 151.847 185.897 152.193C184.949 152.539 183.136 147.912 183.058 145.556C182.98 143.199 186.318 144.63 186.318 144.63C186.318 144.63 188.865 143.83 190.096 144.784C190.096 144.784 192.277 143.704 193.867 144.403C193.869 144.403 197.598 143.231 198.786 146.288Z" fill="#FDA893"/>
<path d="M178.43 146.239L152.18 146.249C152.16 146.239 152.1 146.019 152.1 146.009C151.64 139.039 156.05 127.299 159.13 117.039C161.17 110.249 163.85 102.079 169.48 99.7793C170.47 100.949 172.3 105.769 172.43 108.229C172.73 114.169 171.98 120.449 170.88 123.749C169.29 128.489 167.3 134.259 165.85 138.999C165.85 138.999 165.85 139.009 165.84 139.039C165.81 139.169 165.71 139.639 165.71 139.649C165.75 139.659 166.01 139.799 166.47 140.059C168.18 141.009 172.65 143.519 178.43 146.239Z" fill="#707FFF"/>
<path d="M166.47 140.059C163.72 141.339 159.83 144.039 159.79 144.069C159.68 144.149 159.56 144.179 159.45 144.179C159.26 144.179 159.07 144.089 158.95 143.919C158.76 143.649 158.83 143.279 159.1 143.089C159.27 142.969 163.02 140.369 165.84 139.039C165.81 139.169 165.71 139.639 165.71 139.649C165.75 139.659 166.01 139.799 166.47 140.059Z" fill="#4F60D9"/>
<path d="M186.431 98.2754C186.431 98.2754 188.43 107.374 195.59 107.874C202.75 108.374 203.399 101.141 203.399 101.141" stroke="white" stroke-width="1.2" stroke-miterlimit="10" stroke-linecap="round"/>
<path d="M439.133 396.39C439.133 396.39 438.317 397.188 436.645 397.311C436.14 397.352 435.56 397.329 434.891 397.194C434.181 397.065 433.377 396.812 432.485 396.39C432.485 396.39 432.872 379.949 426.224 368.624C419.576 357.299 410.774 341.656 417.815 333.634C424.856 325.613 436.199 336.762 439.913 355.538C443.634 374.316 439.133 396.39 439.133 396.39Z" fill="#4F60D9"/>
<path d="M436.645 397.311C436.14 397.352 435.56 397.329 434.891 397.194C437.027 368.008 423.777 345.464 423.643 345.235C423.391 344.818 423.526 344.279 423.942 344.026C424.359 343.779 424.899 343.914 425.151 344.331C425.291 344.56 438.822 367.55 436.645 397.311Z" fill="#1D38C8"/>
<path d="M461.935 369.857C446.38 395.006 447.454 400.821 447.454 400.821L445.412 400.457L443.675 400.152L441.198 399.712C439.819 388.557 448.386 341.41 463.66 341.41C479.21 341.41 467.234 361.296 461.935 369.857Z" fill="#4F60D9"/>
<path d="M461.348 355.386C461.201 355.633 448.175 378.869 445.411 400.456L443.674 400.151C446.514 378.217 459.67 354.77 459.81 354.518C460.05 354.096 460.591 353.949 461.013 354.189C461.436 354.43 461.583 354.964 461.348 355.386Z" fill="#1D38C8"/>
<path d="M432.344 398.62L430.554 399.101L428.841 399.565L427.814 399.841C427.878 399.618 427.098 397.693 416.155 383.071C411.637 377.027 399.584 360.774 410.634 358.045C420.767 355.545 432.637 390.199 432.344 398.62Z" fill="#4F60D9"/>
<path d="M430.554 399.1L428.841 399.564C425.684 385.475 412.875 368.183 412.734 367.995C412.446 367.608 412.528 367.056 412.916 366.763C413.304 366.475 413.855 366.552 414.148 366.945C414.712 367.707 427.304 384.689 430.554 399.1Z" fill="#1D38C8"/>
<path d="M454.016 435.825C454.016 438.64 419.225 438.64 419.225 435.825V394.457C419.225 394.029 419.572 393.682 420 393.682H453.24C453.668 393.682 454.015 394.029 454.015 394.457L454.016 435.825Z" fill="#3B3E7D"/>
<path d="M93.0028 436.856H67.9968C64.5958 436.856 61.5818 434.254 60.5308 430.411L49.9258 391.63C49.4918 390.043 50.4228 388.394 51.8228 388.265C71.1308 386.487 90.2508 386.485 109.18 388.26C110.578 388.391 111.507 390.039 111.074 391.624L100.468 430.41C99.4178 434.254 96.4038 436.856 93.0028 436.856Z" fill="#3B3E7D"/>
<path d="M108.854 391.081C108.854 392.113 96.2358 392.949 80.6708 392.949C65.1058 392.949 52.4878 392.113 52.4878 391.081C52.4878 390.049 65.1058 389.213 80.6708 389.213C96.2358 389.213 108.854 390.05 108.854 391.081Z" fill="#18285D"/>
<path d="M112.589 338.669C102.447 335.997 86.9509 357.048 82.2449 377.572V347.669C84.6109 343.474 89.1209 337.162 97.3099 330.493C110.045 320.121 121.768 306.811 111.608 304.135C102.087 301.627 87.8469 320.028 82.2449 339.272V300.871C83.8859 298.324 86.5739 294.982 90.8709 291.482C98.8969 284.945 106.285 276.557 99.8819 274.87C94.3249 273.406 86.2179 283.243 82.2449 294.337V281.891C82.9019 278.041 83.8299 272.542 86.3769 266.92C92.2799 253.894 95.4689 240.473 87.6859 241.472C79.8959 242.471 74.8449 265.671 79.1049 283.481V289.886C76.2269 276.852 66.3549 263.354 59.9109 265.051C53.5079 266.738 60.8959 275.126 68.9219 281.663C75.0309 286.639 77.8899 291.296 79.1049 293.801V324.052C74.4899 303.425 58.8839 282.135 48.6879 284.821C38.5279 287.497 50.2509 300.808 62.9859 311.179C72.6089 319.017 77.1539 326.361 79.1049 330.356V366.632C74.1719 346.382 58.9649 325.946 48.9639 328.581C38.8039 331.257 47.5169 340.985 61.8289 352.75C71.5549 360.746 76.7649 369.184 79.1049 373.771V390.858C80.2399 391.176 81.3029 391.174 82.2449 390.858V384.059C84.2359 380.032 88.7849 372.772 98.2919 365.03C111.026 354.656 122.749 341.345 112.589 338.669Z" fill="#4F60D9"/>
</g>
<defs>
<clipPath id="clip0_812_5035">
<rect width="500" height="500" fill="white"/>
</clipPath>
</defs>
</svg>
