<svg width="42" height="42" viewBox="0 0 42 42" fill="none" xmlns="http://www.w3.org/2000/svg">
<g clip-path="url(#clip0_1072_11)">
<path d="M21 41.5C32.3218 41.5 41.5 32.3218 41.5 21C41.5 9.67816 32.3218 0.5 21 0.5C9.67816 0.5 0.5 9.67816 0.5 21C0.5 32.3218 9.67816 41.5 21 41.5Z" fill="#102130" stroke="white"/>
<path d="M25.3903 21.5197H22.4446V31H18.0772V21.5197H16V17.8083H18.0772V15.4065C18.0772 13.6891 18.8927 11 22.4837 11L25.7186 11.0139V14.6161H23.3712C22.9859 14.6161 22.4446 14.8086 22.4446 15.6277V17.8119H25.7721L25.3903 21.5197Z" fill="white"/>
</g>
<defs>
<clipPath id="clip0_1072_11">
<rect width="42" height="42" fill="white"/>
</clipPath>
</defs>
</svg>
