<svg width="42" height="42" viewBox="0 0 42 42" fill="none" xmlns="http://www.w3.org/2000/svg">
<g clip-path="url(#clip0_1072_2)">
<mask id="mask0_1072_2" style="mask-type:luminance" maskUnits="userSpaceOnUse" x="0" y="0" width="42" height="42">
<path d="M42 0H0V42H42V0Z" fill="white"/>
</mask>
<g mask="url(#mask0_1072_2)">
<path d="M21 41.5C32.3218 41.5 41.5 32.3218 41.5 21C41.5 9.67816 32.3218 0.5 21 0.5C9.67816 0.5 0.5 9.67816 0.5 21C0.5 32.3218 9.67816 41.5 21 41.5Z" fill="#102130" stroke="white"/>
<path d="M27 9.75H15C12.1005 9.75 9.75 12.1005 9.75 15V27C9.75 29.8995 12.1005 32.25 15 32.25H27C29.8995 32.25 32.25 29.8995 32.25 27V15C32.25 12.1005 29.8995 9.75 27 9.75Z" stroke="white" stroke-width="1.5"/>
<path d="M21 26.25C23.8995 26.25 26.25 23.8995 26.25 21C26.25 18.1005 23.8995 15.75 21 15.75C18.1005 15.75 15.75 18.1005 15.75 21C15.75 23.8995 18.1005 26.25 21 26.25Z" stroke="white" stroke-width="1.5"/>
<path d="M28 14.75C28.4142 14.75 28.75 14.4142 28.75 14C28.75 13.5858 28.4142 13.25 28 13.25C27.5858 13.25 27.25 13.5858 27.25 14C27.25 14.4142 27.5858 14.75 28 14.75Z" fill="white" stroke="white" stroke-width="0.5"/>
</g>
</g>
<defs>
<clipPath id="clip0_1072_2">
<rect width="42" height="42" fill="white"/>
</clipPath>
</defs>
</svg>
