<svg width="42" height="42" viewBox="0 0 42 42" fill="none" xmlns="http://www.w3.org/2000/svg">
<circle cx="21" cy="21" r="20.5" fill="#003366" stroke="white"/>
<path d="M31.2743 23.4064V31H26.8719V23.9155C26.8719 22.1366 26.2362 20.9217 24.6425 20.9217C23.4259 20.9217 22.7032 21.7399 22.384 22.5318C22.268 22.8145 22.2384 23.2075 22.2384 23.6048V31H17.8355C17.8355 31 17.8946 19.0014 17.8355 17.759H22.2384V19.6355C22.2295 19.6508 22.2173 19.6645 22.2094 19.6787H22.2384V19.6355C22.8235 18.735 23.867 17.4483 26.2061 17.4483C29.1029 17.4483 31.2743 19.3406 31.2743 23.4064ZM11.0005 31H15.4019V17.759H11.0005V31ZM15.5327 13.2664C15.5327 14.5182 14.5182 15.5327 13.2664 15.5327C12.015 15.5327 11 14.5182 11 13.2664C11 12.0145 12.0145 11 13.2664 11C14.5182 11 15.5327 12.0145 15.5327 13.2664Z" fill="white"/>
</svg>
