<svg width="600" height="600" viewBox="0 0 600 600" fill="none" xmlns="http://www.w3.org/2000/svg">
<path d="M600 458.879H0V459.179H600V458.879Z" fill="#D1E3FF"/>
<path d="M115.219 469.451H74.7288V469.751H115.219V469.451Z" fill="#D1E3FF"/>
<path d="M148.045 469.301H124.02V469.601H148.045V469.301Z" fill="#D1E3FF"/>
<path d="M263.21 477.168H149.467V477.468H263.21V477.168Z" fill="#D1E3FF"/>
<path d="M385.349 466.768H304.375V467.068H385.349V466.768Z" fill="#D1E3FF"/>
<path d="M496.401 469.434H424.2V469.734H496.401V469.434Z" fill="#D1E3FF"/>
<path d="M284.417 405.361H52.698C48.9216 405.361 45.8484 402.288 45.8484 398.511V72.793C45.8484 69.0166 48.9216 65.9434 52.698 65.9434H284.417C288.192 65.9434 291.265 69.0166 291.265 72.793V398.511C291.265 402.288 288.192 405.361 284.417 405.361ZM52.698 66.2446C49.086 66.2446 46.1484 69.1822 46.1484 72.7942V398.513C46.1484 402.125 49.086 405.062 52.698 405.062H284.417C288.028 405.062 290.965 402.125 290.965 398.513V72.793C290.965 69.1822 288.028 66.2434 284.417 66.2434L52.698 66.2446Z" fill="#D1E3FF"/>
<path d="M543.972 405.361H312.255C308.479 405.361 305.406 402.288 305.406 398.511V72.793C305.406 69.0166 308.479 65.9434 312.255 65.9434H543.972C547.75 65.9434 550.822 69.0166 550.822 72.793V398.511C550.823 402.288 547.75 405.361 543.972 405.361ZM312.255 66.2446C308.644 66.2446 305.706 69.1822 305.706 72.7942V398.513C305.706 402.125 308.644 405.062 312.255 405.062H543.972C547.584 405.062 550.522 402.125 550.522 398.513V72.793C550.522 69.1822 547.584 66.2434 543.972 66.2434L312.255 66.2446Z" fill="#D1E3FF"/>
<path d="M328.165 381.555C306.867 348.536 309.276 445.832 270.142 402.598C222.064 349.484 153.074 331.685 183.224 372.339C213.374 412.993 195.439 427.073 119.329 381.554C64.1353 348.544 165.92 447.511 138.044 443.752C110.168 439.994 67.8841 430.823 103.943 458.782L337.875 458.878C337.875 458.878 349.464 414.573 328.165 381.555Z" fill="#EEF9FF"/>
<path d="M431.412 458.88H379.371C352.243 440.201 337.157 390.154 375.296 335.772C381.644 326.725 389.457 317.564 398.937 308.402C413.377 384.787 475.581 436.222 431.412 458.88Z" fill="#E3EEFF"/>
<path d="M335.33 458.88H387.372C411.523 445.073 418.635 408.083 371.831 367.888C364.04 361.201 354.768 354.43 343.829 347.658C341.559 404.117 287.55 442.133 335.33 458.88Z" fill="#E3EEFF"/>
<path d="M468.908 458.88H425.863C405.885 447.459 400.003 416.863 438.717 383.616C445.161 378.085 452.831 372.484 461.88 366.883C463.757 413.582 508.43 445.027 468.908 458.88Z" fill="#E3EEFF"/>
<path d="M437.94 458.88C437.94 458.88 439.14 444.602 452.19 437.252C446.84 447.602 448.007 458.88 448.007 458.88H437.94Z" fill="#EEF9FF"/>
<path d="M367.59 458.88C367.59 458.88 366.39 444.602 353.34 437.252C358.689 447.602 357.523 458.88 357.523 458.88H367.59Z" fill="#EEF9FF"/>
<path d="M188.923 458.88C188.923 458.88 187.723 444.602 174.673 437.252C180.023 447.602 178.857 458.88 178.857 458.88H188.923Z" fill="#E3EEFF"/>
<path d="M75.9168 458.879C75.9168 458.879 71.7096 438.935 52.1772 428.668C61.4856 443.126 61.854 458.879 61.854 458.879H75.9168Z" fill="#EEF9FF"/>
<path d="M526.566 458.879C526.566 458.879 529.876 429.556 506.047 414.461C512.849 435.717 505.893 458.879 505.893 458.879H526.566Z" fill="#E3EEFF"/>
<path d="M513.319 458.879C513.319 458.879 520.05 434.925 544.372 422.594C531.977 439.958 530.208 458.879 530.208 458.879H513.319Z" fill="#E3EEFF"/>
<path d="M430.444 458.88C430.444 458.88 431.317 434.901 447.203 426.201C440.103 438.501 440.509 458.88 440.509 458.88H430.444Z" fill="#EEF9FF"/>
<path d="M268.464 458.879C268.464 458.879 269.114 451.138 276.189 447.152C273.289 452.764 273.921 458.879 273.921 458.879H268.464Z" fill="#E3EEFF"/>
<path d="M268.262 458.879C268.262 458.879 267.612 451.138 260.537 447.152C263.437 452.764 262.805 458.879 262.805 458.879H268.262Z" fill="#E3EEFF"/>
<path d="M264.399 458.879C264.399 458.879 264.873 445.879 273.486 441.162C269.636 447.831 269.857 458.879 269.857 458.879H264.399Z" fill="#E3EEFF"/>
<path d="M120.65 458.879C120.65 458.879 121.672 448.512 108.622 441.162C113.971 451.512 110.584 458.879 110.584 458.879H120.65Z" fill="#E3EEFF"/>
<path d="M121.022 458.88C121.022 458.88 122.222 444.602 135.272 437.252C129.923 447.602 131.089 458.88 131.089 458.88H121.022Z" fill="#E3EEFF"/>
<path d="M128.147 458.88C128.147 458.88 127.273 434.901 111.388 426.201C118.488 438.501 118.08 458.88 118.08 458.88H128.147Z" fill="#E3EEFF"/>
<path d="M64.2349 223.106C68.5705 217.628 77.2945 213.397 83.7421 213.662C86.1565 213.768 87.9073 214.484 88.9273 215.626C100.706 208.808 114.254 204.617 125.441 205.081C131.128 205.307 135.553 206.713 138.612 209.008C151.252 198.715 167.363 191.42 179.052 191.42C185.693 191.42 189.822 193.781 191.287 197.72C204.262 190.81 217.585 186.566 228.331 186.566C245.466 186.566 251.03 197.35 244.02 212.496C246.828 215.347 260.336 219.34 259.787 224.114H63.4861C63.7261 223.783 63.9649 223.452 64.2349 223.106Z" fill="#F3F8FF"/>
<path d="M256.77 128.48C259.945 128.631 262.166 129.796 263.387 131.672C279.419 120.562 297.502 113.745 312.065 114.501C319.501 114.868 325.158 117.176 328.922 120.908C328.938 120.929 328.944 120.908 328.944 120.908C346.37 104.168 368.101 92.3031 383.396 92.3031C392.102 92.3031 397.284 96.1431 398.825 102.55C416.411 91.2891 434.215 84.3867 448.279 84.3867C465.712 84.3867 473.412 95.0007 471.007 111.33C479.411 106.584 487.655 103.78 494.374 103.78C503.684 103.78 508.045 109.151 507.292 117.564C508.114 117.564 508.921 117.608 509.718 117.694C523.926 119.097 529.37 129.969 522.536 142.394H231.456C237.83 134.195 248.806 128.069 256.77 128.48Z" fill="#F3F8FF"/>
<path d="M403.134 237.585C404.682 237.658 405.766 238.227 406.36 239.142C414.176 233.725 422.992 230.402 430.092 230.769C433.717 230.948 436.476 232.074 438.311 233.893C438.318 233.904 438.322 233.893 438.322 233.893C446.818 225.732 457.412 219.946 464.87 219.946C469.115 219.946 471.641 221.818 472.392 224.942C480.966 219.452 489.647 216.086 496.504 216.086C505.003 216.086 508.757 221.26 507.584 229.222C511.681 226.909 515.701 225.541 518.976 225.541C523.516 225.541 525.642 228.159 525.274 232.262C525.674 232.262 526.068 232.284 526.457 232.326C533.383 233.01 536.039 238.31 532.706 244.368H390.792C393.9 240.372 399.251 237.385 403.134 237.585Z" fill="#F3F8FF"/>
<path d="M300 513.074C428.498 513.074 532.667 506.99 532.667 499.486C532.667 491.982 428.498 485.898 300 485.898C171.502 485.898 67.3333 491.982 67.3333 499.486C67.3333 506.99 171.502 513.074 300 513.074Z" fill="#F0F6FF"/>
<path d="M470.7 252.095C405.03 248.818 362.998 272.669 337.639 298.586C367.872 229.47 438.505 185.015 438.505 185.015C380.094 200.185 346.702 232.883 327.84 264.516C349.358 187.591 404.149 125.465 404.149 125.465C353.795 157.828 329.402 199.417 317.633 235.402C322.696 154.873 344.324 117.65 344.324 117.65C344.324 117.65 303.97 131.495 300.076 249.082C296.182 131.495 255.827 117.65 255.827 117.65C255.827 117.65 277.456 154.873 282.518 235.402C270.748 199.417 246.356 157.828 196.002 125.465C196.002 125.465 250.793 187.592 272.311 264.516C253.45 232.884 220.057 200.185 161.646 185.015C161.646 185.015 232.279 229.47 262.512 298.586C237.154 272.67 195.12 248.818 129.451 252.095C129.451 252.095 282.368 280.586 274.8 406.4C272.358 446.993 263.21 473.6 256.307 499.486H300.076H339.2C341.6 472.037 331.625 433.514 326.255 405.06C309.02 283.537 470.7 252.095 470.7 252.095Z" fill="#9FC6FF"/>
<path d="M162.686 293.25C165.224 282.418 158.5 271.579 147.667 269.042C136.835 266.504 125.996 273.228 123.458 284.06C120.921 294.892 127.645 305.731 138.477 308.269C149.309 310.807 160.148 304.083 162.686 293.25Z" fill="#0053CC"/>
<path d="M152.741 291.245C156.122 287.863 156.122 282.381 152.74 278.999C149.358 275.617 143.875 275.617 140.495 278.999C137.352 282.142 137.131 287.101 139.832 290.501C139.252 290.956 138.685 291.425 138.125 291.9C137.316 292.587 136.523 293.289 135.742 294.003C134.963 294.719 134.191 295.443 133.434 296.181C133.052 296.547 132.68 296.922 132.304 297.293C132.11 297.473 131.941 297.678 131.824 297.934C131.764 298.061 131.716 298.199 131.683 298.354C131.651 298.509 131.629 298.673 131.645 298.876C131.695 299.517 132.204 300.045 132.865 300.096C133.068 300.112 133.232 300.09 133.387 300.058C133.542 300.026 133.68 299.976 133.807 299.918C134.063 299.799 134.268 299.631 134.448 299.438C134.819 299.061 135.194 298.689 135.56 298.307C136.3 297.551 137.022 296.778 137.738 296C138.452 295.218 139.154 294.425 139.841 293.616C140.316 293.056 140.785 292.489 141.24 291.907C144.64 294.609 149.598 294.388 152.741 291.245ZM141.787 289.953C139.12 287.285 139.118 282.959 141.787 280.29C144.456 277.621 148.782 277.623 151.45 280.29C154.118 282.959 154.118 287.285 151.451 289.953C148.781 292.621 144.455 292.62 141.787 289.953Z" fill="white"/>
<path d="M428.633 141.996C436.192 141.996 442.32 135.868 442.32 128.308C442.32 120.749 436.192 114.621 428.633 114.621C421.074 114.621 414.946 120.749 414.946 128.308C414.946 135.868 421.074 141.996 428.633 141.996Z" fill="#9FC6FF"/>
<path d="M434.767 130.265C437.002 128.03 437.002 124.406 434.767 122.172C432.533 119.937 428.909 119.937 426.675 122.172C424.598 124.249 424.451 127.526 426.237 129.773C425.853 130.073 425.478 130.383 425.108 130.698C424.574 131.151 424.049 131.616 423.533 132.087C423.018 132.561 422.508 133.039 422.008 133.527C421.756 133.769 421.51 134.018 421.26 134.263C421.132 134.382 421.021 134.517 420.942 134.687C420.903 134.771 420.87 134.862 420.849 134.964C420.827 135.066 420.813 135.175 420.823 135.309C420.856 135.733 421.193 136.082 421.63 136.116C421.764 136.127 421.872 136.111 421.975 136.091C422.077 136.069 422.169 136.037 422.253 135.997C422.422 135.919 422.558 135.807 422.676 135.679C422.921 135.429 423.169 135.185 423.412 134.931C423.9 134.431 424.378 133.921 424.852 133.406C425.323 132.89 425.788 132.366 426.241 131.832C426.556 131.461 426.865 131.087 427.167 130.703C429.413 132.488 432.69 132.342 434.767 130.265ZM427.529 129.411C425.766 127.649 425.765 124.789 427.529 123.026C429.293 121.262 432.151 121.264 433.914 123.026C435.678 124.79 435.678 127.649 433.914 129.413C432.151 131.174 429.292 131.174 427.529 129.411Z" fill="white"/>
<path d="M177.527 135.402C182.28 130.649 182.28 122.941 177.527 118.188C172.773 113.434 165.066 113.434 160.312 118.188C155.558 122.941 155.558 130.649 160.312 135.402C165.066 140.156 172.773 140.156 177.527 135.402Z" fill="#71B8FF"/>
<path d="M174.638 128.619C176.72 126.537 176.72 123.161 174.638 121.079C172.556 118.997 169.18 118.997 167.098 121.079C165.162 123.015 165.027 126.067 166.69 128.16C166.332 128.44 165.983 128.729 165.639 129.022C165.141 129.444 164.652 129.877 164.171 130.317C163.692 130.758 163.216 131.203 162.75 131.658C162.515 131.884 162.286 132.115 162.054 132.343C161.936 132.455 161.831 132.581 161.758 132.738C161.721 132.816 161.692 132.901 161.672 132.996C161.652 133.091 161.638 133.193 161.648 133.318C161.679 133.713 161.992 134.038 162.399 134.069C162.524 134.079 162.624 134.065 162.72 134.045C162.815 134.025 162.9 133.995 162.978 133.959C163.136 133.885 163.262 133.782 163.373 133.663C163.601 133.432 163.833 133.203 164.058 132.967C164.513 132.502 164.958 132.027 165.4 131.547C165.839 131.065 166.272 130.577 166.695 130.079C166.986 129.733 167.276 129.385 167.556 129.028C169.649 130.69 172.702 130.554 174.638 128.619ZM167.892 127.823C166.25 126.18 166.25 123.517 167.892 121.875C169.535 120.232 172.199 120.232 173.841 121.875C175.484 123.517 175.484 126.18 173.841 127.824C172.199 129.467 169.535 129.466 167.892 127.823Z" fill="white"/>
<path d="M186.888 241.397C194.755 233.53 194.755 220.775 186.888 212.907C179.02 205.04 166.265 205.04 158.398 212.907C150.531 220.775 150.531 233.53 158.398 241.397C166.265 249.265 179.02 249.265 186.888 241.397Z" fill="#71B8FF"/>
<path d="M179.398 221.24C179.448 220.97 179.309 220.7 179.059 220.585C177.916 220.057 176.383 219.755 174.856 219.755C169.698 219.755 165.502 223.951 165.502 229.109C165.502 232.558 167.81 234.362 170.09 234.362C172.086 234.362 173.702 233.585 175 231.994C175.182 232.64 175.49 233.088 175.771 233.384C176.372 234.016 177.227 234.362 178.178 234.362C181.744 234.362 185.353 231.137 185.353 224.971C185.353 218.333 180.686 213.697 174.005 213.697C165.977 213.697 159.923 220.052 159.923 228.481C159.923 235.506 164.882 240.605 171.714 240.605C174.426 240.605 176.539 240.127 178.568 239.058C178.835 238.918 178.956 238.602 178.85 238.319L178.259 236.73C178.198 236.566 178.068 236.437 177.904 236.376C177.739 236.316 177.557 236.33 177.404 236.416C176.005 237.2 174.128 237.632 172.12 237.632C166.8 237.632 163.226 233.866 163.226 228.258C163.226 221.5 167.635 216.594 173.708 216.594C178.853 216.594 182.048 219.889 182.048 225.192C182.048 227.514 181.397 229.486 180.26 230.6C179.755 231.096 179.198 231.361 178.676 231.353C178.393 231.344 178.272 231.236 178.198 231.143C177.99 230.882 177.706 230.119 178.139 227.926L179.398 221.24ZM174.413 222.911C174.814 222.911 175.2 222.947 175.567 223.016L174.894 226.639C174.522 228.733 172.73 231.168 170.977 231.168C169.378 231.168 169.139 229.784 169.139 228.96C169.139 225.682 171.554 222.911 174.413 222.911Z" fill="white"/>
<path d="M334.201 109.676C340.924 109.676 346.374 104.226 346.374 97.5029C346.374 90.78 340.924 85.3301 334.201 85.3301C327.478 85.3301 322.028 90.78 322.028 97.5029C322.028 104.226 327.478 109.676 334.201 109.676Z" fill="#318FFF"/>
<path d="M338.292 93.9254C338.323 93.7622 338.238 93.599 338.088 93.5294C337.396 93.2102 336.467 93.0266 335.543 93.0266C332.419 93.0266 329.879 95.567 329.879 98.6906C329.879 100.779 331.277 101.872 332.658 101.872C333.867 101.872 334.846 101.401 335.631 100.438C335.741 100.829 335.927 101.1 336.099 101.28C336.462 101.662 336.981 101.873 337.557 101.873C339.715 101.873 341.901 99.9194 341.901 96.1862C341.901 92.1662 339.075 89.3594 335.028 89.3594C330.167 89.3594 326.501 93.2078 326.501 98.3114C326.501 102.565 329.503 105.653 333.641 105.653C335.283 105.653 336.563 105.364 337.792 104.716C337.953 104.631 338.026 104.44 337.962 104.268L337.605 103.306C337.567 103.206 337.489 103.128 337.39 103.092C337.29 103.056 337.18 103.065 337.087 103.116C336.24 103.591 335.104 103.853 333.887 103.853C330.666 103.853 328.501 101.572 328.501 98.177C328.501 94.085 331.17 91.1138 334.848 91.1138C337.963 91.1138 339.898 93.1094 339.898 96.3206C339.898 97.727 339.503 98.921 338.815 99.5954C338.509 99.8954 338.172 100.056 337.857 100.051C337.685 100.047 337.612 99.9806 337.566 99.9242C337.44 99.767 337.269 99.3038 337.531 97.9766L338.292 93.9254ZM335.274 94.937C335.517 94.937 335.751 94.9586 335.973 95.0006L335.565 97.1942C335.339 98.4626 334.254 99.9362 333.193 99.9362C332.225 99.9362 332.08 99.0986 332.08 98.5994C332.081 96.6146 333.544 94.937 335.274 94.937Z" fill="white"/>
<path d="M428.88 169.71C431.454 158.885 424.766 148.023 413.942 145.449C403.117 142.874 392.255 149.562 389.68 160.387C387.106 171.211 393.794 182.073 404.618 184.648C415.443 187.223 426.305 180.535 428.88 169.71Z" fill="#0053CC"/>
<path d="M416.045 159.152C416.095 158.882 415.956 158.612 415.706 158.497C414.56 157.968 413.027 157.666 411.498 157.666C406.334 157.666 402.133 161.867 402.133 167.03C402.133 170.483 404.444 172.29 406.728 172.29C408.726 172.29 410.345 171.511 411.643 169.918C411.826 170.566 412.134 171.014 412.416 171.31C413.017 171.942 413.874 172.289 414.827 172.289C418.397 172.289 422.01 169.06 422.01 162.887C422.01 156.241 417.337 151.6 410.648 151.6C402.611 151.6 396.551 157.963 396.551 166.4C396.551 173.434 401.515 178.538 408.356 178.538C411.071 178.538 413.188 178.061 415.219 176.989C415.486 176.849 415.607 176.532 415.502 176.249L414.911 174.659C414.85 174.494 414.72 174.365 414.556 174.305C414.391 174.245 414.209 174.258 414.055 174.344C412.655 175.129 410.776 175.562 408.764 175.562C403.439 175.562 399.86 171.791 399.86 166.177C399.86 159.41 404.274 154.499 410.354 154.499C415.505 154.499 418.704 157.798 418.704 163.108C418.704 165.433 418.051 167.406 416.914 168.522C416.407 169.018 415.85 169.284 415.328 169.276C415.045 169.267 414.923 169.159 414.85 169.066C414.642 168.805 414.358 168.041 414.791 165.845L416.045 159.152ZM411.054 160.825C411.456 160.825 411.842 160.861 412.21 160.932L411.536 164.558C411.164 166.655 409.37 169.093 407.615 169.093C406.013 169.093 405.774 167.708 405.774 166.883C405.774 163.598 408.192 160.825 411.054 160.825Z" fill="white"/>
<path d="M202.652 184.339C212.356 178.897 215.81 166.617 210.367 156.913C204.924 147.209 192.645 143.755 182.941 149.198C173.237 154.64 169.782 166.92 175.225 176.624C180.668 186.328 192.947 189.782 202.652 184.339Z" fill="#9FC6FF"/>
<path d="M205.348 166.757C205.348 166.73 205.334 166.706 205.332 166.678C205.327 166.04 205.29 165.395 205.184 164.746C204.648 161.441 202.853 158.54 200.13 156.575C198.036 155.066 195.588 154.259 193.067 154.209C192.986 154.204 192.906 154.208 192.824 154.206C192.812 154.206 192.803 154.199 192.792 154.199C192.781 154.199 192.773 154.205 192.762 154.205C192.655 154.206 192.548 154.209 192.442 154.216C191.89 154.233 191.335 154.271 190.781 154.361C184.648 155.357 180.282 160.667 180.251 166.686C180.25 166.71 180.236 166.731 180.236 166.755C180.236 166.781 180.25 166.804 180.252 166.83C180.256 167.47 180.294 168.116 180.4 168.766C181.397 174.911 186.722 179.294 192.755 179.31C192.764 179.31 192.775 179.313 192.785 179.313C192.796 179.313 192.805 179.31 192.816 179.31C193.472 179.309 194.137 179.256 194.804 179.148C200.938 178.152 205.303 172.844 205.336 166.827C205.336 166.804 205.348 166.782 205.348 166.757ZM202.049 171.718H199.853C200.171 170.486 200.37 169.158 200.435 167.775H203.249C203.112 169.176 202.697 170.512 202.049 171.718ZM183.534 161.795H185.73C185.412 163.028 185.213 164.355 185.148 165.738H182.334C182.471 164.338 182.886 163.002 183.534 161.795ZM198.343 165.004C198.366 165.25 198.378 165.495 198.391 165.74H193.81V161.796H197.724C198.018 162.79 198.236 163.864 198.343 165.004ZM193.81 159.759V156.428C194.093 156.531 194.374 156.674 194.652 156.864C195.548 157.48 196.326 158.493 196.944 159.759H193.81ZM191.772 156.437V159.759H188.627C189.432 158.092 190.522 156.89 191.772 156.437ZM191.772 161.795V165.738H187.193C187.27 164.343 187.5 163.006 187.855 161.795H191.772ZM182.408 168.442C182.372 168.219 182.356 167.998 182.334 167.776H185.15C185.166 168.083 185.18 168.39 185.209 168.7C185.309 169.757 185.488 170.768 185.731 171.719H183.526C182.992 170.72 182.6 169.623 182.408 168.442ZM187.238 168.51C187.216 168.264 187.204 168.02 187.192 167.775H191.772V171.718H187.858C187.564 170.724 187.345 169.65 187.238 168.51ZM191.772 173.756V177.075C191.489 176.972 191.208 176.84 190.93 176.649C190.033 176.033 189.256 175.02 188.638 173.756H191.772ZM193.81 177.077V173.756H196.956C196.151 175.422 195.061 176.625 193.81 177.077ZM193.81 171.718V167.775H198.389C198.312 169.17 198.083 170.507 197.726 171.718H193.81ZM200.431 165.738C200.416 165.431 200.401 165.124 200.372 164.814C200.273 163.757 200.095 162.747 199.85 161.795H202.057C202.598 162.807 202.985 163.907 203.173 165.071C203.209 165.294 203.226 165.515 203.248 165.737H200.431V165.738ZM200.633 159.759H199.171C198.871 159.018 198.53 158.326 198.14 157.709C198.413 157.871 198.679 158.042 198.94 158.229C199.566 158.68 200.129 159.196 200.633 159.759ZM187.429 157.719C187.04 158.336 186.698 159.022 186.4 159.759H184.95C185.66 158.961 186.497 158.273 187.429 157.719ZM184.954 173.756H186.413C186.714 174.5 187.057 175.193 187.45 175.812C186.517 175.262 185.677 174.566 184.954 173.756ZM198.155 175.794C198.544 175.178 198.886 174.491 199.184 173.756H200.633C199.922 174.554 199.086 175.24 198.155 175.794Z" fill="white"/>
<path d="M408.974 106.292C410.512 99.7476 406.453 93.1952 399.909 91.657C393.364 90.1188 386.812 94.1774 385.273 100.722C383.735 107.267 387.794 113.819 394.339 115.357C400.883 116.896 407.436 112.837 408.974 106.292Z" fill="#0053CC"/>
<path d="M405.209 103.436C405.209 103.418 405.2 103.402 405.199 103.385C405.197 102.974 405.173 102.557 405.104 102.138C404.759 100.005 403.6 98.1328 401.843 96.8656C400.492 95.8912 398.911 95.3716 397.285 95.338C397.234 95.3356 397.181 95.3368 397.129 95.3368C397.122 95.3368 397.116 95.332 397.108 95.332C397.1 95.332 397.094 95.3356 397.088 95.3356C397.02 95.3356 396.95 95.338 396.882 95.3428C396.526 95.3536 396.168 95.3788 395.81 95.4364C391.853 96.0784 389.035 99.5056 389.015 103.39C389.014 103.406 389.006 103.419 389.006 103.434C389.006 103.451 389.015 103.466 389.016 103.482C389.018 103.895 389.042 104.312 389.111 104.732C389.755 108.696 393.191 111.526 397.084 111.536C397.09 111.536 397.097 111.537 397.103 111.537C397.11 111.537 397.116 111.536 397.123 111.536C397.547 111.534 397.975 111.501 398.406 111.431C402.364 110.788 405.181 107.363 405.202 103.48C405.2 103.467 405.209 103.452 405.209 103.436ZM403.079 106.637H401.662C401.867 105.842 401.995 104.986 402.037 104.093H403.853C403.765 104.997 403.498 105.858 403.079 106.637ZM391.132 100.234H392.549C392.344 101.03 392.215 101.885 392.173 102.778H390.358C390.445 101.874 390.713 101.013 391.132 100.234ZM400.688 102.304C400.703 102.462 400.71 102.621 400.72 102.778H397.763V100.234H400.289C400.478 100.876 400.62 101.568 400.688 102.304ZM397.763 98.92V96.7708C397.945 96.838 398.128 96.9292 398.306 97.0528C398.885 97.45 399.386 98.104 399.786 98.9212L397.763 98.92ZM396.448 96.7756V98.9188H394.418C394.938 97.8436 395.641 97.0684 396.448 96.7756ZM396.448 100.234V102.778H393.493C393.544 101.877 393.691 101.015 393.922 100.234H396.448ZM390.406 104.523C390.382 104.379 390.372 104.236 390.358 104.093H392.176C392.185 104.291 392.195 104.489 392.213 104.69C392.276 105.371 392.392 106.024 392.55 106.637H391.127C390.781 105.993 390.529 105.285 390.406 104.523ZM393.522 104.567C393.508 104.409 393.5 104.25 393.492 104.093H396.449V106.637H393.923C393.732 105.995 393.59 105.303 393.522 104.567ZM396.448 107.952V110.094C396.265 110.027 396.084 109.943 395.904 109.82C395.326 109.422 394.824 108.768 394.424 107.952H396.448ZM397.763 110.096V107.952H399.793C399.274 109.028 398.57 109.804 397.763 110.096ZM397.763 106.637V104.093H400.718C400.668 104.994 400.52 105.856 400.291 106.637H397.763ZM402.036 102.778C402.026 102.58 402.017 102.382 401.998 102.182C401.934 101.5 401.819 100.847 401.66 100.234H403.085C403.434 100.887 403.684 101.596 403.805 102.348C403.829 102.492 403.838 102.635 403.853 102.778H402.036ZM402.166 98.92H401.222C401.029 98.4424 400.81 97.996 400.556 97.5976C400.732 97.702 400.904 97.8124 401.072 97.9324C401.477 98.224 401.84 98.5564 402.166 98.92ZM393.646 97.6024C393.395 98.0008 393.174 98.4436 392.981 98.9188H392.046C392.503 98.404 393.043 97.9612 393.646 97.6024ZM392.047 107.952H392.989C393.184 108.432 393.404 108.88 393.658 109.28C393.056 108.924 392.515 108.474 392.047 107.952ZM400.566 109.268C400.817 108.869 401.038 108.426 401.231 107.952H402.166C401.707 108.467 401.167 108.91 400.566 109.268Z" fill="white"/>
<path d="M484.535 230.12C487.109 219.296 480.421 208.433 469.597 205.859C458.772 203.284 447.91 209.972 445.336 220.797C442.761 231.621 449.449 242.484 460.273 245.058C471.098 247.633 481.96 240.945 484.535 230.12Z" fill="#318FFF"/>
<path d="M474.42 216.57H455.448C453.456 216.57 451.818 218.207 451.818 220.2V229.997C451.818 231.989 453.455 233.626 455.448 233.626H469.369L469.267 237.053L472.782 233.626H474.419C476.411 233.626 478.049 231.989 478.049 229.997V220.2C478.05 218.208 476.413 216.57 474.42 216.57ZM455.016 220.746C455.016 220.188 455.473 219.731 456.031 219.731H460.397C460.955 219.731 461.399 220.188 461.399 220.746C461.399 221.292 460.955 221.748 460.397 221.748H456.031C455.473 221.748 455.016 221.292 455.016 220.746ZM473.341 230.226H465.791C465.245 230.226 464.787 229.782 464.787 229.224C464.787 228.666 465.245 228.222 465.791 228.222H473.341C473.899 228.222 474.343 228.666 474.343 229.224C474.344 229.782 473.9 230.226 473.341 230.226ZM473.341 225.987H457.046C456.5 225.987 456.043 225.543 456.043 224.985C456.043 224.426 456.5 223.983 457.046 223.983H473.341C473.899 223.983 474.343 224.427 474.343 224.985C474.344 225.543 473.9 225.987 473.341 225.987ZM473.341 221.748H463.695C463.137 221.748 462.692 221.291 462.692 220.746C462.692 220.188 463.136 219.731 463.695 219.731H473.341C473.899 219.731 474.343 220.188 474.343 220.746C474.344 221.292 473.9 221.748 473.341 221.748Z" fill="white"/>
<path d="M150.043 188.022C155.98 182.086 155.979 172.461 150.043 166.525C144.107 160.589 134.483 160.589 128.547 166.525C122.611 172.461 122.611 182.086 128.547 188.022C134.483 193.958 144.107 193.958 150.043 188.022Z" fill="#0053CC"/>
<path d="M146.103 171.193H132.492C131.063 171.193 129.888 172.368 129.888 173.797V180.827C129.888 182.256 131.063 183.431 132.492 183.431H142.48L142.407 185.89L144.93 183.431H146.104C147.534 183.431 148.709 182.256 148.709 180.827V173.797C148.707 172.367 147.532 171.193 146.103 171.193ZM132.181 174.189C132.181 173.788 132.509 173.46 132.909 173.46H136.041C136.442 173.46 136.76 173.788 136.76 174.189C136.76 174.58 136.441 174.909 136.041 174.909H132.909C132.51 174.907 132.181 174.58 132.181 174.189ZM145.329 180.99H139.911C139.52 180.99 139.193 180.671 139.193 180.27C139.193 179.869 139.52 179.551 139.911 179.551H145.329C145.73 179.551 146.048 179.869 146.048 180.27C146.048 180.671 145.73 180.99 145.329 180.99ZM145.329 177.949H133.638C133.246 177.949 132.919 177.63 132.919 177.231C132.919 176.83 133.246 176.512 133.638 176.512H145.329C145.73 176.512 146.048 176.83 146.048 177.231C146.048 177.63 145.73 177.949 145.329 177.949ZM145.329 174.907H138.409C138.008 174.907 137.69 174.58 137.69 174.187C137.69 173.787 138.009 173.459 138.409 173.459H145.329C145.73 173.459 146.048 173.787 146.048 174.187C146.048 174.58 145.73 174.907 145.329 174.907Z" fill="white"/>
<path d="M268.548 96.0626C270.215 89.5495 266.286 82.9185 259.773 81.2519C253.26 79.5853 246.629 83.5142 244.962 90.0273C243.296 96.5404 247.225 103.171 253.738 104.838C260.251 106.505 266.882 102.576 268.548 96.0626Z" fill="#9FC6FF"/>
<path d="M262.258 87.9102H251.232C250.074 87.9102 249.123 88.8618 249.123 90.0198V95.7126C249.123 96.8706 250.074 97.8222 251.232 97.8222H259.323L259.264 99.813L261.306 97.8222H262.258C263.416 97.8222 264.367 96.8706 264.367 95.7126V90.0198C264.367 88.8618 263.416 87.9102 262.258 87.9102ZM250.981 90.3366C250.981 90.0126 251.247 89.7462 251.572 89.7462H254.109C254.433 89.7462 254.691 90.0114 254.691 90.3366C254.691 90.6534 254.433 90.9198 254.109 90.9198H251.572C251.247 90.9198 250.981 90.6534 250.981 90.3366ZM261.631 95.8458H257.243C256.926 95.8458 256.66 95.5878 256.66 95.2626C256.66 94.9386 256.925 94.6806 257.243 94.6806H261.631C261.955 94.6806 262.213 94.9386 262.213 95.2626C262.213 95.5878 261.955 95.8458 261.631 95.8458ZM261.631 93.3822H252.162C251.845 93.3822 251.58 93.1242 251.58 92.8002C251.58 92.475 251.845 92.217 252.162 92.217H261.631C261.955 92.217 262.213 92.475 262.213 92.8002C262.213 93.1242 261.955 93.3822 261.631 93.3822ZM261.631 90.9198H256.026C255.702 90.9198 255.443 90.6546 255.443 90.3366C255.443 90.0126 255.701 89.7462 256.026 89.7462H261.631C261.955 89.7462 262.213 90.0114 262.213 90.3366C262.213 90.6534 261.955 90.9198 261.631 90.9198Z" fill="white"/>
<path d="M463.019 308.69C470.886 300.823 470.886 288.068 463.019 280.2C455.151 272.333 442.396 272.333 434.529 280.2C426.661 288.068 426.661 300.823 434.529 308.69C442.396 316.558 455.151 316.558 463.019 308.69Z" fill="#71B8FF"/>
<path d="M452.006 290.87C447.109 289.373 444.074 284.044 444.074 284.044C444.074 284.044 442.524 283.956 442.451 285.357C442.322 287.818 443.66 289.594 444.482 290.445L442.128 290.312C441.289 290.264 440.448 290.354 439.638 290.574L438.857 290.788C437.509 291.158 436.699 292.533 437.032 293.89L438.151 298.467C438.509 299.93 439.432 301.192 440.718 301.977C441.852 302.669 443.192 302.943 444.508 302.752C446.906 302.402 450.638 301.854 451.285 301.742L452.992 301.598L453.571 291.33L452.006 290.87Z" fill="white"/>
<path d="M459.667 302.976H453.073C452.561 302.976 452.141 302.556 452.141 302.043V290.382C452.141 289.869 452.561 289.449 453.073 289.449H459.667C460.179 289.449 460.599 289.869 460.599 290.382V302.043C460.599 302.556 460.181 302.976 459.667 302.976Z" fill="#0053CC"/>
<path d="M139.479 233.934C141.419 225.765 136.369 217.572 128.201 215.632C120.032 213.693 111.839 218.743 109.899 226.911C107.96 235.079 113.01 243.273 121.178 245.212C129.346 247.152 137.54 242.102 139.479 233.934Z" fill="#318FFF"/>
<path d="M126.473 227.876C122.869 226.774 120.635 222.852 120.635 222.852C120.635 222.852 119.494 222.788 119.44 223.818C119.345 225.63 120.33 226.937 120.935 227.564L119.202 227.466C118.585 227.432 117.966 227.498 117.37 227.661L116.795 227.818C115.802 228.09 115.207 229.102 115.452 230.102L116.276 233.47C116.54 234.546 117.22 235.476 118.165 236.054C119 236.564 119.987 236.765 120.955 236.624C122.72 236.367 125.467 235.964 125.944 235.88L127.2 235.774L127.626 228.218L126.473 227.876Z" fill="white"/>
<path d="M132.111 236.786H127.259C126.882 236.786 126.572 236.478 126.572 236.1V227.516C126.572 227.14 126.881 226.83 127.259 226.83H132.111C132.488 226.83 132.798 227.138 132.798 227.516V236.1C132.798 236.477 132.488 236.786 132.111 236.786Z" fill="#0053CC"/>
<path d="M244.789 137.543C250.725 131.607 250.725 121.983 244.789 116.047C238.852 110.111 229.228 110.111 223.292 116.047C217.356 121.983 217.356 131.607 223.292 137.543C229.228 143.479 238.852 143.479 244.789 137.543Z" fill="#0053CC"/>
<path d="M236.418 124.278C232.814 123.176 230.58 119.255 230.58 119.255C230.58 119.255 229.439 119.19 229.385 120.221C229.29 122.033 230.275 123.34 230.88 123.966L229.147 123.869C228.53 123.834 227.911 123.899 227.315 124.063L226.74 124.22C225.748 124.492 225.152 125.504 225.397 126.504L226.222 129.872C226.486 130.949 227.165 131.879 228.11 132.456C228.946 132.966 229.932 133.168 230.899 133.026C232.664 132.768 235.411 132.366 235.888 132.282L237.144 132.176L237.571 124.62L236.418 124.278Z" fill="white"/>
<path d="M242.057 133.189H237.204C236.827 133.189 236.518 132.88 236.518 132.502V123.919C236.518 123.542 236.826 123.232 237.204 123.232H242.057C242.434 123.232 242.743 123.541 242.743 123.919V132.502C242.743 132.88 242.435 133.189 242.057 133.189Z" fill="#9FC6FF"/>
<path d="M317.33 122.46C319.985 111.656 313.378 100.745 302.573 98.0901C291.769 95.4354 280.858 102.042 278.203 112.847C275.549 123.651 282.155 134.562 292.96 137.217C303.764 139.872 314.675 133.265 317.33 122.46Z" fill="#318FFF"/>
<path d="M306.075 109.525H289.464C287.803 109.525 286.439 110.89 286.439 112.551V122.753C286.439 124.414 287.803 125.771 289.464 125.771H306.075C307.743 125.771 309.1 124.414 309.1 122.753V112.551C309.1 110.89 307.743 109.525 306.075 109.525ZM295.123 121.915V113.388L302.511 117.648L295.123 121.915Z" fill="white"/>
<path d="M462.466 192.473C469.189 192.473 474.639 187.023 474.639 180.3C474.639 173.577 469.189 168.127 462.466 168.127C455.743 168.127 450.293 173.577 450.293 180.3C450.293 187.023 455.743 192.473 462.466 192.473Z" fill="#0053CC"/>
<path d="M467.731 175.373H457.656C456.648 175.373 455.821 176.2 455.821 177.208V183.396C455.821 184.403 456.648 185.227 457.656 185.227H467.731C468.743 185.227 469.566 184.404 469.566 183.396V177.208C469.566 176.201 468.743 175.373 467.731 175.373ZM461.088 182.889V177.717L465.569 180.3L461.088 182.889Z" fill="white"/>
<path d="M199.762 302.279C201.301 295.734 197.242 289.181 190.697 287.643C184.153 286.105 177.6 290.164 176.062 296.708C174.524 303.253 178.582 309.806 185.127 311.344C191.672 312.882 198.224 308.823 199.762 302.279Z" fill="#71B8FF"/>
<path d="M192.936 294.557H182.861C181.853 294.557 181.026 295.383 181.026 296.391V302.58C181.026 303.587 181.853 304.411 182.861 304.411H192.936C193.948 304.411 194.771 303.588 194.771 302.58V296.391C194.771 295.383 193.948 294.557 192.936 294.557ZM186.293 302.071V296.899L190.774 299.483L186.293 302.071Z" fill="white"/>
<path d="M427.302 242.848C433.238 236.912 433.238 227.287 427.302 221.351C421.366 215.415 411.742 215.415 405.806 221.351C399.87 227.287 399.87 236.912 405.806 242.848C411.742 248.784 421.366 248.784 427.302 242.848Z" fill="#318FFF"/>
<path d="M416.558 222.9C411.54 222.9 407.47 226.971 407.47 231.989C407.47 236.295 410.465 239.901 414.484 240.838L416.56 243.48L418.635 240.838H418.636C422.653 239.9 425.649 236.292 425.649 231.989C425.647 226.971 421.577 222.9 416.558 222.9ZM416.558 235.778C414.467 235.778 412.772 234.081 412.772 231.989C412.772 229.898 414.467 228.203 416.558 228.203C418.65 228.203 420.346 229.898 420.346 231.989C420.346 234.081 418.65 235.778 416.558 235.778Z" fill="white"/>
<path d="M374.708 137.545C380.645 131.609 380.645 121.985 374.708 116.049C368.772 110.113 359.148 110.113 353.212 116.049C347.276 121.985 347.276 131.609 353.212 137.545C359.148 143.481 368.772 143.481 374.708 137.545Z" fill="#71B8FF"/>
<path d="M363.964 117.648C358.945 117.648 354.875 121.719 354.875 126.737C354.875 131.043 357.87 134.649 361.889 135.586L363.964 138.228L366.039 135.586C370.056 134.648 373.053 131.04 373.053 126.736C373.054 121.719 368.983 117.648 363.964 117.648ZM363.964 130.526C361.872 130.526 360.178 128.829 360.178 126.737C360.178 124.646 361.872 122.951 363.964 122.951C366.055 122.951 367.752 124.646 367.752 126.737C367.752 128.83 366.055 130.526 363.964 130.526Z" fill="white"/>
<path d="M248.904 407.899C248.716 408.916 248.551 409.631 248.365 410.477L247.756 412.865C247.337 414.443 246.886 415.996 246.419 417.54C245.453 420.617 244.391 423.643 243.222 426.618C242.082 429.605 240.812 432.533 239.506 435.434C238.859 436.889 238.165 438.32 237.467 439.748L236.946 440.82L236.65 441.424C236.498 441.714 236.353 442.015 236.185 442.289C235.53 443.41 234.749 444.379 233.93 445.205C232.282 446.86 230.506 447.937 228.79 448.819C227.065 449.682 225.361 450.318 223.68 450.833C220.304 451.819 217.018 452.41 213.75 452.758C207.208 453.466 200.876 453.394 194.416 452.761L194.522 446.706C197.455 446.384 200.522 446.051 203.479 445.549C206.454 445.096 209.395 444.544 212.25 443.875C215.094 443.185 217.879 442.406 220.366 441.356C222.836 440.375 225.085 439.001 226.074 437.752C226.321 437.452 226.486 437.178 226.585 436.944L227.242 435.258C227.803 433.852 228.326 432.432 228.86 431.018C229.943 428.197 230.926 425.345 231.904 422.502C232.866 419.654 233.789 416.801 234.631 413.945C235.064 412.523 235.482 411.097 235.862 409.68L236.412 407.563L236.897 405.604L248.904 407.899Z" fill="#FF8B7B"/>
<path d="M240.722 392.844C235.892 394.074 232.514 413.949 232.514 413.949L245.823 422.999C245.823 422.999 258.584 402.95 254.869 397.64C250.999 392.11 247.77 391.05 240.722 392.844Z" fill="#0F264C"/>
<path d="M240.285 400.07L250.623 402.464L251.615 412.571C248.911 418.146 245.821 422.999 245.821 422.999L237.749 417.515C238.097 412.867 238.973 403.211 240.285 400.07Z" fill="#0A1B35"/>
<path d="M247.274 421.24C247.213 421.24 247.15 421.222 247.096 421.184L232.905 411.536C232.761 411.438 232.724 411.242 232.821 411.097C232.921 410.952 233.119 410.916 233.262 411.014L247.453 420.662C247.597 420.761 247.634 420.956 247.537 421.102C247.474 421.192 247.375 421.24 247.274 421.24Z" fill="white"/>
<path d="M196.246 446.625L187.935 438.201L186.843 450.067C186.843 450.067 193.075 454.284 197.386 452.017L196.246 446.625Z" fill="#FF8B7B"/>
<path d="M178.164 436.941L177.787 446.925L186.842 450.067L187.936 438.201L178.164 436.941Z" fill="#FF8B7B"/>
<path d="M240.722 392.845C240.722 392.845 235.14 394.81 246.322 463.569C265.207 463.569 284.725 463.569 293.914 463.569C293.115 444.2 293.094 432.256 302.35 392.505C302.35 392.505 292.378 390.336 282.141 389.842C274.132 389.456 267.571 389.2 260.53 389.844C251.248 390.691 240.722 392.845 240.722 392.845Z" fill="#0F264C"/>
<path d="M291.152 410.961L297.294 416.188C295.981 423.141 295.105 428.933 294.539 434.084C293.393 428.921 290.47 414.914 291.152 410.961Z" fill="#0A1B35"/>
<path d="M295.993 377.918C292.273 371.422 288.597 363.575 292.086 352.61C296.094 340.006 293.917 333.777 291.385 330.771C289.088 328.043 285.482 326.823 281.18 327.273C277.05 327.435 275.112 330.179 275.112 330.179C275.112 330.179 256.556 331.762 244.682 345.475C248.525 356.656 243.019 370.231 235.952 375.399C258.481 394.492 282.618 388.508 290.523 384.961C294.315 383.259 295.653 380.897 294.829 377.072C295.043 377.457 295.259 377.84 295.473 378.217C295.529 378.314 295.629 378.368 295.734 378.368C295.784 378.368 295.836 378.355 295.883 378.328C296.025 378.244 296.075 378.061 295.993 377.918ZM290.925 331.157C291.926 332.345 292.86 334.078 293.348 336.549C291.851 332.007 288.045 329.264 284.88 327.927C287.358 328.307 289.441 329.395 290.925 331.157ZM290.628 351.754C291.792 349.678 292.608 347.758 293.15 345.976C292.799 347.909 292.269 350.048 291.513 352.426C289.67 358.22 289.789 363.148 290.851 367.477C288.835 362.446 287.841 356.725 290.628 351.754Z" fill="#0F264C"/>
<path d="M285.716 363.417C285.716 364.249 285.04 364.925 284.208 364.925C283.375 364.925 282.699 364.249 282.699 363.417C282.699 362.584 283.375 361.908 284.208 361.908C285.04 361.908 285.716 362.584 285.716 363.417Z" fill="white"/>
<path d="M267.319 401.01C265.056 401.01 258.166 401.01 255.814 396.118C254.74 393.888 255.152 391.665 255.685 390.195C255.745 390.031 255.926 389.946 256.09 390.006C256.255 390.066 256.34 390.247 256.28 390.411C255.788 391.768 255.406 393.812 256.384 395.845C258.564 400.377 265.153 400.377 267.319 400.377C282.727 400.377 285.394 391.143 285.501 390.751L285.697 390.024C285.742 389.854 285.916 389.756 286.084 389.799C286.254 389.845 286.353 390.019 286.308 390.187L286.112 390.914C286 391.326 283.207 401.01 267.319 401.01Z" fill="white"/>
<path d="M280 365.51C278.636 372.463 277.276 385.203 282.14 389.843C282.14 389.843 280.24 396.897 267.319 396.897C254.891 396.897 260.53 389.845 260.53 389.845C268.283 387.993 268.084 382.24 266.732 376.838L280 365.51Z" fill="#FF8B7B"/>
<path d="M274.591 370.131L266.739 376.83C267.063 378.11 267.315 379.406 267.405 380.667C270.367 380.238 274.436 376.988 274.75 373.886C274.908 372.338 274.843 370.851 274.591 370.131Z" fill="#EA7063"/>
<path d="M280.816 347.188C282.159 358.74 282.974 363.6 278.252 370.498C271.149 380.873 256.666 379.996 251.9 369.077C247.61 359.25 246.135 342.01 256.506 335.461C266.724 329.01 279.474 335.637 280.816 347.188Z" fill="#FF8B7B"/>
<path d="M269.778 337.281C267.139 342.344 247.978 348.425 238.836 347.864C238.836 347.864 241.508 346.459 242.423 345.262C242.408 341.315 242.392 332.696 248.33 327.789C257.995 319.802 267.964 320.62 274.05 322.339C277.589 323.338 280.36 326.095 281.495 329.593L282.142 331.586L269.778 337.281Z" fill="#0F264C"/>
<path d="M273.856 333.395L268.741 336.252C268.741 336.252 265.408 354.097 281.763 353.635C281.763 353.635 281.608 335.979 273.856 333.395Z" fill="#0F264C"/>
<path d="M285.695 355.338C285.472 357.721 284.194 359.815 282.691 361.093C280.432 363.013 278.177 361.309 277.862 358.543C277.579 356.054 278.414 352.055 281.136 351.2C283.818 350.359 285.95 352.613 285.695 355.338Z" fill="#FF8B7B"/>
<path d="M322.68 476.972C321.429 461.574 299.574 462.31 284.805 464.202C284.119 464.29 283.458 464.387 282.806 464.489C282.372 463.548 281.313 463.102 279.561 463.352C267.487 463.062 251.189 463.57 251.189 463.57C243.5 461.948 228.678 460.888 217.403 460.821C206.714 460.757 191.792 460.814 183.989 463.061C177.149 465.032 170.171 466.436 168.902 472.648C167.634 478.862 169.051 493.713 181.362 496.673C195.003 499.954 211.538 501.09 226.092 503.673C226.092 503.673 227.605 498.482 230.004 491.446L230.293 491.568L230.379 491.582C234.503 492.203 238.659 492.358 242.766 492.06C245.423 491.867 247.808 493.748 248.252 496.373C248.256 496.392 248.258 496.413 248.262 496.432C249.301 502.614 255.531 509.877 284.417 509.022C313.303 508.169 323.93 492.37 322.68 476.972Z" fill="#0053CC"/>
<path d="M227.748 501.896L231.132 489.174C231.254 488.711 231.677 488.42 232.146 488.475L242.598 489.703C243.681 489.83 244.431 490.991 244.129 492.054C242.873 496.469 242.045 498.537 240.557 504.132C239.641 507.573 238.105 514.789 236.841 519.542C235.605 524.191 230.81 523.298 230.911 521.207C231.362 511.824 229.659 507.631 227.943 503.973C227.63 503.315 227.568 502.574 227.748 501.896Z" fill="#0F264C"/>
<path d="M226.344 509.406C226.156 509.406 225.962 509.37 225.762 509.295C225.476 509.192 225.289 508.988 225.22 508.709C224.84 507.156 228.319 503.288 228.717 502.853C228.772 502.791 228.862 502.772 228.939 502.805C229.016 502.837 229.064 502.915 229.058 502.998C228.936 504.909 228.523 508.254 227.125 509.167C226.88 509.327 226.62 509.406 226.344 509.406ZM228.622 503.55C227.432 504.921 225.35 507.594 225.601 508.615C225.638 508.769 225.732 508.868 225.895 508.928C226.274 509.065 226.605 509.036 226.909 508.839C227.755 508.285 228.385 506.327 228.622 503.55Z" fill="#407BFF"/>
<path d="M227.713 504.166L232.105 487.69L226.324 485.301L218.17 502.992L227.713 504.166Z" fill="#9FC6FF"/>
<path d="M224.241 505.835C224.06 505.835 223.898 505.807 223.761 505.746C223.496 505.626 223.204 505.336 223.318 504.623C223.406 504.082 223.683 503.641 224.144 503.315C225.681 502.227 228.765 502.769 228.896 502.792C228.964 502.805 229.021 502.852 229.045 502.917C229.069 502.983 229.057 503.055 229.014 503.109C228.168 504.149 225.64 505.835 224.241 505.835ZM227.01 503.032C226.098 503.032 225.045 503.158 224.371 503.635C223.995 503.903 223.777 504.246 223.707 504.685C223.616 505.251 223.846 505.354 223.922 505.387C224.721 505.756 227.288 504.347 228.471 503.128C228.139 503.085 227.604 503.032 227.01 503.032Z" fill="#407BFF"/>
<path d="M253.557 504.536L256.946 491.815C257.07 491.352 256.848 490.891 256.413 490.705L246.734 486.575C245.73 486.146 244.503 486.781 244.237 487.854C243.132 492.309 242.823 494.516 241.333 500.111C240.416 503.552 238.162 510.576 236.896 515.329C235.658 519.978 240.262 521.587 241.215 519.721C245.487 511.356 249.05 508.565 252.357 506.244C252.954 505.825 253.377 505.213 253.557 504.536Z" fill="#0F264C"/>
<path d="M251.772 511.959C251.717 511.959 251.66 511.954 251.603 511.943C251.082 511.853 250.706 511.588 250.484 511.155C249.725 509.666 251.029 506.559 251.873 504.839C251.91 504.764 251.978 504.716 252.072 504.731C252.155 504.741 252.222 504.802 252.24 504.883C252.368 505.459 253.465 510.545 252.363 511.703C252.204 511.871 252.001 511.959 251.772 511.959ZM251.976 505.537C251.334 506.932 250.202 509.738 250.833 510.975C250.998 511.297 251.271 511.487 251.669 511.556C251.841 511.582 251.97 511.545 252.079 511.431C252.804 510.671 252.326 507.321 251.976 505.537Z" fill="#407BFF"/>
<path d="M255.186 509.859C255.158 509.859 255.13 509.858 255.104 509.856C253.798 509.727 252.103 506.451 251.857 504.958C251.845 504.89 251.871 504.822 251.924 504.777C251.978 504.733 252.051 504.722 252.116 504.742C252.241 504.787 255.189 505.849 255.981 507.558C256.219 508.07 256.24 508.59 256.046 509.103C255.813 509.715 255.464 509.859 255.186 509.859ZM252.316 505.243C252.739 506.889 254.265 509.378 255.142 509.466C255.224 509.474 255.476 509.498 255.678 508.964C255.835 508.546 255.818 508.141 255.624 507.722C255.048 506.48 253.102 505.569 252.316 505.243Z" fill="#407BFF"/>
<path d="M253.021 504.38L255.783 488.95L262.521 488.701L262.001 508.344L253.021 504.38Z" fill="#9FC6FF"/>
<path d="M264.056 353.484C264.223 354.414 263.864 355.257 263.256 355.366C262.647 355.475 262.02 354.809 261.853 353.878C261.686 352.948 262.045 352.105 262.652 351.996C263.262 351.887 263.89 352.553 264.056 353.484Z" fill="#0F264C"/>
<path d="M253.54 355.365C253.707 356.295 253.348 357.137 252.74 357.247C252.132 357.356 251.504 356.69 251.337 355.759C251.17 354.829 251.529 353.986 252.138 353.877C252.746 353.768 253.374 354.434 253.54 355.365Z" fill="#0F264C"/>
<path d="M252.415 353.882L250.065 353.637C250.065 353.637 251.525 355.178 252.415 353.882Z" fill="#0F264C"/>
<path d="M256.605 356.465C256.605 356.465 255.743 360.752 254.351 362.996C255.785 363.923 257.779 363.025 257.779 363.025L256.605 356.465Z" fill="#FF5652"/>
<path d="M262.569 365.597C262.496 365.597 262.428 365.551 262.403 365.478C262.37 365.386 262.419 365.285 262.512 365.253C265.381 364.254 266.649 361.373 266.663 361.344C266.701 361.254 266.807 361.216 266.895 361.252C266.985 361.29 267.026 361.394 266.988 361.484C266.935 361.608 265.644 364.537 262.628 365.587C262.608 365.593 262.589 365.597 262.569 365.597Z" fill="#0F264C"/>
<path d="M265.338 347.516C265.256 347.516 265.175 347.489 265.109 347.432C263.151 345.769 261.132 346.332 261.047 346.357C260.859 346.408 260.663 346.304 260.607 346.117C260.552 345.93 260.659 345.734 260.846 345.678C260.945 345.65 263.309 344.976 265.567 346.895C265.716 347.021 265.734 347.244 265.608 347.394C265.538 347.473 265.439 347.516 265.338 347.516Z" fill="#0F264C"/>
<path d="M247.539 351.536C247.47 351.536 247.399 351.514 247.336 351.471C247.177 351.359 247.137 351.138 247.25 350.979C248.948 348.552 251.403 348.608 251.51 348.608C251.706 348.615 251.858 348.778 251.852 348.972C251.846 349.167 251.66 349.293 251.488 349.316C251.394 349.32 249.301 349.284 247.831 351.384C247.761 351.483 247.651 351.536 247.539 351.536Z" fill="#0F264C"/>
<path d="M262.932 351.999L260.582 351.754C260.582 351.754 262.04 353.295 262.932 351.999Z" fill="#0F264C"/>
<path d="M294.626 460.776L295.005 465.036C295.172 465.366 294.78 465.703 294.23 465.703H246.087C245.658 465.703 245.302 465.493 245.276 465.223L244.846 460.963C244.816 460.668 245.188 460.418 245.658 460.418H293.851C294.205 460.419 294.519 460.563 294.626 460.776Z" fill="#9FC6FF"/>
<path d="M288.153 466.165H289.445C289.701 466.165 289.897 466.032 289.88 465.871L289.275 460.337C289.257 460.175 289.033 460.043 288.776 460.043H287.485C287.228 460.043 287.033 460.176 287.049 460.337L287.654 465.871C287.672 466.033 287.897 466.165 288.153 466.165Z" fill="#0F264C"/>
<path d="M249.714 466.165H251.005C251.262 466.165 251.457 466.032 251.44 465.871L250.834 460.337C250.816 460.175 250.592 460.043 250.335 460.043H249.044C248.787 460.043 248.592 460.176 248.608 460.337L249.213 465.871C249.232 466.033 249.457 466.165 249.714 466.165Z" fill="#0F264C"/>
<path d="M268.934 466.165H270.225C270.482 466.165 270.678 466.032 270.661 465.871L270.056 460.337C270.038 460.175 269.814 460.043 269.557 460.043H268.266C268.009 460.043 267.813 460.176 267.83 460.337L268.436 465.871C268.452 466.033 268.677 466.165 268.934 466.165Z" fill="#0F264C"/>
<path d="M161.052 430.676H244.572L256.676 479.995H173.156L161.052 430.676Z" fill="#318FFF"/>
<path d="M203.368 470.809L254.448 482.721L287.23 473.535L286.891 470.809H203.368Z" fill="#318FFF"/>
<path d="M306.836 405.584C308.069 409.095 309.078 412.536 310.116 416.041C311.108 419.544 312 423.082 312.841 426.658C313.684 430.238 314.4 433.863 314.938 437.622C315.211 439.502 315.43 441.412 315.536 443.42C315.587 444.43 315.617 445.458 315.592 446.545L315.56 447.374L315.536 447.828L315.478 448.448C315.388 449.274 315.198 450.058 314.966 450.808C313.968 453.788 312.248 455.788 310.609 457.376C308.94 458.966 307.222 460.16 305.503 461.24C302.051 463.339 298.565 464.874 295.056 466.206C288.024 468.843 280.979 470.604 273.682 471.849L272.232 465.969C278.753 463.606 285.328 460.906 291.408 457.868C294.436 456.33 297.37 454.665 299.873 452.81C301.11 451.892 302.257 450.921 303.096 449.962C303.947 449.014 304.439 448.075 304.51 447.624C304.544 447.724 304.493 445.836 304.294 444.363C304.098 442.812 303.814 441.183 303.497 439.542C302.85 436.254 302 432.904 301.142 429.547C300.264 426.189 299.281 422.834 298.279 419.478C297.32 416.124 296.239 412.732 295.24 409.459L306.836 405.584Z" fill="#FF8B7B"/>
<path d="M302.35 392.505C307.117 393.954 314.416 412.668 314.416 412.668L295.918 425.893C295.918 425.893 287.6 409.893 289.603 403.729C291.69 397.312 296.909 390.85 302.35 392.505Z" fill="#0F264C"/>
<path d="M294.802 423.937C294.703 423.937 294.606 423.891 294.545 423.805C294.443 423.663 294.475 423.465 294.618 423.363L313.255 410.024C313.394 409.923 313.594 409.953 313.697 410.097C313.798 410.239 313.765 410.437 313.622 410.539L294.985 423.878C294.93 423.919 294.865 423.937 294.802 423.937Z" fill="white"/>
<path d="M274.628 466.384L263.513 463.568L268.808 474.244C268.808 474.244 276.326 474.564 278.807 470.372L274.628 466.384Z" fill="#FF8B7B"/>
<path d="M254.534 467.623L259.452 476.321L268.809 474.244L263.513 463.568L254.534 467.623Z" fill="#FF8B7B"/>
<path d="M158.481 430.676H242.001L254.106 479.995H170.586L158.481 430.676Z" fill="#9FC6FF"/>
<path d="M170.586 479.994L170.924 482.721H254.448L254.11 479.994H170.586Z" fill="#9FC6FF"/>
</svg>
