<svg width="288" height="288" viewBox="0 0 288 288" fill="none" xmlns="http://www.w3.org/2000/svg">
<path fill-rule="evenodd" clip-rule="evenodd" d="M147.328 18.3115C78.9291 18.3115 23.3071 73.5065 23.3071 141.373C23.3071 168.286 32.0751 193.23 46.9281 213.524L31.4411 259.217L79.0911 244.076C98.6681 256.921 122.126 264.421 147.328 264.421C215.699 264.421 271.336 209.221 271.336 141.373C271.336 73.5065 215.699 18.3115 147.328 18.3115Z" fill="url(#paint0_linear_814_4655)"/>
<path fill-rule="evenodd" clip-rule="evenodd" d="M287.134 140.318C287.134 217.32 224.219 279.758 146.608 279.758C121.961 279.758 98.8052 273.464 78.6752 262.407L0.866211 287.133L26.2292 212.322C13.4302 191.305 6.07121 166.658 6.07121 140.318C6.07121 63.3002 68.9862 0.866211 146.608 0.866211C224.218 0.866211 287.134 63.3002 287.134 140.318ZM146.608 23.0762C81.4432 23.0762 28.4512 75.6622 28.4512 140.319C28.4512 165.96 36.8042 189.724 50.9552 209.059L36.2002 252.591L81.5972 238.166C100.248 250.404 122.597 257.549 146.607 257.549C211.745 257.549 264.752 204.959 264.752 140.319C264.753 75.6612 211.746 23.0762 146.608 23.0762ZM217.571 172.436C216.7 171.009 214.402 170.154 210.971 168.444C207.524 166.738 190.578 158.46 187.425 157.327C184.272 156.19 181.958 155.617 179.676 159.033C177.378 162.452 170.774 170.154 168.758 172.436C166.754 174.722 164.75 175 161.303 173.291C157.852 171.585 146.747 167.963 133.595 156.334C123.361 147.261 116.447 136.08 114.427 132.661C112.427 129.246 114.228 127.397 115.934 125.691C117.489 124.152 119.385 121.699 121.107 119.711C122.833 117.707 123.405 116.276 124.554 113.994C125.703 111.712 125.131 109.724 124.26 108.014C123.405 106.308 116.511 89.4862 113.636 82.6362C110.781 75.8052 107.907 76.0602 105.887 76.0602C103.883 76.0602 100.165 76.6562 100.165 76.6562C100.165 76.6562 93.2592 77.5112 90.1072 80.9302C86.9542 84.3452 78.0562 92.6232 78.0562 109.429C78.0562 126.247 90.3892 142.509 92.1112 144.775C93.8362 147.061 115.935 182.702 150.959 196.387C185.983 210.068 185.983 205.504 192.301 204.927C198.607 204.371 212.678 196.665 215.552 188.681C218.426 180.698 218.426 173.851 217.571 172.436Z" fill="white"/>
<defs>
<linearGradient id="paint0_linear_814_4655" x1="147.322" y1="18.3115" x2="147.322" y2="264.421" gradientUnits="userSpaceOnUse">
<stop stop-color="#4AC14B"/>
<stop offset="1" stop-color="#06853A"/>
</linearGradient>
</defs>
</svg>
